<svg version="1.1" xmlns="http://www.w3.org/2000/svg" xmlns:xlink="http://www.w3.org/1999/xlink" width="659" height="548"><defs/><g><text fill="#eeeeee" stroke="none" font-family="Arial" font-size="24px" font-style="normal" font-weight="normal" text-decoration="none" x="0" y="0">UNREGISTERED</text><text fill="#eeeeee" stroke="none" font-family="Arial" font-size="24px" font-style="normal" font-weight="normal" text-decoration="none" x="0" y="30">UNREGISTERED</text><text fill="#eeeeee" stroke="none" font-family="Arial" font-size="24px" font-style="normal" font-weight="normal" text-decoration="none" x="0" y="60">UNREGISTERED</text><text fill="#eeeeee" stroke="none" font-family="Arial" font-size="24px" font-style="normal" font-weight="normal" text-decoration="none" x="0" y="90">UNREGISTERED</text><text fill="#eeeeee" stroke="none" font-family="Arial" font-size="24px" font-style="normal" font-weight="normal" text-decoration="none" x="0" y="120">UNREGISTERED</text><text fill="#eeeeee" stroke="none" font-family="Arial" font-size="24px" font-style="normal" font-weight="normal" text-decoration="none" x="0" y="150">UNREGISTERED</text><text fill="#eeeeee" stroke="none" font-family="Arial" font-size="24px" font-style="normal" font-weight="normal" text-decoration="none" x="0" y="180">UNREGISTERED</text><text fill="#eeeeee" stroke="none" font-family="Arial" font-size="24px" font-style="normal" font-weight="normal" text-decoration="none" x="0" y="210">UNREGISTERED</text><text fill="#eeeeee" stroke="none" font-family="Arial" font-size="24px" font-style="normal" font-weight="normal" text-decoration="none" x="0" y="240">UNREGISTERED</text><text fill="#eeeeee" stroke="none" font-family="Arial" font-size="24px" font-style="normal" font-weight="normal" text-decoration="none" x="0" y="270">UNREGISTERED</text><text fill="#eeeeee" stroke="none" font-family="Arial" font-size="24px" font-style="normal" font-weight="normal" text-decoration="none" x="0" y="300">UNREGISTERED</text><text fill="#eeeeee" stroke="none" font-family="Arial" font-size="24px" font-style="normal" font-weight="normal" text-decoration="none" x="0" y="330">UNREGISTERED</text><text fill="#eeeeee" stroke="none" font-family="Arial" font-size="24px" font-style="normal" font-weight="normal" text-decoration="none" x="0" y="360">UNREGISTERED</text><text fill="#eeeeee" stroke="none" font-family="Arial" font-size="24px" font-style="normal" font-weight="normal" text-decoration="none" x="0" y="390">UNREGISTERED</text><text fill="#eeeeee" stroke="none" font-family="Arial" font-size="24px" font-style="normal" font-weight="normal" text-decoration="none" x="0" y="420">UNREGISTERED</text><text fill="#eeeeee" stroke="none" font-family="Arial" font-size="24px" font-style="normal" font-weight="normal" text-decoration="none" x="0" y="450">UNREGISTERED</text><text fill="#eeeeee" stroke="none" font-family="Arial" font-size="24px" font-style="normal" font-weight="normal" text-decoration="none" x="0" y="480">UNREGISTERED</text><text fill="#eeeeee" stroke="none" font-family="Arial" font-size="24px" font-style="normal" font-weight="normal" text-decoration="none" x="0" y="510">UNREGISTERED</text><text fill="#eeeeee" stroke="none" font-family="Arial" font-size="24px" font-style="normal" font-weight="normal" text-decoration="none" x="0" y="540">UNREGISTERED</text><text fill="#eeeeee" stroke="none" font-family="Arial" font-size="24px" font-style="normal" font-weight="normal" text-decoration="none" x="200" y="0">UNREGISTERED</text><text fill="#eeeeee" stroke="none" font-family="Arial" font-size="24px" font-style="normal" font-weight="normal" text-decoration="none" x="200" y="30">UNREGISTERED</text><text fill="#eeeeee" stroke="none" font-family="Arial" font-size="24px" font-style="normal" font-weight="normal" text-decoration="none" x="200" y="60">UNREGISTERED</text><text fill="#eeeeee" stroke="none" font-family="Arial" font-size="24px" font-style="normal" font-weight="normal" text-decoration="none" x="200" y="90">UNREGISTERED</text><text fill="#eeeeee" stroke="none" font-family="Arial" font-size="24px" font-style="normal" font-weight="normal" text-decoration="none" x="200" y="120">UNREGISTERED</text><text fill="#eeeeee" stroke="none" font-family="Arial" font-size="24px" font-style="normal" font-weight="normal" text-decoration="none" x="200" y="150">UNREGISTERED</text><text fill="#eeeeee" stroke="none" font-family="Arial" font-size="24px" font-style="normal" font-weight="normal" text-decoration="none" x="200" y="180">UNREGISTERED</text><text fill="#eeeeee" stroke="none" font-family="Arial" font-size="24px" font-style="normal" font-weight="normal" text-decoration="none" x="200" y="210">UNREGISTERED</text><text fill="#eeeeee" stroke="none" font-family="Arial" font-size="24px" font-style="normal" font-weight="normal" text-decoration="none" x="200" y="240">UNREGISTERED</text><text fill="#eeeeee" stroke="none" font-family="Arial" font-size="24px" font-style="normal" font-weight="normal" text-decoration="none" x="200" y="270">UNREGISTERED</text><text fill="#eeeeee" stroke="none" font-family="Arial" font-size="24px" font-style="normal" font-weight="normal" text-decoration="none" x="200" y="300">UNREGISTERED</text><text fill="#eeeeee" stroke="none" font-family="Arial" font-size="24px" font-style="normal" font-weight="normal" text-decoration="none" x="200" y="330">UNREGISTERED</text><text fill="#eeeeee" stroke="none" font-family="Arial" font-size="24px" font-style="normal" font-weight="normal" text-decoration="none" x="200" y="360">UNREGISTERED</text><text fill="#eeeeee" stroke="none" font-family="Arial" font-size="24px" font-style="normal" font-weight="normal" text-decoration="none" x="200" y="390">UNREGISTERED</text><text fill="#eeeeee" stroke="none" font-family="Arial" font-size="24px" font-style="normal" font-weight="normal" text-decoration="none" x="200" y="420">UNREGISTERED</text><text fill="#eeeeee" stroke="none" font-family="Arial" font-size="24px" font-style="normal" font-weight="normal" text-decoration="none" x="200" y="450">UNREGISTERED</text><text fill="#eeeeee" stroke="none" font-family="Arial" font-size="24px" font-style="normal" font-weight="normal" text-decoration="none" x="200" y="480">UNREGISTERED</text><text fill="#eeeeee" stroke="none" font-family="Arial" font-size="24px" font-style="normal" font-weight="normal" text-decoration="none" x="200" y="510">UNREGISTERED</text><text fill="#eeeeee" stroke="none" font-family="Arial" font-size="24px" font-style="normal" font-weight="normal" text-decoration="none" x="200" y="540">UNREGISTERED</text><text fill="#eeeeee" stroke="none" font-family="Arial" font-size="24px" font-style="normal" font-weight="normal" text-decoration="none" x="400" y="0">UNREGISTERED</text><text fill="#eeeeee" stroke="none" font-family="Arial" font-size="24px" font-style="normal" font-weight="normal" text-decoration="none" x="400" y="30">UNREGISTERED</text><text fill="#eeeeee" stroke="none" font-family="Arial" font-size="24px" font-style="normal" font-weight="normal" text-decoration="none" x="400" y="60">UNREGISTERED</text><text fill="#eeeeee" stroke="none" font-family="Arial" font-size="24px" font-style="normal" font-weight="normal" text-decoration="none" x="400" y="90">UNREGISTERED</text><text fill="#eeeeee" stroke="none" font-family="Arial" font-size="24px" font-style="normal" font-weight="normal" text-decoration="none" x="400" y="120">UNREGISTERED</text><text fill="#eeeeee" stroke="none" font-family="Arial" font-size="24px" font-style="normal" font-weight="normal" text-decoration="none" x="400" y="150">UNREGISTERED</text><text fill="#eeeeee" stroke="none" font-family="Arial" font-size="24px" font-style="normal" font-weight="normal" text-decoration="none" x="400" y="180">UNREGISTERED</text><text fill="#eeeeee" stroke="none" font-family="Arial" font-size="24px" font-style="normal" font-weight="normal" text-decoration="none" x="400" y="210">UNREGISTERED</text><text fill="#eeeeee" stroke="none" font-family="Arial" font-size="24px" font-style="normal" font-weight="normal" text-decoration="none" x="400" y="240">UNREGISTERED</text><text fill="#eeeeee" stroke="none" font-family="Arial" font-size="24px" font-style="normal" font-weight="normal" text-decoration="none" x="400" y="270">UNREGISTERED</text><text fill="#eeeeee" stroke="none" font-family="Arial" font-size="24px" font-style="normal" font-weight="normal" text-decoration="none" x="400" y="300">UNREGISTERED</text><text fill="#eeeeee" stroke="none" font-family="Arial" font-size="24px" font-style="normal" font-weight="normal" text-decoration="none" x="400" y="330">UNREGISTERED</text><text fill="#eeeeee" stroke="none" font-family="Arial" font-size="24px" font-style="normal" font-weight="normal" text-decoration="none" x="400" y="360">UNREGISTERED</text><text fill="#eeeeee" stroke="none" font-family="Arial" font-size="24px" font-style="normal" font-weight="normal" text-decoration="none" x="400" y="390">UNREGISTERED</text><text fill="#eeeeee" stroke="none" font-family="Arial" font-size="24px" font-style="normal" font-weight="normal" text-decoration="none" x="400" y="420">UNREGISTERED</text><text fill="#eeeeee" stroke="none" font-family="Arial" font-size="24px" font-style="normal" font-weight="normal" text-decoration="none" x="400" y="450">UNREGISTERED</text><text fill="#eeeeee" stroke="none" font-family="Arial" font-size="24px" font-style="normal" font-weight="normal" text-decoration="none" x="400" y="480">UNREGISTERED</text><text fill="#eeeeee" stroke="none" font-family="Arial" font-size="24px" font-style="normal" font-weight="normal" text-decoration="none" x="400" y="510">UNREGISTERED</text><text fill="#eeeeee" stroke="none" font-family="Arial" font-size="24px" font-style="normal" font-weight="normal" text-decoration="none" x="400" y="540">UNREGISTERED</text><text fill="#eeeeee" stroke="none" font-family="Arial" font-size="24px" font-style="normal" font-weight="normal" text-decoration="none" x="600" y="0">UNREGISTERED</text><text fill="#eeeeee" stroke="none" font-family="Arial" font-size="24px" font-style="normal" font-weight="normal" text-decoration="none" x="600" y="30">UNREGISTERED</text><text fill="#eeeeee" stroke="none" font-family="Arial" font-size="24px" font-style="normal" font-weight="normal" text-decoration="none" x="600" y="60">UNREGISTERED</text><text fill="#eeeeee" stroke="none" font-family="Arial" font-size="24px" font-style="normal" font-weight="normal" text-decoration="none" x="600" y="90">UNREGISTERED</text><text fill="#eeeeee" stroke="none" font-family="Arial" font-size="24px" font-style="normal" font-weight="normal" text-decoration="none" x="600" y="120">UNREGISTERED</text><text fill="#eeeeee" stroke="none" font-family="Arial" font-size="24px" font-style="normal" font-weight="normal" text-decoration="none" x="600" y="150">UNREGISTERED</text><text fill="#eeeeee" stroke="none" font-family="Arial" font-size="24px" font-style="normal" font-weight="normal" text-decoration="none" x="600" y="180">UNREGISTERED</text><text fill="#eeeeee" stroke="none" font-family="Arial" font-size="24px" font-style="normal" font-weight="normal" text-decoration="none" x="600" y="210">UNREGISTERED</text><text fill="#eeeeee" stroke="none" font-family="Arial" font-size="24px" font-style="normal" font-weight="normal" text-decoration="none" x="600" y="240">UNREGISTERED</text><text fill="#eeeeee" stroke="none" font-family="Arial" font-size="24px" font-style="normal" font-weight="normal" text-decoration="none" x="600" y="270">UNREGISTERED</text><text fill="#eeeeee" stroke="none" font-family="Arial" font-size="24px" font-style="normal" font-weight="normal" text-decoration="none" x="600" y="300">UNREGISTERED</text><text fill="#eeeeee" stroke="none" font-family="Arial" font-size="24px" font-style="normal" font-weight="normal" text-decoration="none" x="600" y="330">UNREGISTERED</text><text fill="#eeeeee" stroke="none" font-family="Arial" font-size="24px" font-style="normal" font-weight="normal" text-decoration="none" x="600" y="360">UNREGISTERED</text><text fill="#eeeeee" stroke="none" font-family="Arial" font-size="24px" font-style="normal" font-weight="normal" text-decoration="none" x="600" y="390">UNREGISTERED</text><text fill="#eeeeee" stroke="none" font-family="Arial" font-size="24px" font-style="normal" font-weight="normal" text-decoration="none" x="600" y="420">UNREGISTERED</text><text fill="#eeeeee" stroke="none" font-family="Arial" font-size="24px" font-style="normal" font-weight="normal" text-decoration="none" x="600" y="450">UNREGISTERED</text><text fill="#eeeeee" stroke="none" font-family="Arial" font-size="24px" font-style="normal" font-weight="normal" text-decoration="none" x="600" y="480">UNREGISTERED</text><text fill="#eeeeee" stroke="none" font-family="Arial" font-size="24px" font-style="normal" font-weight="normal" text-decoration="none" x="600" y="510">UNREGISTERED</text><text fill="#eeeeee" stroke="none" font-family="Arial" font-size="24px" font-style="normal" font-weight="normal" text-decoration="none" x="600" y="540">UNREGISTERED</text><g transform="translate(-286,-30) scale(1,1)"><rect fill="#C0C0C0" stroke="none" x="399" y="47" width="543" height="528" opacity="0.2"/></g><g transform="translate(-286,-30) scale(1,1)"><rect fill="#ffffff" stroke="none" x="392" y="40" width="543" height="528"/></g><g transform="translate(-286,-30) scale(1,1)"><path fill="none" stroke="#000000" d="M 392 40 L 935 40 L 935 568 L 392 568 L 392 40 Z Z" stroke-miterlimit="10"/></g><g transform="translate(-286,-30) scale(1,1)"><g><path fill="none" stroke="none"/><text fill="#000000" stroke="none" font-family="Arial" font-size="13px" font-style="normal" font-weight="bold" text-decoration="none" x="610.5" y="57.5">manage account</text></g></g><g transform="translate(-286,-30) scale(1,1)"><path fill="#ffffff" stroke="none" d="M 320.82072727272725 337.68 C 320.82072727272725 332.886167936 324.70656959767274 329 329.5 329 C 334.29343040232726 329 338.17927272727275 332.886167936 338.17927272727275 337.68 C 338.17927272727275 342.473832064 334.29343040232726 346.36 329.5 346.36 C 324.70656959767274 346.36 320.82072727272725 342.473832064 320.82072727272725 337.68 Z"/></g><g transform="translate(-286,-30) scale(1,1)"><path fill="none" stroke="#000000" d="M 320.82072727272725 337.68 C 320.82072727272725 332.886167936 324.70656959767274 329 329.5 329 C 334.29343040232726 329 338.17927272727275 332.886167936 338.17927272727275 337.68 C 338.17927272727275 342.473832064 334.29343040232726 346.36 329.5 346.36 C 324.70656959767274 346.36 320.82072727272725 342.473832064 320.82072727272725 337.68 Z" stroke-miterlimit="10"/></g><g transform="translate(-286,-30) scale(1,1)"><path fill="none" stroke="#000000" d="M 329.5 346.36 L 329.5 363.64" stroke-miterlimit="10"/></g><g transform="translate(-286,-30) scale(1,1)"><path fill="none" stroke="#000000" d="M 320.31018181818183 352.84 L 338.68981818181817 352.84" stroke-miterlimit="10"/></g><g transform="translate(-286,-30) scale(1,1)"><path fill="none" stroke="#000000" d="M 329.5 363.64 L 316.73636363636365 381" stroke-miterlimit="10"/></g><g transform="translate(-286,-30) scale(1,1)"><path fill="none" stroke="#000000" d="M 329.5 363.64 L 342.26363636363635 381" stroke-miterlimit="10"/></g><g transform="translate(-286,-30) scale(1,1)"><g><path fill="none" stroke="none"/><text fill="#000000" stroke="none" font-family="Arial" font-size="13px" font-style="normal" font-weight="bold" text-decoration="none" x="308.5" y="400">farmer</text></g></g><g transform="translate(-286,-30) scale(1,1)"><path fill="#ffffff" stroke="none" d="M 311.82072727272725 137.68 C 311.82072727272725 132.886167936 315.70656959767274 129 320.5 129 C 325.29343040232726 129 329.17927272727275 132.886167936 329.17927272727275 137.68 C 329.17927272727275 142.47383206400002 325.29343040232726 146.36 320.5 146.36 C 315.70656959767274 146.36 311.82072727272725 142.47383206400002 311.82072727272725 137.68 Z"/></g><g transform="translate(-286,-30) scale(1,1)"><path fill="none" stroke="#000000" d="M 311.82072727272725 137.68 C 311.82072727272725 132.886167936 315.70656959767274 129 320.5 129 C 325.29343040232726 129 329.17927272727275 132.886167936 329.17927272727275 137.68 C 329.17927272727275 142.47383206400002 325.29343040232726 146.36 320.5 146.36 C 315.70656959767274 146.36 311.82072727272725 142.47383206400002 311.82072727272725 137.68 Z" stroke-miterlimit="10"/></g><g transform="translate(-286,-30) scale(1,1)"><path fill="none" stroke="#000000" d="M 320.5 146.36 L 320.5 163.64" stroke-miterlimit="10"/></g><g transform="translate(-286,-30) scale(1,1)"><path fill="none" stroke="#000000" d="M 311.31018181818183 152.84 L 329.68981818181817 152.84" stroke-miterlimit="10"/></g><g transform="translate(-286,-30) scale(1,1)"><path fill="none" stroke="#000000" d="M 320.5 163.64 L 307.73636363636365 181" stroke-miterlimit="10"/></g><g transform="translate(-286,-30) scale(1,1)"><path fill="none" stroke="#000000" d="M 320.5 163.64 L 333.26363636363635 181" stroke-miterlimit="10"/></g><g transform="translate(-286,-30) scale(1,1)"><g><path fill="none" stroke="none"/><text fill="#000000" stroke="none" font-family="Arial" font-size="13px" font-style="normal" font-weight="bold" text-decoration="none" x="302.5" y="200">buyer</text></g></g><g transform="translate(-286,-30) scale(1,1)"><path fill="#C0C0C0" stroke="none" d="M 543 208 C 543 198.6111584 599.8598304 191 670 191 C 740.1401696 191 797 198.6111584 797 208 C 797 217.3888416 740.1401696 225 670 225 C 599.8598304 225 543 217.3888416 543 208 Z" opacity="0.2"/></g><g transform="translate(-286,-30) scale(1,1)"><path fill="#ffffff" stroke="none" d="M 536 201 C 536 191.6111584 592.8598304 184 663 184 C 733.1401696 184 790 191.6111584 790 201 C 790 210.3888416 733.1401696 218 663 218 C 592.8598304 218 536 210.3888416 536 201 Z"/></g><g transform="translate(-286,-30) scale(1,1)"><path fill="none" stroke="#000000" d="M 536 201 C 536 191.6111584 592.8598304 184 663 184 C 733.1401696 184 790 191.6111584 790 201 C 790 210.3888416 733.1401696 218 663 218 C 592.8598304 218 536 210.3888416 536 201 Z" stroke-miterlimit="10"/></g><g transform="translate(-286,-30) scale(1,1)"><g><path fill="none" stroke="none"/><text fill="#000000" stroke="none" font-family="Arial" font-size="13px" font-style="normal" font-weight="bold" text-decoration="none" x="577.5" y="206.5">add_change profile picture</text></g></g><g transform="translate(-286,-30) scale(1,1)"><path fill="#C0C0C0" stroke="none" d="M 511 136 C 511 126.6111584 580.6197136 119 666.5 119 C 752.3802864 119 822 126.6111584 822 136 C 822 145.3888416 752.3802864 153 666.5 153 C 580.6197136 153 511 145.3888416 511 136 Z" opacity="0.2"/></g><g transform="translate(-286,-30) scale(1,1)"><path fill="#ffffff" stroke="none" d="M 504 129 C 504 119.6111584 573.6197136 112 659.5 112 C 745.3802864 112 815 119.6111584 815 129 C 815 138.3888416 745.3802864 146 659.5 146 C 573.6197136 146 504 138.3888416 504 129 Z"/></g><g transform="translate(-286,-30) scale(1,1)"><path fill="none" stroke="#000000" d="M 504 129 C 504 119.6111584 573.6197136 112 659.5 112 C 745.3802864 112 815 119.6111584 815 129 C 815 138.3888416 745.3802864 146 659.5 146 C 573.6197136 146 504 138.3888416 504 129 Z" stroke-miterlimit="10"/></g><g transform="translate(-286,-30) scale(1,1)"><g><path fill="none" stroke="none"/><text fill="#000000" stroke="none" font-family="Arial" font-size="13px" font-style="normal" font-weight="bold" text-decoration="none" x="554" y="134.5">add_update personal information</text></g></g><g transform="translate(-286,-30) scale(1,1)"><path fill="#C0C0C0" stroke="none" d="M 551 288 C 551 278.6111584 592.413656 271 643.5 271 C 694.586344 271 736 278.6111584 736 288 C 736 297.3888416 694.586344 305 643.5 305 C 592.413656 305 551 297.3888416 551 288 Z" opacity="0.2"/></g><g transform="translate(-286,-30) scale(1,1)"><path fill="#ffffff" stroke="none" d="M 544 281 C 544 271.6111584 585.413656 264 636.5 264 C 687.586344 264 729 271.6111584 729 281 C 729 290.3888416 687.586344 298 636.5 298 C 585.413656 298 544 290.3888416 544 281 Z"/></g><g transform="translate(-286,-30) scale(1,1)"><path fill="none" stroke="#000000" d="M 544 281 C 544 271.6111584 585.413656 264 636.5 264 C 687.586344 264 729 271.6111584 729 281 C 729 290.3888416 687.586344 298 636.5 298 C 585.413656 298 544 290.3888416 544 281 Z" stroke-miterlimit="10"/></g><g transform="translate(-286,-30) scale(1,1)"><g><path fill="none" stroke="none"/><text fill="#000000" stroke="none" font-family="Arial" font-size="13px" font-style="normal" font-weight="bold" text-decoration="none" x="575.5" y="286.5">disactivate account</text></g></g><g transform="translate(-286,-30) scale(1,1)"><path fill="none" stroke="#000000" d="M 346 170 L 535 188" stroke-miterlimit="10"/></g><g transform="translate(-286,-30) scale(1,1)"><path fill="none" stroke="#000000" d="M 346 164 L 503 146" stroke-miterlimit="10"/></g><g transform="translate(-286,-30) scale(1,1)"><path fill="none" stroke="#000000" d="M 346 176 L 586 263" stroke-miterlimit="10"/></g><g transform="translate(-286,-30) scale(1,1)"><path fill="#C0C0C0" stroke="none" d="M 583 432 C 583 422.6111584 628.6669504 415 685 415 C 741.3330496 415 787 422.6111584 787 432 C 787 441.3888416 741.3330496 449 685 449 C 628.6669504 449 583 441.3888416 583 432 Z" opacity="0.2"/></g><g transform="translate(-286,-30) scale(1,1)"><path fill="#ffffff" stroke="none" d="M 576 425 C 576 415.6111584 621.6669504 408 678 408 C 734.3330496 408 780 415.6111584 780 425 C 780 434.3888416 734.3330496 442 678 442 C 621.6669504 442 576 434.3888416 576 425 Z"/></g><g transform="translate(-286,-30) scale(1,1)"><path fill="none" stroke="#000000" d="M 576 425 C 576 415.6111584 621.6669504 408 678 408 C 734.3330496 408 780 415.6111584 780 425 C 780 434.3888416 734.3330496 442 678 442 C 621.6669504 442 576 434.3888416 576 425 Z" stroke-miterlimit="10"/></g><g transform="translate(-286,-30) scale(1,1)"><g><path fill="none" stroke="none"/><text fill="#000000" stroke="none" font-family="Arial" font-size="13px" font-style="normal" font-weight="bold" text-decoration="none" x="611.5" y="430.5">manage profile posts</text></g></g><g transform="translate(-286,-30) scale(1,1)"><path fill="#C0C0C0" stroke="none" d="M 583 352 C 583 342.6111584 622.3989376 335 671 335 C 719.6010624 335 759 342.6111584 759 352 C 759 361.3888416 719.6010624 369 671 369 C 622.3989376 369 583 361.3888416 583 352 Z" opacity="0.2"/></g><g transform="translate(-286,-30) scale(1,1)"><path fill="#ffffff" stroke="none" d="M 576 345 C 576 335.6111584 615.3989376 328 664 328 C 712.6010624 328 752 335.6111584 752 345 C 752 354.3888416 712.6010624 362 664 362 C 615.3989376 362 576 354.3888416 576 345 Z"/></g><g transform="translate(-286,-30) scale(1,1)"><path fill="none" stroke="#000000" d="M 576 345 C 576 335.6111584 615.3989376 328 664 328 C 712.6010624 328 752 335.6111584 752 345 C 752 354.3888416 712.6010624 362 664 362 C 615.3989376 362 576 354.3888416 576 345 Z" stroke-miterlimit="10"/></g><g transform="translate(-286,-30) scale(1,1)"><g><path fill="none" stroke="none"/><text fill="#000000" stroke="none" font-family="Arial" font-size="13px" font-style="normal" font-weight="bold" text-decoration="none" x="631.5" y="350.5">read posts</text></g></g><g transform="translate(-286,-30) scale(1,1)"><path fill="#C0C0C0" stroke="none" d="M 615 536 C 615 526.6111584 640.5197664 519 672 519 C 703.4802336 519 729 526.6111584 729 536 C 729 545.3888416 703.4802336 553 672 553 C 640.5197664 553 615 545.3888416 615 536 Z" opacity="0.2"/></g><g transform="translate(-286,-30) scale(1,1)"><path fill="#ffffff" stroke="none" d="M 608 529 C 608 519.6111584 633.5197664 512 665 512 C 696.4802336 512 722 519.6111584 722 529 C 722 538.3888416 696.4802336 546 665 546 C 633.5197664 546 608 538.3888416 608 529 Z"/></g><g transform="translate(-286,-30) scale(1,1)"><path fill="none" stroke="#000000" d="M 608 529 C 608 519.6111584 633.5197664 512 665 512 C 696.4802336 512 722 519.6111584 722 529 C 722 538.3888416 696.4802336 546 665 546 C 633.5197664 546 608 538.3888416 608 529 Z" stroke-miterlimit="10"/></g><g transform="translate(-286,-30) scale(1,1)"><g><path fill="none" stroke="none"/><text fill="#000000" stroke="none" font-family="Arial" font-size="13px" font-style="normal" font-weight="bold" text-decoration="none" x="630" y="534">create post</text></g></g><g transform="translate(-286,-30) scale(1,1)"><path fill="#C0C0C0" stroke="none" d="M 447 528 C 447 518.6111584 473.862912 511 507 511 C 540.137088 511 567 518.6111584 567 528 C 567 537.3888416 540.137088 545 507 545 C 473.862912 545 447 537.3888416 447 528 Z" opacity="0.2"/></g><g transform="translate(-286,-30) scale(1,1)"><path fill="#ffffff" stroke="none" d="M 440 521 C 440 511.6111584 466.862912 504 500 504 C 533.137088 504 560 511.6111584 560 521 C 560 530.3888416 533.137088 538 500 538 C 466.862912 538 440 530.3888416 440 521 Z"/></g><g transform="translate(-286,-30) scale(1,1)"><path fill="none" stroke="#000000" d="M 440 521 C 440 511.6111584 466.862912 504 500 504 C 533.137088 504 560 511.6111584 560 521 C 560 530.3888416 533.137088 538 500 538 C 466.862912 538 440 530.3888416 440 521 Z" stroke-miterlimit="10"/></g><g transform="translate(-286,-30) scale(1,1)"><g><path fill="none" stroke="none"/><text fill="#000000" stroke="none" font-family="Arial" font-size="13px" font-style="normal" font-weight="bold" text-decoration="none" x="463" y="526.5">update post</text></g></g><g transform="translate(-286,-30) scale(1,1)"><path fill="#C0C0C0" stroke="none" d="M 799 496 C 799 486.6111584 824.5197664 479 856 479 C 887.4802336 479 913 486.6111584 913 496 C 913 505.3888416 887.4802336 513 856 513 C 824.5197664 513 799 505.3888416 799 496 Z" opacity="0.2"/></g><g transform="translate(-286,-30) scale(1,1)"><path fill="#ffffff" stroke="none" d="M 792 489 C 792 479.6111584 817.5197664 472 849 472 C 880.4802336 472 906 479.6111584 906 489 C 906 498.3888416 880.4802336 506 849 506 C 817.5197664 506 792 498.3888416 792 489 Z"/></g><g transform="translate(-286,-30) scale(1,1)"><path fill="none" stroke="#000000" d="M 792 489 C 792 479.6111584 817.5197664 472 849 472 C 880.4802336 472 906 479.6111584 906 489 C 906 498.3888416 880.4802336 506 849 506 C 817.5197664 506 792 498.3888416 792 489 Z" stroke-miterlimit="10"/></g><g transform="translate(-286,-30) scale(1,1)"><g><path fill="none" stroke="none"/><text fill="#000000" stroke="none" font-family="Arial" font-size="13px" font-style="normal" font-weight="bold" text-decoration="none" x="814" y="494.5">delete post</text></g></g><g transform="translate(-286,-30) scale(1,1)"><path fill="none" stroke="#000000" d="M 645 443 L 533 503" stroke-miterlimit="10" stroke-dasharray="3"/></g><g transform="translate(-286,-30) scale(1,1)"><path fill="none" stroke="#000000" d="M 539.9703699081562 494.4903617383892 L 533 503 L 543.9460187496654 501.91157290920637" stroke-miterlimit="10"/></g><g transform="translate(-286,-30) scale(1,1)"><g><path fill="none" stroke="none"/><text fill="#000000" stroke="none" font-family="Arial" font-size="13px" font-style="normal" font-weight="normal" text-decoration="none" x="543.5" y="472">«include»</text></g></g><g transform="translate(-286,-30) scale(1,1)"><path fill="none" stroke="#000000" d="M 676 443 L 667 511" stroke-miterlimit="10" stroke-dasharray="3"/></g><g transform="translate(-286,-30) scale(1,1)"><path fill="none" stroke="#000000" d="M 664.160306060022 500.3728584121951 L 667 511 L 672.5065570399136 501.4775092771808" stroke-miterlimit="10"/></g><g transform="translate(-286,-30) scale(1,1)"><g><path fill="none" stroke="none"/><text fill="#000000" stroke="none" font-family="Arial" font-size="13px" font-style="normal" font-weight="normal" text-decoration="none" x="672.5" y="485">«include»</text></g></g><g transform="translate(-286,-30) scale(1,1)"><path fill="none" stroke="#000000" d="M 726 443 L 801 471" stroke-miterlimit="10" stroke-dasharray="3"/></g><g transform="translate(-286,-30) scale(1,1)"><path fill="none" stroke="#000000" d="M 790.0068879227965 471.3892131267597 L 801 471 L 792.9514806626071 463.50191114512427" stroke-miterlimit="10"/></g><g transform="translate(-286,-30) scale(1,1)"><g><path fill="none" stroke="none"/><text fill="#000000" stroke="none" font-family="Arial" font-size="13px" font-style="normal" font-weight="normal" text-decoration="none" x="749.5" y="451">«include»</text></g></g><g transform="translate(-286,-30) scale(1,1)"><path fill="none" stroke="#000000" d="M 356 365 L 575 351" stroke-miterlimit="10"/></g><g transform="translate(-286,-30) scale(1,1)"><path fill="none" stroke="#000000" d="M 356 371 L 575 408" stroke-miterlimit="10"/></g><g transform="translate(-286,-30) scale(1,1)"><path fill="none" stroke="#000000" d="M 327 327 L 322 208" stroke-miterlimit="10"/></g><g transform="translate(-286,-30) scale(1,1)"><path fill="#FFFFFF" stroke="none" d="M 331.2648672547255 227.95400297565163 L 322 208 L 314.4416396467098 228.66086127850946"/></g><g transform="translate(-286,-30) scale(1,1)"><path fill="none" stroke="#000000" d="M 331.2648672547255 227.95400297565163 L 322 208 L 314.4416396467098 228.66086127850946 L 331.2648672547255 227.95400297565163" stroke-miterlimit="10"/></g><g transform="translate(-286,-30) scale(1,1)"><path fill="none" stroke="#000000" d="M 660 147 L 662 183" stroke-miterlimit="10" stroke-dasharray="3"/></g><g transform="translate(-286,-30) scale(1,1)"><path fill="none" stroke="#000000" d="M 657.233239640734 173.0864741046724 L 662 183 L 665.6393128117264 172.61947003961725" stroke-miterlimit="10"/></g><g transform="translate(-286,-30) scale(1,1)"><g><path fill="none" stroke="none"/><text fill="#000000" stroke="none" font-family="Arial" font-size="13px" font-style="normal" font-weight="normal" text-decoration="none" x="662.5" y="168">«include»</text></g></g></g></svg>