<svg version="1.1" xmlns="http://www.w3.org/2000/svg" xmlns:xlink="http://www.w3.org/1999/xlink" width="1076" height="484"><defs/><g><text fill="#eeeeee" stroke="none" font-family="Arial" font-size="24px" font-style="normal" font-weight="normal" text-decoration="none" x="0" y="0">UNREGISTERED</text><text fill="#eeeeee" stroke="none" font-family="Arial" font-size="24px" font-style="normal" font-weight="normal" text-decoration="none" x="0" y="30">UNREGISTERED</text><text fill="#eeeeee" stroke="none" font-family="Arial" font-size="24px" font-style="normal" font-weight="normal" text-decoration="none" x="0" y="60">UNREGISTERED</text><text fill="#eeeeee" stroke="none" font-family="Arial" font-size="24px" font-style="normal" font-weight="normal" text-decoration="none" x="0" y="90">UNREGISTERED</text><text fill="#eeeeee" stroke="none" font-family="Arial" font-size="24px" font-style="normal" font-weight="normal" text-decoration="none" x="0" y="120">UNREGISTERED</text><text fill="#eeeeee" stroke="none" font-family="Arial" font-size="24px" font-style="normal" font-weight="normal" text-decoration="none" x="0" y="150">UNREGISTERED</text><text fill="#eeeeee" stroke="none" font-family="Arial" font-size="24px" font-style="normal" font-weight="normal" text-decoration="none" x="0" y="180">UNREGISTERED</text><text fill="#eeeeee" stroke="none" font-family="Arial" font-size="24px" font-style="normal" font-weight="normal" text-decoration="none" x="0" y="210">UNREGISTERED</text><text fill="#eeeeee" stroke="none" font-family="Arial" font-size="24px" font-style="normal" font-weight="normal" text-decoration="none" x="0" y="240">UNREGISTERED</text><text fill="#eeeeee" stroke="none" font-family="Arial" font-size="24px" font-style="normal" font-weight="normal" text-decoration="none" x="0" y="270">UNREGISTERED</text><text fill="#eeeeee" stroke="none" font-family="Arial" font-size="24px" font-style="normal" font-weight="normal" text-decoration="none" x="0" y="300">UNREGISTERED</text><text fill="#eeeeee" stroke="none" font-family="Arial" font-size="24px" font-style="normal" font-weight="normal" text-decoration="none" x="0" y="330">UNREGISTERED</text><text fill="#eeeeee" stroke="none" font-family="Arial" font-size="24px" font-style="normal" font-weight="normal" text-decoration="none" x="0" y="360">UNREGISTERED</text><text fill="#eeeeee" stroke="none" font-family="Arial" font-size="24px" font-style="normal" font-weight="normal" text-decoration="none" x="0" y="390">UNREGISTERED</text><text fill="#eeeeee" stroke="none" font-family="Arial" font-size="24px" font-style="normal" font-weight="normal" text-decoration="none" x="0" y="420">UNREGISTERED</text><text fill="#eeeeee" stroke="none" font-family="Arial" font-size="24px" font-style="normal" font-weight="normal" text-decoration="none" x="0" y="450">UNREGISTERED</text><text fill="#eeeeee" stroke="none" font-family="Arial" font-size="24px" font-style="normal" font-weight="normal" text-decoration="none" x="0" y="480">UNREGISTERED</text><text fill="#eeeeee" stroke="none" font-family="Arial" font-size="24px" font-style="normal" font-weight="normal" text-decoration="none" x="200" y="0">UNREGISTERED</text><text fill="#eeeeee" stroke="none" font-family="Arial" font-size="24px" font-style="normal" font-weight="normal" text-decoration="none" x="200" y="30">UNREGISTERED</text><text fill="#eeeeee" stroke="none" font-family="Arial" font-size="24px" font-style="normal" font-weight="normal" text-decoration="none" x="200" y="60">UNREGISTERED</text><text fill="#eeeeee" stroke="none" font-family="Arial" font-size="24px" font-style="normal" font-weight="normal" text-decoration="none" x="200" y="90">UNREGISTERED</text><text fill="#eeeeee" stroke="none" font-family="Arial" font-size="24px" font-style="normal" font-weight="normal" text-decoration="none" x="200" y="120">UNREGISTERED</text><text fill="#eeeeee" stroke="none" font-family="Arial" font-size="24px" font-style="normal" font-weight="normal" text-decoration="none" x="200" y="150">UNREGISTERED</text><text fill="#eeeeee" stroke="none" font-family="Arial" font-size="24px" font-style="normal" font-weight="normal" text-decoration="none" x="200" y="180">UNREGISTERED</text><text fill="#eeeeee" stroke="none" font-family="Arial" font-size="24px" font-style="normal" font-weight="normal" text-decoration="none" x="200" y="210">UNREGISTERED</text><text fill="#eeeeee" stroke="none" font-family="Arial" font-size="24px" font-style="normal" font-weight="normal" text-decoration="none" x="200" y="240">UNREGISTERED</text><text fill="#eeeeee" stroke="none" font-family="Arial" font-size="24px" font-style="normal" font-weight="normal" text-decoration="none" x="200" y="270">UNREGISTERED</text><text fill="#eeeeee" stroke="none" font-family="Arial" font-size="24px" font-style="normal" font-weight="normal" text-decoration="none" x="200" y="300">UNREGISTERED</text><text fill="#eeeeee" stroke="none" font-family="Arial" font-size="24px" font-style="normal" font-weight="normal" text-decoration="none" x="200" y="330">UNREGISTERED</text><text fill="#eeeeee" stroke="none" font-family="Arial" font-size="24px" font-style="normal" font-weight="normal" text-decoration="none" x="200" y="360">UNREGISTERED</text><text fill="#eeeeee" stroke="none" font-family="Arial" font-size="24px" font-style="normal" font-weight="normal" text-decoration="none" x="200" y="390">UNREGISTERED</text><text fill="#eeeeee" stroke="none" font-family="Arial" font-size="24px" font-style="normal" font-weight="normal" text-decoration="none" x="200" y="420">UNREGISTERED</text><text fill="#eeeeee" stroke="none" font-family="Arial" font-size="24px" font-style="normal" font-weight="normal" text-decoration="none" x="200" y="450">UNREGISTERED</text><text fill="#eeeeee" stroke="none" font-family="Arial" font-size="24px" font-style="normal" font-weight="normal" text-decoration="none" x="200" y="480">UNREGISTERED</text><text fill="#eeeeee" stroke="none" font-family="Arial" font-size="24px" font-style="normal" font-weight="normal" text-decoration="none" x="400" y="0">UNREGISTERED</text><text fill="#eeeeee" stroke="none" font-family="Arial" font-size="24px" font-style="normal" font-weight="normal" text-decoration="none" x="400" y="30">UNREGISTERED</text><text fill="#eeeeee" stroke="none" font-family="Arial" font-size="24px" font-style="normal" font-weight="normal" text-decoration="none" x="400" y="60">UNREGISTERED</text><text fill="#eeeeee" stroke="none" font-family="Arial" font-size="24px" font-style="normal" font-weight="normal" text-decoration="none" x="400" y="90">UNREGISTERED</text><text fill="#eeeeee" stroke="none" font-family="Arial" font-size="24px" font-style="normal" font-weight="normal" text-decoration="none" x="400" y="120">UNREGISTERED</text><text fill="#eeeeee" stroke="none" font-family="Arial" font-size="24px" font-style="normal" font-weight="normal" text-decoration="none" x="400" y="150">UNREGISTERED</text><text fill="#eeeeee" stroke="none" font-family="Arial" font-size="24px" font-style="normal" font-weight="normal" text-decoration="none" x="400" y="180">UNREGISTERED</text><text fill="#eeeeee" stroke="none" font-family="Arial" font-size="24px" font-style="normal" font-weight="normal" text-decoration="none" x="400" y="210">UNREGISTERED</text><text fill="#eeeeee" stroke="none" font-family="Arial" font-size="24px" font-style="normal" font-weight="normal" text-decoration="none" x="400" y="240">UNREGISTERED</text><text fill="#eeeeee" stroke="none" font-family="Arial" font-size="24px" font-style="normal" font-weight="normal" text-decoration="none" x="400" y="270">UNREGISTERED</text><text fill="#eeeeee" stroke="none" font-family="Arial" font-size="24px" font-style="normal" font-weight="normal" text-decoration="none" x="400" y="300">UNREGISTERED</text><text fill="#eeeeee" stroke="none" font-family="Arial" font-size="24px" font-style="normal" font-weight="normal" text-decoration="none" x="400" y="330">UNREGISTERED</text><text fill="#eeeeee" stroke="none" font-family="Arial" font-size="24px" font-style="normal" font-weight="normal" text-decoration="none" x="400" y="360">UNREGISTERED</text><text fill="#eeeeee" stroke="none" font-family="Arial" font-size="24px" font-style="normal" font-weight="normal" text-decoration="none" x="400" y="390">UNREGISTERED</text><text fill="#eeeeee" stroke="none" font-family="Arial" font-size="24px" font-style="normal" font-weight="normal" text-decoration="none" x="400" y="420">UNREGISTERED</text><text fill="#eeeeee" stroke="none" font-family="Arial" font-size="24px" font-style="normal" font-weight="normal" text-decoration="none" x="400" y="450">UNREGISTERED</text><text fill="#eeeeee" stroke="none" font-family="Arial" font-size="24px" font-style="normal" font-weight="normal" text-decoration="none" x="400" y="480">UNREGISTERED</text><text fill="#eeeeee" stroke="none" font-family="Arial" font-size="24px" font-style="normal" font-weight="normal" text-decoration="none" x="600" y="0">UNREGISTERED</text><text fill="#eeeeee" stroke="none" font-family="Arial" font-size="24px" font-style="normal" font-weight="normal" text-decoration="none" x="600" y="30">UNREGISTERED</text><text fill="#eeeeee" stroke="none" font-family="Arial" font-size="24px" font-style="normal" font-weight="normal" text-decoration="none" x="600" y="60">UNREGISTERED</text><text fill="#eeeeee" stroke="none" font-family="Arial" font-size="24px" font-style="normal" font-weight="normal" text-decoration="none" x="600" y="90">UNREGISTERED</text><text fill="#eeeeee" stroke="none" font-family="Arial" font-size="24px" font-style="normal" font-weight="normal" text-decoration="none" x="600" y="120">UNREGISTERED</text><text fill="#eeeeee" stroke="none" font-family="Arial" font-size="24px" font-style="normal" font-weight="normal" text-decoration="none" x="600" y="150">UNREGISTERED</text><text fill="#eeeeee" stroke="none" font-family="Arial" font-size="24px" font-style="normal" font-weight="normal" text-decoration="none" x="600" y="180">UNREGISTERED</text><text fill="#eeeeee" stroke="none" font-family="Arial" font-size="24px" font-style="normal" font-weight="normal" text-decoration="none" x="600" y="210">UNREGISTERED</text><text fill="#eeeeee" stroke="none" font-family="Arial" font-size="24px" font-style="normal" font-weight="normal" text-decoration="none" x="600" y="240">UNREGISTERED</text><text fill="#eeeeee" stroke="none" font-family="Arial" font-size="24px" font-style="normal" font-weight="normal" text-decoration="none" x="600" y="270">UNREGISTERED</text><text fill="#eeeeee" stroke="none" font-family="Arial" font-size="24px" font-style="normal" font-weight="normal" text-decoration="none" x="600" y="300">UNREGISTERED</text><text fill="#eeeeee" stroke="none" font-family="Arial" font-size="24px" font-style="normal" font-weight="normal" text-decoration="none" x="600" y="330">UNREGISTERED</text><text fill="#eeeeee" stroke="none" font-family="Arial" font-size="24px" font-style="normal" font-weight="normal" text-decoration="none" x="600" y="360">UNREGISTERED</text><text fill="#eeeeee" stroke="none" font-family="Arial" font-size="24px" font-style="normal" font-weight="normal" text-decoration="none" x="600" y="390">UNREGISTERED</text><text fill="#eeeeee" stroke="none" font-family="Arial" font-size="24px" font-style="normal" font-weight="normal" text-decoration="none" x="600" y="420">UNREGISTERED</text><text fill="#eeeeee" stroke="none" font-family="Arial" font-size="24px" font-style="normal" font-weight="normal" text-decoration="none" x="600" y="450">UNREGISTERED</text><text fill="#eeeeee" stroke="none" font-family="Arial" font-size="24px" font-style="normal" font-weight="normal" text-decoration="none" x="600" y="480">UNREGISTERED</text><text fill="#eeeeee" stroke="none" font-family="Arial" font-size="24px" font-style="normal" font-weight="normal" text-decoration="none" x="800" y="0">UNREGISTERED</text><text fill="#eeeeee" stroke="none" font-family="Arial" font-size="24px" font-style="normal" font-weight="normal" text-decoration="none" x="800" y="30">UNREGISTERED</text><text fill="#eeeeee" stroke="none" font-family="Arial" font-size="24px" font-style="normal" font-weight="normal" text-decoration="none" x="800" y="60">UNREGISTERED</text><text fill="#eeeeee" stroke="none" font-family="Arial" font-size="24px" font-style="normal" font-weight="normal" text-decoration="none" x="800" y="90">UNREGISTERED</text><text fill="#eeeeee" stroke="none" font-family="Arial" font-size="24px" font-style="normal" font-weight="normal" text-decoration="none" x="800" y="120">UNREGISTERED</text><text fill="#eeeeee" stroke="none" font-family="Arial" font-size="24px" font-style="normal" font-weight="normal" text-decoration="none" x="800" y="150">UNREGISTERED</text><text fill="#eeeeee" stroke="none" font-family="Arial" font-size="24px" font-style="normal" font-weight="normal" text-decoration="none" x="800" y="180">UNREGISTERED</text><text fill="#eeeeee" stroke="none" font-family="Arial" font-size="24px" font-style="normal" font-weight="normal" text-decoration="none" x="800" y="210">UNREGISTERED</text><text fill="#eeeeee" stroke="none" font-family="Arial" font-size="24px" font-style="normal" font-weight="normal" text-decoration="none" x="800" y="240">UNREGISTERED</text><text fill="#eeeeee" stroke="none" font-family="Arial" font-size="24px" font-style="normal" font-weight="normal" text-decoration="none" x="800" y="270">UNREGISTERED</text><text fill="#eeeeee" stroke="none" font-family="Arial" font-size="24px" font-style="normal" font-weight="normal" text-decoration="none" x="800" y="300">UNREGISTERED</text><text fill="#eeeeee" stroke="none" font-family="Arial" font-size="24px" font-style="normal" font-weight="normal" text-decoration="none" x="800" y="330">UNREGISTERED</text><text fill="#eeeeee" stroke="none" font-family="Arial" font-size="24px" font-style="normal" font-weight="normal" text-decoration="none" x="800" y="360">UNREGISTERED</text><text fill="#eeeeee" stroke="none" font-family="Arial" font-size="24px" font-style="normal" font-weight="normal" text-decoration="none" x="800" y="390">UNREGISTERED</text><text fill="#eeeeee" stroke="none" font-family="Arial" font-size="24px" font-style="normal" font-weight="normal" text-decoration="none" x="800" y="420">UNREGISTERED</text><text fill="#eeeeee" stroke="none" font-family="Arial" font-size="24px" font-style="normal" font-weight="normal" text-decoration="none" x="800" y="450">UNREGISTERED</text><text fill="#eeeeee" stroke="none" font-family="Arial" font-size="24px" font-style="normal" font-weight="normal" text-decoration="none" x="800" y="480">UNREGISTERED</text><text fill="#eeeeee" stroke="none" font-family="Arial" font-size="24px" font-style="normal" font-weight="normal" text-decoration="none" x="1000" y="0">UNREGISTERED</text><text fill="#eeeeee" stroke="none" font-family="Arial" font-size="24px" font-style="normal" font-weight="normal" text-decoration="none" x="1000" y="30">UNREGISTERED</text><text fill="#eeeeee" stroke="none" font-family="Arial" font-size="24px" font-style="normal" font-weight="normal" text-decoration="none" x="1000" y="60">UNREGISTERED</text><text fill="#eeeeee" stroke="none" font-family="Arial" font-size="24px" font-style="normal" font-weight="normal" text-decoration="none" x="1000" y="90">UNREGISTERED</text><text fill="#eeeeee" stroke="none" font-family="Arial" font-size="24px" font-style="normal" font-weight="normal" text-decoration="none" x="1000" y="120">UNREGISTERED</text><text fill="#eeeeee" stroke="none" font-family="Arial" font-size="24px" font-style="normal" font-weight="normal" text-decoration="none" x="1000" y="150">UNREGISTERED</text><text fill="#eeeeee" stroke="none" font-family="Arial" font-size="24px" font-style="normal" font-weight="normal" text-decoration="none" x="1000" y="180">UNREGISTERED</text><text fill="#eeeeee" stroke="none" font-family="Arial" font-size="24px" font-style="normal" font-weight="normal" text-decoration="none" x="1000" y="210">UNREGISTERED</text><text fill="#eeeeee" stroke="none" font-family="Arial" font-size="24px" font-style="normal" font-weight="normal" text-decoration="none" x="1000" y="240">UNREGISTERED</text><text fill="#eeeeee" stroke="none" font-family="Arial" font-size="24px" font-style="normal" font-weight="normal" text-decoration="none" x="1000" y="270">UNREGISTERED</text><text fill="#eeeeee" stroke="none" font-family="Arial" font-size="24px" font-style="normal" font-weight="normal" text-decoration="none" x="1000" y="300">UNREGISTERED</text><text fill="#eeeeee" stroke="none" font-family="Arial" font-size="24px" font-style="normal" font-weight="normal" text-decoration="none" x="1000" y="330">UNREGISTERED</text><text fill="#eeeeee" stroke="none" font-family="Arial" font-size="24px" font-style="normal" font-weight="normal" text-decoration="none" x="1000" y="360">UNREGISTERED</text><text fill="#eeeeee" stroke="none" font-family="Arial" font-size="24px" font-style="normal" font-weight="normal" text-decoration="none" x="1000" y="390">UNREGISTERED</text><text fill="#eeeeee" stroke="none" font-family="Arial" font-size="24px" font-style="normal" font-weight="normal" text-decoration="none" x="1000" y="420">UNREGISTERED</text><text fill="#eeeeee" stroke="none" font-family="Arial" font-size="24px" font-style="normal" font-weight="normal" text-decoration="none" x="1000" y="450">UNREGISTERED</text><text fill="#eeeeee" stroke="none" font-family="Arial" font-size="24px" font-style="normal" font-weight="normal" text-decoration="none" x="1000" y="480">UNREGISTERED</text><g transform="translate(-22,-6) scale(1,1)"><path fill="none" stroke="#000000" d="M 32 16 L 1088 16 L 1088 480 L 32 480 L 32 16" stroke-miterlimit="10"/></g><g transform="translate(-22,-6) scale(1,1)"><path fill="#ffffff" stroke="none" d="M 32 16 L 32 38 L 286 38 L 297 27 L 297 16 L 32 16"/></g><g transform="translate(-22,-6) scale(1,1)"><path fill="none" stroke="#000000" d="M 32 16 L 32 38 L 286 38 L 297 27 L 297 16 L 32 16 L 32 16" stroke-miterlimit="10"/></g><g transform="translate(-22,-6) scale(1,1)"><g><path fill="none" stroke="none"/><text fill="#000000" stroke="none" font-family="Arial" font-size="13px" font-style="normal" font-weight="normal" text-decoration="none" x="57" y="32">Track Collab State SequenceDiagram1</text></g></g><g transform="translate(-22,-6) scale(1,1)"><g><path fill="none" stroke="none"/><text fill="#000000" stroke="none" font-family="Arial" font-size="13px" font-style="normal" font-weight="bold" text-decoration="none" x="37" y="32">sd</text></g></g><g transform="translate(-22,-6) scale(1,1)"><path fill="none" stroke="#000000" d="M 64 128 L 1064 128 L 1064 207 L 64 207 L 64 128" stroke-miterlimit="10"/></g><g transform="translate(-22,-6) scale(1,1)"><path fill="#ffffff" stroke="none" d="M 64 128 L 64 150 L 231 150 L 242 139 L 242 128 L 64 128"/></g><g transform="translate(-22,-6) scale(1,1)"><path fill="none" stroke="#000000" d="M 64 128 L 64 150 L 231 150 L 242 139 L 242 128 L 64 128 L 64 128" stroke-miterlimit="10"/></g><g transform="translate(-22,-6) scale(1,1)"><g><path fill="none" stroke="none"/><text fill="#000000" stroke="none" font-family="Arial" font-size="13px" font-style="normal" font-weight="normal" text-decoration="none" x="89" y="144">login SequenceDiagram</text></g></g><g transform="translate(-22,-6) scale(1,1)"><g><path fill="none" stroke="none"/><text fill="#000000" stroke="none" font-family="Arial" font-size="13px" font-style="normal" font-weight="bold" text-decoration="none" x="69" y="144">sd</text></g></g><g transform="translate(-22,-6) scale(1,1)"><path fill="#ffffff" stroke="none" d="M 153.0709090909091 47.3 C 153.0709090909091 43.82060576 155.9493108130909 41 159.5 41 C 163.0506891869091 41 165.92909090909092 43.82060576 165.92909090909092 47.3 C 165.92909090909092 50.779394239999995 163.0506891869091 53.6 159.5 53.6 C 155.9493108130909 53.6 153.0709090909091 50.779394239999995 153.0709090909091 47.3 Z"/></g><g transform="translate(-22,-6) scale(1,1)"><path fill="none" stroke="#000000" d="M 153.0709090909091 47.3 C 153.0709090909091 43.82060576 155.9493108130909 41 159.5 41 C 163.0506891869091 41 165.92909090909092 43.82060576 165.92909090909092 47.3 C 165.92909090909092 50.779394239999995 163.0506891869091 53.6 159.5 53.6 C 155.9493108130909 53.6 153.0709090909091 50.779394239999995 153.0709090909091 47.3 Z" stroke-miterlimit="10"/></g><g transform="translate(-22,-6) scale(1,1)"><path fill="none" stroke="#000000" d="M 159.5 53.6 L 159.5 66.4" stroke-miterlimit="10"/></g><g transform="translate(-22,-6) scale(1,1)"><path fill="none" stroke="#000000" d="M 152.6927272727273 58.4 L 166.30727272727273 58.4" stroke-miterlimit="10"/></g><g transform="translate(-22,-6) scale(1,1)"><path fill="none" stroke="#000000" d="M 159.5 66.4 L 150.04545454545456 79" stroke-miterlimit="10"/></g><g transform="translate(-22,-6) scale(1,1)"><path fill="none" stroke="#000000" d="M 159.5 66.4 L 168.95454545454547 79" stroke-miterlimit="10"/></g><g transform="translate(-22,-6) scale(1,1)"><g><path fill="none" stroke="none"/><text fill="#000000" stroke="none" font-family="Arial" font-size="13px" font-style="normal" font-weight="bold" text-decoration="none" x="123.5" y="98">user: Buyer</text></g></g><g transform="translate(-22,-6) scale(1,1)"><path fill="none" stroke="#000000" d="M 160.5 105 L 160.5 480" stroke-miterlimit="10" stroke-dasharray="3"/></g><g transform="translate(-22,-6) scale(1,1)"><rect fill="#C0C0C0" stroke="none" x="335" y="47" width="100" height="39" opacity="0.2"/></g><g transform="translate(-22,-6) scale(1,1)"><rect fill="#ffffff" stroke="none" x="328" y="40" width="100" height="39"/></g><g transform="translate(-22,-6) scale(1,1)"><path fill="none" stroke="#000000" d="M 328 40 L 428 40 L 428 79 L 328 79 L 328 40 Z Z" stroke-miterlimit="10"/></g><g transform="translate(-22,-6) scale(1,1)"><g><path fill="none" stroke="none"/><text fill="#000000" stroke="none" font-family="Arial" font-size="13px" font-style="normal" font-weight="bold" text-decoration="none" x="337.5" y="58">collabs page</text></g></g><g transform="translate(-22,-6) scale(1,1)"><path fill="none" stroke="#000000" d="M 379.5 80 L 379.5 480" stroke-miterlimit="10" stroke-dasharray="3"/></g><g transform="translate(-22,-6) scale(1,1)"><rect fill="#C0C0C0" stroke="none" x="567" y="47" width="80" height="39" opacity="0.2"/></g><g transform="translate(-22,-6) scale(1,1)"><rect fill="#ffffff" stroke="none" x="560" y="40" width="80" height="39"/></g><g transform="translate(-22,-6) scale(1,1)"><path fill="none" stroke="#000000" d="M 560 40 L 640 40 L 640 79 L 560 79 L 560 40 Z Z" stroke-miterlimit="10"/></g><g transform="translate(-22,-6) scale(1,1)"><g><path fill="none" stroke="none"/><text fill="#000000" stroke="none" font-family="Arial" font-size="13px" font-style="normal" font-weight="bold" text-decoration="none" x="569.5" y="58">controller</text></g></g><g transform="translate(-22,-6) scale(1,1)"><path fill="none" stroke="#000000" d="M 601.5 80 L 601.5 480" stroke-miterlimit="10" stroke-dasharray="3"/></g><g transform="translate(-22,-6) scale(1,1)"><rect fill="#C0C0C0" stroke="none" x="783" y="47" width="103" height="39" opacity="0.2"/></g><g transform="translate(-22,-6) scale(1,1)"><rect fill="#ffffff" stroke="none" x="776" y="40" width="103" height="39"/></g><g transform="translate(-22,-6) scale(1,1)"><path fill="none" stroke="#000000" d="M 776 40 L 879 40 L 879 79 L 776 79 L 776 40 Z Z" stroke-miterlimit="10"/></g><g transform="translate(-22,-6) scale(1,1)"><g><path fill="none" stroke="none"/><text fill="#000000" stroke="none" font-family="Arial" font-size="13px" font-style="normal" font-weight="bold" text-decoration="none" x="785.5" y="58">Entity: Collab</text></g></g><g transform="translate(-22,-6) scale(1,1)"><path fill="none" stroke="#000000" d="M 828.5 80 L 828.5 480" stroke-miterlimit="10" stroke-dasharray="3"/></g><g transform="translate(-22,-6) scale(1,1)"><rect fill="#C0C0C0" stroke="none" x="991" y="47" width="87" height="39" opacity="0.2"/></g><g transform="translate(-22,-6) scale(1,1)"><rect fill="#ffffff" stroke="none" x="984" y="40" width="87" height="39"/></g><g transform="translate(-22,-6) scale(1,1)"><path fill="none" stroke="#000000" d="M 984 40 L 1071 40 L 1071 79 L 984 79 L 984 40 Z Z" stroke-miterlimit="10"/></g><g transform="translate(-22,-6) scale(1,1)"><g><path fill="none" stroke="none"/><text fill="#000000" stroke="none" font-family="Arial" font-size="13px" font-style="normal" font-weight="bold" text-decoration="none" x="993.5" y="58">main page</text></g></g><g transform="translate(-22,-6) scale(1,1)"><path fill="none" stroke="#000000" d="M 1028.5 80 L 1028.5 319" stroke-miterlimit="10" stroke-dasharray="3"/></g><g transform="translate(-22,-6) scale(1,1)"><path fill="none" stroke="#000000" d="M 160 242 L 1021 242" stroke-miterlimit="10"/></g><g transform="translate(-22,-6) scale(1,1)"><path fill="#000000" stroke="none" d="M 1010.8373251423759 246.209517756016 L 1021 242 L 1010.8373251423758 237.790482243984"/></g><g transform="translate(-22,-6) scale(1,1)"><path fill="none" stroke="#000000" d="M 1010.8373251423759 246.209517756016 L 1021 242 L 1010.8373251423758 237.790482243984 L 1010.8373251423759 246.209517756016" stroke-miterlimit="10"/></g><g transform="translate(-22,-6) scale(1,1)"><g><path fill="none" stroke="none"/><text fill="#000000" stroke="none" font-family="Arial" font-size="13px" font-style="normal" font-weight="normal" text-decoration="none" x="503.5" y="237">1 : navigate to collabs section</text></g></g><g transform="translate(-22,-6) scale(1,1)"><rect fill="#ffffff" stroke="none" x="1021" y="242" width="13" height="38"/></g><g transform="translate(-22,-6) scale(1,1)"><path fill="none" stroke="#000000" d="M 1021 242 L 1034 242 L 1034 280 L 1021 280 L 1021 242 Z Z" stroke-miterlimit="10"/></g><g transform="translate(-22,-6) scale(1,1)"><path fill="none" stroke="#000000" d="M 1021 273 L 379 273" stroke-miterlimit="10" stroke-dasharray="3"/></g><g transform="translate(-22,-6) scale(1,1)"><path fill="none" stroke="#000000" d="M 389.16267485762415 268.790482243984 L 379 273 L 389.16267485762415 277.209517756016" stroke-miterlimit="10"/></g><g transform="translate(-22,-6) scale(1,1)"><g><path fill="none" stroke="none"/><text fill="#000000" stroke="none" font-family="Arial" font-size="13px" font-style="normal" font-weight="normal" text-decoration="none" x="667.5" y="288">2 : redirect</text></g></g><g transform="translate(-22,-6) scale(1,1)"><path fill="none" stroke="#000000" d="M 160 324 L 372 324" stroke-miterlimit="10"/></g><g transform="translate(-22,-6) scale(1,1)"><path fill="#000000" stroke="none" d="M 361.83732514237585 328.209517756016 L 372 324 L 361.83732514237585 319.790482243984"/></g><g transform="translate(-22,-6) scale(1,1)"><path fill="none" stroke="#000000" d="M 361.83732514237585 328.209517756016 L 372 324 L 361.83732514237585 319.790482243984 L 361.83732514237585 328.209517756016" stroke-miterlimit="10"/></g><g transform="translate(-22,-6) scale(1,1)"><g><path fill="none" stroke="none"/><text fill="#000000" stroke="none" font-family="Arial" font-size="13px" font-style="normal" font-weight="normal" text-decoration="none" x="210.5" y="319">3 : choose a collab</text></g></g><g transform="translate(-22,-6) scale(1,1)"><rect fill="#ffffff" stroke="none" x="372" y="324" width="13" height="28"/></g><g transform="translate(-22,-6) scale(1,1)"><path fill="none" stroke="#000000" d="M 372 324 L 385 324 L 385 352 L 372 352 L 372 324 Z Z" stroke-miterlimit="10"/></g><g transform="translate(-22,-6) scale(1,1)"><path fill="none" stroke="#000000" d="M 385 348 L 594 348" stroke-miterlimit="10"/></g><g transform="translate(-22,-6) scale(1,1)"><path fill="#000000" stroke="none" d="M 583.8373251423759 352.209517756016 L 594 348 L 583.8373251423758 343.790482243984"/></g><g transform="translate(-22,-6) scale(1,1)"><path fill="none" stroke="#000000" d="M 583.8373251423759 352.209517756016 L 594 348 L 583.8373251423758 343.790482243984 L 583.8373251423759 352.209517756016" stroke-miterlimit="10"/></g><g transform="translate(-22,-6) scale(1,1)"><g><path fill="none" stroke="none"/><text fill="#000000" stroke="none" font-family="Arial" font-size="13px" font-style="normal" font-weight="normal" text-decoration="none" x="441.5" y="343">4 : getDetails(id)</text></g></g><g transform="translate(-22,-6) scale(1,1)"><rect fill="#ffffff" stroke="none" x="594" y="348" width="13" height="28"/></g><g transform="translate(-22,-6) scale(1,1)"><path fill="none" stroke="#000000" d="M 594 348 L 607 348 L 607 376 L 594 376 L 594 348 Z Z" stroke-miterlimit="10"/></g><g transform="translate(-22,-6) scale(1,1)"><path fill="none" stroke="#000000" d="M 607 375 L 821 375" stroke-miterlimit="10"/></g><g transform="translate(-22,-6) scale(1,1)"><path fill="#000000" stroke="none" d="M 810.8373251423759 379.209517756016 L 821 375 L 810.8373251423758 370.790482243984"/></g><g transform="translate(-22,-6) scale(1,1)"><path fill="none" stroke="#000000" d="M 810.8373251423759 379.209517756016 L 821 375 L 810.8373251423758 370.790482243984 L 810.8373251423759 379.209517756016" stroke-miterlimit="10"/></g><g transform="translate(-22,-6) scale(1,1)"><g><path fill="none" stroke="none"/><text fill="#000000" stroke="none" font-family="Arial" font-size="13px" font-style="normal" font-weight="normal" text-decoration="none" x="672.5" y="370">5 : findById(id)</text></g></g><g transform="translate(-22,-6) scale(1,1)"><rect fill="#ffffff" stroke="none" x="821" y="375" width="13" height="28"/></g><g transform="translate(-22,-6) scale(1,1)"><path fill="none" stroke="#000000" d="M 821 375 L 834 375 L 834 403 L 821 403 L 821 375 Z Z" stroke-miterlimit="10"/></g><g transform="translate(-22,-6) scale(1,1)"><path fill="none" stroke="#000000" d="M 828 403 L 607 403" stroke-miterlimit="10"/></g><g transform="translate(-22,-6) scale(1,1)"><path fill="#000000" stroke="none" d="M 617.1626748576241 398.790482243984 L 607 403 L 617.1626748576241 407.209517756016"/></g><g transform="translate(-22,-6) scale(1,1)"><path fill="none" stroke="#000000" d="M 617.1626748576241 398.790482243984 L 607 403 L 617.1626748576241 407.209517756016 L 617.1626748576241 398.790482243984" stroke-miterlimit="10"/></g><g transform="translate(-22,-6) scale(1,1)"><g><path fill="none" stroke="none"/><text fill="#000000" stroke="none" font-family="Arial" font-size="13px" font-style="normal" font-weight="normal" text-decoration="none" x="689.5" y="418">6 : collab</text></g></g><g transform="translate(-22,-6) scale(1,1)"><rect fill="#ffffff" stroke="none" x="594" y="403" width="13" height="28"/></g><g transform="translate(-22,-6) scale(1,1)"><path fill="none" stroke="#000000" d="M 594 403 L 607 403 L 607 431 L 594 431 L 594 403 Z Z" stroke-miterlimit="10"/></g><g transform="translate(-22,-6) scale(1,1)"><path fill="none" stroke="#000000" d="M 594 425 L 379 425" stroke-miterlimit="10" stroke-dasharray="3"/></g><g transform="translate(-22,-6) scale(1,1)"><path fill="none" stroke="#000000" d="M 389.16267485762415 420.790482243984 L 379 425 L 389.16267485762415 429.209517756016" stroke-miterlimit="10"/></g><g transform="translate(-22,-6) scale(1,1)"><g><path fill="none" stroke="none"/><text fill="#000000" stroke="none" font-family="Arial" font-size="13px" font-style="normal" font-weight="normal" text-decoration="none" x="435.5" y="440">7 : display collab</text></g></g></g></svg>