<svg version="1.1" xmlns="http://www.w3.org/2000/svg" xmlns:xlink="http://www.w3.org/1999/xlink" width="852" height="684"><defs/><g><text fill="#eeeeee" stroke="none" font-family="Arial" font-size="24px" font-style="normal" font-weight="normal" text-decoration="none" x="0" y="0">UNREGISTERED</text><text fill="#eeeeee" stroke="none" font-family="Arial" font-size="24px" font-style="normal" font-weight="normal" text-decoration="none" x="0" y="30">UNREGISTERED</text><text fill="#eeeeee" stroke="none" font-family="Arial" font-size="24px" font-style="normal" font-weight="normal" text-decoration="none" x="0" y="60">UNREGISTERED</text><text fill="#eeeeee" stroke="none" font-family="Arial" font-size="24px" font-style="normal" font-weight="normal" text-decoration="none" x="0" y="90">UNREGISTERED</text><text fill="#eeeeee" stroke="none" font-family="Arial" font-size="24px" font-style="normal" font-weight="normal" text-decoration="none" x="0" y="120">UNREGISTERED</text><text fill="#eeeeee" stroke="none" font-family="Arial" font-size="24px" font-style="normal" font-weight="normal" text-decoration="none" x="0" y="150">UNREGISTERED</text><text fill="#eeeeee" stroke="none" font-family="Arial" font-size="24px" font-style="normal" font-weight="normal" text-decoration="none" x="0" y="180">UNREGISTERED</text><text fill="#eeeeee" stroke="none" font-family="Arial" font-size="24px" font-style="normal" font-weight="normal" text-decoration="none" x="0" y="210">UNREGISTERED</text><text fill="#eeeeee" stroke="none" font-family="Arial" font-size="24px" font-style="normal" font-weight="normal" text-decoration="none" x="0" y="240">UNREGISTERED</text><text fill="#eeeeee" stroke="none" font-family="Arial" font-size="24px" font-style="normal" font-weight="normal" text-decoration="none" x="0" y="270">UNREGISTERED</text><text fill="#eeeeee" stroke="none" font-family="Arial" font-size="24px" font-style="normal" font-weight="normal" text-decoration="none" x="0" y="300">UNREGISTERED</text><text fill="#eeeeee" stroke="none" font-family="Arial" font-size="24px" font-style="normal" font-weight="normal" text-decoration="none" x="0" y="330">UNREGISTERED</text><text fill="#eeeeee" stroke="none" font-family="Arial" font-size="24px" font-style="normal" font-weight="normal" text-decoration="none" x="0" y="360">UNREGISTERED</text><text fill="#eeeeee" stroke="none" font-family="Arial" font-size="24px" font-style="normal" font-weight="normal" text-decoration="none" x="0" y="390">UNREGISTERED</text><text fill="#eeeeee" stroke="none" font-family="Arial" font-size="24px" font-style="normal" font-weight="normal" text-decoration="none" x="0" y="420">UNREGISTERED</text><text fill="#eeeeee" stroke="none" font-family="Arial" font-size="24px" font-style="normal" font-weight="normal" text-decoration="none" x="0" y="450">UNREGISTERED</text><text fill="#eeeeee" stroke="none" font-family="Arial" font-size="24px" font-style="normal" font-weight="normal" text-decoration="none" x="0" y="480">UNREGISTERED</text><text fill="#eeeeee" stroke="none" font-family="Arial" font-size="24px" font-style="normal" font-weight="normal" text-decoration="none" x="0" y="510">UNREGISTERED</text><text fill="#eeeeee" stroke="none" font-family="Arial" font-size="24px" font-style="normal" font-weight="normal" text-decoration="none" x="0" y="540">UNREGISTERED</text><text fill="#eeeeee" stroke="none" font-family="Arial" font-size="24px" font-style="normal" font-weight="normal" text-decoration="none" x="0" y="570">UNREGISTERED</text><text fill="#eeeeee" stroke="none" font-family="Arial" font-size="24px" font-style="normal" font-weight="normal" text-decoration="none" x="0" y="600">UNREGISTERED</text><text fill="#eeeeee" stroke="none" font-family="Arial" font-size="24px" font-style="normal" font-weight="normal" text-decoration="none" x="0" y="630">UNREGISTERED</text><text fill="#eeeeee" stroke="none" font-family="Arial" font-size="24px" font-style="normal" font-weight="normal" text-decoration="none" x="0" y="660">UNREGISTERED</text><text fill="#eeeeee" stroke="none" font-family="Arial" font-size="24px" font-style="normal" font-weight="normal" text-decoration="none" x="200" y="0">UNREGISTERED</text><text fill="#eeeeee" stroke="none" font-family="Arial" font-size="24px" font-style="normal" font-weight="normal" text-decoration="none" x="200" y="30">UNREGISTERED</text><text fill="#eeeeee" stroke="none" font-family="Arial" font-size="24px" font-style="normal" font-weight="normal" text-decoration="none" x="200" y="60">UNREGISTERED</text><text fill="#eeeeee" stroke="none" font-family="Arial" font-size="24px" font-style="normal" font-weight="normal" text-decoration="none" x="200" y="90">UNREGISTERED</text><text fill="#eeeeee" stroke="none" font-family="Arial" font-size="24px" font-style="normal" font-weight="normal" text-decoration="none" x="200" y="120">UNREGISTERED</text><text fill="#eeeeee" stroke="none" font-family="Arial" font-size="24px" font-style="normal" font-weight="normal" text-decoration="none" x="200" y="150">UNREGISTERED</text><text fill="#eeeeee" stroke="none" font-family="Arial" font-size="24px" font-style="normal" font-weight="normal" text-decoration="none" x="200" y="180">UNREGISTERED</text><text fill="#eeeeee" stroke="none" font-family="Arial" font-size="24px" font-style="normal" font-weight="normal" text-decoration="none" x="200" y="210">UNREGISTERED</text><text fill="#eeeeee" stroke="none" font-family="Arial" font-size="24px" font-style="normal" font-weight="normal" text-decoration="none" x="200" y="240">UNREGISTERED</text><text fill="#eeeeee" stroke="none" font-family="Arial" font-size="24px" font-style="normal" font-weight="normal" text-decoration="none" x="200" y="270">UNREGISTERED</text><text fill="#eeeeee" stroke="none" font-family="Arial" font-size="24px" font-style="normal" font-weight="normal" text-decoration="none" x="200" y="300">UNREGISTERED</text><text fill="#eeeeee" stroke="none" font-family="Arial" font-size="24px" font-style="normal" font-weight="normal" text-decoration="none" x="200" y="330">UNREGISTERED</text><text fill="#eeeeee" stroke="none" font-family="Arial" font-size="24px" font-style="normal" font-weight="normal" text-decoration="none" x="200" y="360">UNREGISTERED</text><text fill="#eeeeee" stroke="none" font-family="Arial" font-size="24px" font-style="normal" font-weight="normal" text-decoration="none" x="200" y="390">UNREGISTERED</text><text fill="#eeeeee" stroke="none" font-family="Arial" font-size="24px" font-style="normal" font-weight="normal" text-decoration="none" x="200" y="420">UNREGISTERED</text><text fill="#eeeeee" stroke="none" font-family="Arial" font-size="24px" font-style="normal" font-weight="normal" text-decoration="none" x="200" y="450">UNREGISTERED</text><text fill="#eeeeee" stroke="none" font-family="Arial" font-size="24px" font-style="normal" font-weight="normal" text-decoration="none" x="200" y="480">UNREGISTERED</text><text fill="#eeeeee" stroke="none" font-family="Arial" font-size="24px" font-style="normal" font-weight="normal" text-decoration="none" x="200" y="510">UNREGISTERED</text><text fill="#eeeeee" stroke="none" font-family="Arial" font-size="24px" font-style="normal" font-weight="normal" text-decoration="none" x="200" y="540">UNREGISTERED</text><text fill="#eeeeee" stroke="none" font-family="Arial" font-size="24px" font-style="normal" font-weight="normal" text-decoration="none" x="200" y="570">UNREGISTERED</text><text fill="#eeeeee" stroke="none" font-family="Arial" font-size="24px" font-style="normal" font-weight="normal" text-decoration="none" x="200" y="600">UNREGISTERED</text><text fill="#eeeeee" stroke="none" font-family="Arial" font-size="24px" font-style="normal" font-weight="normal" text-decoration="none" x="200" y="630">UNREGISTERED</text><text fill="#eeeeee" stroke="none" font-family="Arial" font-size="24px" font-style="normal" font-weight="normal" text-decoration="none" x="200" y="660">UNREGISTERED</text><text fill="#eeeeee" stroke="none" font-family="Arial" font-size="24px" font-style="normal" font-weight="normal" text-decoration="none" x="400" y="0">UNREGISTERED</text><text fill="#eeeeee" stroke="none" font-family="Arial" font-size="24px" font-style="normal" font-weight="normal" text-decoration="none" x="400" y="30">UNREGISTERED</text><text fill="#eeeeee" stroke="none" font-family="Arial" font-size="24px" font-style="normal" font-weight="normal" text-decoration="none" x="400" y="60">UNREGISTERED</text><text fill="#eeeeee" stroke="none" font-family="Arial" font-size="24px" font-style="normal" font-weight="normal" text-decoration="none" x="400" y="90">UNREGISTERED</text><text fill="#eeeeee" stroke="none" font-family="Arial" font-size="24px" font-style="normal" font-weight="normal" text-decoration="none" x="400" y="120">UNREGISTERED</text><text fill="#eeeeee" stroke="none" font-family="Arial" font-size="24px" font-style="normal" font-weight="normal" text-decoration="none" x="400" y="150">UNREGISTERED</text><text fill="#eeeeee" stroke="none" font-family="Arial" font-size="24px" font-style="normal" font-weight="normal" text-decoration="none" x="400" y="180">UNREGISTERED</text><text fill="#eeeeee" stroke="none" font-family="Arial" font-size="24px" font-style="normal" font-weight="normal" text-decoration="none" x="400" y="210">UNREGISTERED</text><text fill="#eeeeee" stroke="none" font-family="Arial" font-size="24px" font-style="normal" font-weight="normal" text-decoration="none" x="400" y="240">UNREGISTERED</text><text fill="#eeeeee" stroke="none" font-family="Arial" font-size="24px" font-style="normal" font-weight="normal" text-decoration="none" x="400" y="270">UNREGISTERED</text><text fill="#eeeeee" stroke="none" font-family="Arial" font-size="24px" font-style="normal" font-weight="normal" text-decoration="none" x="400" y="300">UNREGISTERED</text><text fill="#eeeeee" stroke="none" font-family="Arial" font-size="24px" font-style="normal" font-weight="normal" text-decoration="none" x="400" y="330">UNREGISTERED</text><text fill="#eeeeee" stroke="none" font-family="Arial" font-size="24px" font-style="normal" font-weight="normal" text-decoration="none" x="400" y="360">UNREGISTERED</text><text fill="#eeeeee" stroke="none" font-family="Arial" font-size="24px" font-style="normal" font-weight="normal" text-decoration="none" x="400" y="390">UNREGISTERED</text><text fill="#eeeeee" stroke="none" font-family="Arial" font-size="24px" font-style="normal" font-weight="normal" text-decoration="none" x="400" y="420">UNREGISTERED</text><text fill="#eeeeee" stroke="none" font-family="Arial" font-size="24px" font-style="normal" font-weight="normal" text-decoration="none" x="400" y="450">UNREGISTERED</text><text fill="#eeeeee" stroke="none" font-family="Arial" font-size="24px" font-style="normal" font-weight="normal" text-decoration="none" x="400" y="480">UNREGISTERED</text><text fill="#eeeeee" stroke="none" font-family="Arial" font-size="24px" font-style="normal" font-weight="normal" text-decoration="none" x="400" y="510">UNREGISTERED</text><text fill="#eeeeee" stroke="none" font-family="Arial" font-size="24px" font-style="normal" font-weight="normal" text-decoration="none" x="400" y="540">UNREGISTERED</text><text fill="#eeeeee" stroke="none" font-family="Arial" font-size="24px" font-style="normal" font-weight="normal" text-decoration="none" x="400" y="570">UNREGISTERED</text><text fill="#eeeeee" stroke="none" font-family="Arial" font-size="24px" font-style="normal" font-weight="normal" text-decoration="none" x="400" y="600">UNREGISTERED</text><text fill="#eeeeee" stroke="none" font-family="Arial" font-size="24px" font-style="normal" font-weight="normal" text-decoration="none" x="400" y="630">UNREGISTERED</text><text fill="#eeeeee" stroke="none" font-family="Arial" font-size="24px" font-style="normal" font-weight="normal" text-decoration="none" x="400" y="660">UNREGISTERED</text><text fill="#eeeeee" stroke="none" font-family="Arial" font-size="24px" font-style="normal" font-weight="normal" text-decoration="none" x="600" y="0">UNREGISTERED</text><text fill="#eeeeee" stroke="none" font-family="Arial" font-size="24px" font-style="normal" font-weight="normal" text-decoration="none" x="600" y="30">UNREGISTERED</text><text fill="#eeeeee" stroke="none" font-family="Arial" font-size="24px" font-style="normal" font-weight="normal" text-decoration="none" x="600" y="60">UNREGISTERED</text><text fill="#eeeeee" stroke="none" font-family="Arial" font-size="24px" font-style="normal" font-weight="normal" text-decoration="none" x="600" y="90">UNREGISTERED</text><text fill="#eeeeee" stroke="none" font-family="Arial" font-size="24px" font-style="normal" font-weight="normal" text-decoration="none" x="600" y="120">UNREGISTERED</text><text fill="#eeeeee" stroke="none" font-family="Arial" font-size="24px" font-style="normal" font-weight="normal" text-decoration="none" x="600" y="150">UNREGISTERED</text><text fill="#eeeeee" stroke="none" font-family="Arial" font-size="24px" font-style="normal" font-weight="normal" text-decoration="none" x="600" y="180">UNREGISTERED</text><text fill="#eeeeee" stroke="none" font-family="Arial" font-size="24px" font-style="normal" font-weight="normal" text-decoration="none" x="600" y="210">UNREGISTERED</text><text fill="#eeeeee" stroke="none" font-family="Arial" font-size="24px" font-style="normal" font-weight="normal" text-decoration="none" x="600" y="240">UNREGISTERED</text><text fill="#eeeeee" stroke="none" font-family="Arial" font-size="24px" font-style="normal" font-weight="normal" text-decoration="none" x="600" y="270">UNREGISTERED</text><text fill="#eeeeee" stroke="none" font-family="Arial" font-size="24px" font-style="normal" font-weight="normal" text-decoration="none" x="600" y="300">UNREGISTERED</text><text fill="#eeeeee" stroke="none" font-family="Arial" font-size="24px" font-style="normal" font-weight="normal" text-decoration="none" x="600" y="330">UNREGISTERED</text><text fill="#eeeeee" stroke="none" font-family="Arial" font-size="24px" font-style="normal" font-weight="normal" text-decoration="none" x="600" y="360">UNREGISTERED</text><text fill="#eeeeee" stroke="none" font-family="Arial" font-size="24px" font-style="normal" font-weight="normal" text-decoration="none" x="600" y="390">UNREGISTERED</text><text fill="#eeeeee" stroke="none" font-family="Arial" font-size="24px" font-style="normal" font-weight="normal" text-decoration="none" x="600" y="420">UNREGISTERED</text><text fill="#eeeeee" stroke="none" font-family="Arial" font-size="24px" font-style="normal" font-weight="normal" text-decoration="none" x="600" y="450">UNREGISTERED</text><text fill="#eeeeee" stroke="none" font-family="Arial" font-size="24px" font-style="normal" font-weight="normal" text-decoration="none" x="600" y="480">UNREGISTERED</text><text fill="#eeeeee" stroke="none" font-family="Arial" font-size="24px" font-style="normal" font-weight="normal" text-decoration="none" x="600" y="510">UNREGISTERED</text><text fill="#eeeeee" stroke="none" font-family="Arial" font-size="24px" font-style="normal" font-weight="normal" text-decoration="none" x="600" y="540">UNREGISTERED</text><text fill="#eeeeee" stroke="none" font-family="Arial" font-size="24px" font-style="normal" font-weight="normal" text-decoration="none" x="600" y="570">UNREGISTERED</text><text fill="#eeeeee" stroke="none" font-family="Arial" font-size="24px" font-style="normal" font-weight="normal" text-decoration="none" x="600" y="600">UNREGISTERED</text><text fill="#eeeeee" stroke="none" font-family="Arial" font-size="24px" font-style="normal" font-weight="normal" text-decoration="none" x="600" y="630">UNREGISTERED</text><text fill="#eeeeee" stroke="none" font-family="Arial" font-size="24px" font-style="normal" font-weight="normal" text-decoration="none" x="600" y="660">UNREGISTERED</text><text fill="#eeeeee" stroke="none" font-family="Arial" font-size="24px" font-style="normal" font-weight="normal" text-decoration="none" x="800" y="0">UNREGISTERED</text><text fill="#eeeeee" stroke="none" font-family="Arial" font-size="24px" font-style="normal" font-weight="normal" text-decoration="none" x="800" y="30">UNREGISTERED</text><text fill="#eeeeee" stroke="none" font-family="Arial" font-size="24px" font-style="normal" font-weight="normal" text-decoration="none" x="800" y="60">UNREGISTERED</text><text fill="#eeeeee" stroke="none" font-family="Arial" font-size="24px" font-style="normal" font-weight="normal" text-decoration="none" x="800" y="90">UNREGISTERED</text><text fill="#eeeeee" stroke="none" font-family="Arial" font-size="24px" font-style="normal" font-weight="normal" text-decoration="none" x="800" y="120">UNREGISTERED</text><text fill="#eeeeee" stroke="none" font-family="Arial" font-size="24px" font-style="normal" font-weight="normal" text-decoration="none" x="800" y="150">UNREGISTERED</text><text fill="#eeeeee" stroke="none" font-family="Arial" font-size="24px" font-style="normal" font-weight="normal" text-decoration="none" x="800" y="180">UNREGISTERED</text><text fill="#eeeeee" stroke="none" font-family="Arial" font-size="24px" font-style="normal" font-weight="normal" text-decoration="none" x="800" y="210">UNREGISTERED</text><text fill="#eeeeee" stroke="none" font-family="Arial" font-size="24px" font-style="normal" font-weight="normal" text-decoration="none" x="800" y="240">UNREGISTERED</text><text fill="#eeeeee" stroke="none" font-family="Arial" font-size="24px" font-style="normal" font-weight="normal" text-decoration="none" x="800" y="270">UNREGISTERED</text><text fill="#eeeeee" stroke="none" font-family="Arial" font-size="24px" font-style="normal" font-weight="normal" text-decoration="none" x="800" y="300">UNREGISTERED</text><text fill="#eeeeee" stroke="none" font-family="Arial" font-size="24px" font-style="normal" font-weight="normal" text-decoration="none" x="800" y="330">UNREGISTERED</text><text fill="#eeeeee" stroke="none" font-family="Arial" font-size="24px" font-style="normal" font-weight="normal" text-decoration="none" x="800" y="360">UNREGISTERED</text><text fill="#eeeeee" stroke="none" font-family="Arial" font-size="24px" font-style="normal" font-weight="normal" text-decoration="none" x="800" y="390">UNREGISTERED</text><text fill="#eeeeee" stroke="none" font-family="Arial" font-size="24px" font-style="normal" font-weight="normal" text-decoration="none" x="800" y="420">UNREGISTERED</text><text fill="#eeeeee" stroke="none" font-family="Arial" font-size="24px" font-style="normal" font-weight="normal" text-decoration="none" x="800" y="450">UNREGISTERED</text><text fill="#eeeeee" stroke="none" font-family="Arial" font-size="24px" font-style="normal" font-weight="normal" text-decoration="none" x="800" y="480">UNREGISTERED</text><text fill="#eeeeee" stroke="none" font-family="Arial" font-size="24px" font-style="normal" font-weight="normal" text-decoration="none" x="800" y="510">UNREGISTERED</text><text fill="#eeeeee" stroke="none" font-family="Arial" font-size="24px" font-style="normal" font-weight="normal" text-decoration="none" x="800" y="540">UNREGISTERED</text><text fill="#eeeeee" stroke="none" font-family="Arial" font-size="24px" font-style="normal" font-weight="normal" text-decoration="none" x="800" y="570">UNREGISTERED</text><text fill="#eeeeee" stroke="none" font-family="Arial" font-size="24px" font-style="normal" font-weight="normal" text-decoration="none" x="800" y="600">UNREGISTERED</text><text fill="#eeeeee" stroke="none" font-family="Arial" font-size="24px" font-style="normal" font-weight="normal" text-decoration="none" x="800" y="630">UNREGISTERED</text><text fill="#eeeeee" stroke="none" font-family="Arial" font-size="24px" font-style="normal" font-weight="normal" text-decoration="none" x="800" y="660">UNREGISTERED</text><g transform="translate(-22,-6) scale(1,1)"><path fill="none" stroke="#000000" d="M 32 16 L 864 16 L 864 680 L 32 680 L 32 16" stroke-miterlimit="10"/></g><g transform="translate(-22,-6) scale(1,1)"><path fill="#ffffff" stroke="none" d="M 32 16 L 32 38 L 271 38 L 282 27 L 282 16 L 32 16"/></g><g transform="translate(-22,-6) scale(1,1)"><path fill="none" stroke="#000000" d="M 32 16 L 32 38 L 271 38 L 282 27 L 282 16 L 32 16 L 32 16" stroke-miterlimit="10"/></g><g transform="translate(-22,-6) scale(1,1)"><g><path fill="none" stroke="none"/><text fill="#000000" stroke="none" font-family="Arial" font-size="13px" font-style="normal" font-weight="normal" text-decoration="none" x="57" y="32">subscribe to newsletter seq diagram</text></g></g><g transform="translate(-22,-6) scale(1,1)"><g><path fill="none" stroke="none"/><text fill="#000000" stroke="none" font-family="Arial" font-size="13px" font-style="normal" font-weight="bold" text-decoration="none" x="37" y="32">sd</text></g></g><g transform="translate(-22,-6) scale(1,1)"><rect fill="#C0C0C0" stroke="none" x="119" y="47" width="74" height="39" opacity="0.2"/></g><g transform="translate(-22,-6) scale(1,1)"><rect fill="#ffffff" stroke="none" x="112" y="40" width="74" height="39"/></g><g transform="translate(-22,-6) scale(1,1)"><path fill="none" stroke="#000000" d="M 112 40 L 186 40 L 186 79 L 112 79 L 112 40 Z Z" stroke-miterlimit="10"/></g><g transform="translate(-22,-6) scale(1,1)"><g><path fill="none" stroke="none"/><text fill="#000000" stroke="none" font-family="Arial" font-size="13px" font-style="normal" font-weight="bold" text-decoration="none" x="135.5" y="56.5">user</text></g></g><g transform="translate(-22,-6) scale(1,1)"><path fill="none" stroke="#000000" d="M 150.5 80 L 150.5 672" stroke-miterlimit="10" stroke-dasharray="3"/></g><g transform="translate(-22,-6) scale(1,1)"><rect fill="#C0C0C0" stroke="none" x="343" y="47" width="75" height="39" opacity="0.2"/></g><g transform="translate(-22,-6) scale(1,1)"><rect fill="#ffffff" stroke="none" x="336" y="40" width="75" height="39"/></g><g transform="translate(-22,-6) scale(1,1)"><path fill="none" stroke="#000000" d="M 336 40 L 411 40 L 411 79 L 336 79 L 336 40 Z Z" stroke-miterlimit="10"/></g><g transform="translate(-22,-6) scale(1,1)"><g><path fill="none" stroke="none"/><text fill="#000000" stroke="none" font-family="Arial" font-size="13px" font-style="normal" font-weight="bold" text-decoration="none" x="345.5" y="58">interface</text></g></g><g transform="translate(-22,-6) scale(1,1)"><path fill="none" stroke="#000000" d="M 374.5 80 L 374.5 672" stroke-miterlimit="10" stroke-dasharray="3"/></g><g transform="translate(-22,-6) scale(1,1)"><rect fill="#C0C0C0" stroke="none" x="695" y="47" width="77" height="39" opacity="0.2"/></g><g transform="translate(-22,-6) scale(1,1)"><rect fill="#ffffff" stroke="none" x="688" y="40" width="77" height="39"/></g><g transform="translate(-22,-6) scale(1,1)"><path fill="none" stroke="#000000" d="M 688 40 L 765 40 L 765 79 L 688 79 L 688 40 Z Z" stroke-miterlimit="10"/></g><g transform="translate(-22,-6) scale(1,1)"><g><path fill="none" stroke="none"/><text fill="#000000" stroke="none" font-family="Arial" font-size="13px" font-style="normal" font-weight="bold" text-decoration="none" x="697.5" y="58">database</text></g></g><g transform="translate(-22,-6) scale(1,1)"><path fill="none" stroke="#000000" d="M 727.5 80 L 727.5 672" stroke-miterlimit="10" stroke-dasharray="3"/></g><g transform="translate(-22,-6) scale(1,1)"><g><path fill="none" stroke="none"/><text fill="#000000" stroke="none" font-family="Arial" font-size="13px" font-style="normal" font-weight="normal" text-decoration="none" x="157" y="311">incalid email</text></g></g><g transform="translate(-22,-6) scale(1,1)"><rect fill="#C0C0C0" stroke="none" x="527" y="47" width="84" height="39" opacity="0.2"/></g><g transform="translate(-22,-6) scale(1,1)"><rect fill="#ffffff" stroke="none" x="520" y="40" width="84" height="39"/></g><g transform="translate(-22,-6) scale(1,1)"><path fill="none" stroke="#000000" d="M 520 40 L 604 40 L 604 79 L 520 79 L 520 40 Z Z" stroke-miterlimit="10"/></g><g transform="translate(-22,-6) scale(1,1)"><g><path fill="none" stroke="none"/><text fill="#000000" stroke="none" font-family="Arial" font-size="13px" font-style="normal" font-weight="bold" text-decoration="none" x="529.5" y="58">controoler</text></g></g><g transform="translate(-22,-6) scale(1,1)"><path fill="none" stroke="#000000" d="M 563.5 80 L 563.5 672" stroke-miterlimit="10" stroke-dasharray="3"/></g><g transform="translate(-22,-6) scale(1,1)"><path fill="none" stroke="#000000" d="M 150 118 L 367 118" stroke-miterlimit="10"/></g><g transform="translate(-22,-6) scale(1,1)"><path fill="#000000" stroke="none" d="M 356.83732514237585 122.20951775601598 L 367 118 L 356.83732514237585 113.79048224398402"/></g><g transform="translate(-22,-6) scale(1,1)"><path fill="none" stroke="#000000" d="M 356.83732514237585 122.20951775601598 L 367 118 L 356.83732514237585 113.79048224398402 L 356.83732514237585 122.20951775601598" stroke-miterlimit="10"/></g><g transform="translate(-22,-6) scale(1,1)"><g><path fill="none" stroke="none"/><text fill="#000000" stroke="none" font-family="Arial" font-size="13px" font-style="normal" font-weight="normal" text-decoration="none" x="164.5" y="113">1 : navigate to subscribe section</text></g></g><g transform="translate(-22,-6) scale(1,1)"><rect fill="#ffffff" stroke="none" x="367" y="118" width="13" height="28"/></g><g transform="translate(-22,-6) scale(1,1)"><path fill="none" stroke="#000000" d="M 367 118 L 380 118 L 380 146 L 367 146 L 367 118 Z Z" stroke-miterlimit="10"/></g><g transform="translate(-22,-6) scale(1,1)"><path fill="none" stroke="#000000" d="M 367 144 L 150 144" stroke-miterlimit="10" stroke-dasharray="3"/></g><g transform="translate(-22,-6) scale(1,1)"><path fill="none" stroke="#000000" d="M 160.16267485762415 139.790482243984 L 150 144 L 160.16267485762415 148.209517756016" stroke-miterlimit="10"/></g><g transform="translate(-22,-6) scale(1,1)"><g><path fill="none" stroke="none"/><text fill="#000000" stroke="none" font-family="Arial" font-size="13px" font-style="normal" font-weight="normal" text-decoration="none" x="195.5" y="159">2 : display email field</text></g></g><g transform="translate(-22,-6) scale(1,1)"><path fill="none" stroke="#000000" d="M 150 217 L 367 217" stroke-miterlimit="10"/></g><g transform="translate(-22,-6) scale(1,1)"><path fill="#000000" stroke="none" d="M 356.83732514237585 221.209517756016 L 367 217 L 356.83732514237585 212.790482243984"/></g><g transform="translate(-22,-6) scale(1,1)"><path fill="none" stroke="#000000" d="M 356.83732514237585 221.209517756016 L 367 217 L 356.83732514237585 212.790482243984 L 356.83732514237585 221.209517756016" stroke-miterlimit="10"/></g><g transform="translate(-22,-6) scale(1,1)"><g><path fill="none" stroke="none"/><text fill="#000000" stroke="none" font-family="Arial" font-size="13px" font-style="normal" font-weight="normal" text-decoration="none" x="188.5" y="212">3 : enter email &amp; submit</text></g></g><g transform="translate(-22,-6) scale(1,1)"><rect fill="#ffffff" stroke="none" x="367" y="217" width="13" height="31"/></g><g transform="translate(-22,-6) scale(1,1)"><path fill="none" stroke="#000000" d="M 367 217 L 380 217 L 380 248 L 367 248 L 367 217 Z Z" stroke-miterlimit="10"/></g><g transform="translate(-22,-6) scale(1,1)"><path fill="none" stroke="#000000" d="M 380 240 L 556 240" stroke-miterlimit="10"/></g><g transform="translate(-22,-6) scale(1,1)"><path fill="#000000" stroke="none" d="M 545.8373251423759 244.209517756016 L 556 240 L 545.8373251423758 235.790482243984"/></g><g transform="translate(-22,-6) scale(1,1)"><path fill="none" stroke="#000000" d="M 545.8373251423759 244.209517756016 L 556 240 L 545.8373251423758 235.790482243984 L 545.8373251423759 244.209517756016" stroke-miterlimit="10"/></g><g transform="translate(-22,-6) scale(1,1)"><g><path fill="none" stroke="none"/><text fill="#000000" stroke="none" font-family="Arial" font-size="13px" font-style="normal" font-weight="normal" text-decoration="none" x="390.5" y="214">4 : email verification</text></g></g><g transform="translate(-22,-6) scale(1,1)"><rect fill="#ffffff" stroke="none" x="556" y="240" width="13" height="243"/></g><g transform="translate(-22,-6) scale(1,1)"><path fill="none" stroke="#000000" d="M 556 240 L 569 240 L 569 483 L 556 483 L 556 240 Z Z" stroke-miterlimit="10"/></g><g transform="translate(-22,-6) scale(1,1)"><path fill="none" stroke="#000000" d="M 569 256 L 599 256 L 599 276 L 576 276" stroke-miterlimit="10"/></g><g transform="translate(-22,-6) scale(1,1)"><path fill="#000000" stroke="none" d="M 586.1626748576241 271.790482243984 L 576 276 L 586.1626748576241 280.209517756016"/></g><g transform="translate(-22,-6) scale(1,1)"><path fill="none" stroke="#000000" d="M 586.1626748576241 271.790482243984 L 576 276 L 586.1626748576241 280.209517756016 L 586.1626748576241 271.790482243984" stroke-miterlimit="10"/></g><g transform="translate(-22,-6) scale(1,1)"><g><path fill="none" stroke="none"/><text fill="#000000" stroke="none" font-family="Arial" font-size="13px" font-style="normal" font-weight="normal" text-decoration="none" x="584" y="270">5 : verify</text></g></g><g transform="translate(-22,-6) scale(1,1)"><rect fill="#ffffff" stroke="none" x="563" y="276" width="13" height="196"/></g><g transform="translate(-22,-6) scale(1,1)"><path fill="none" stroke="#000000" d="M 563 276 L 576 276 L 576 472 L 563 472 L 563 276 Z Z" stroke-miterlimit="10"/></g><g transform="translate(-22,-6) scale(1,1)"><path fill="none" stroke="#000000" d="M 563 320 L 374 320" stroke-miterlimit="10" stroke-dasharray="3"/></g><g transform="translate(-22,-6) scale(1,1)"><path fill="none" stroke="#000000" d="M 384.16267485762415 315.790482243984 L 374 320 L 384.16267485762415 324.209517756016" stroke-miterlimit="10"/></g><g transform="translate(-22,-6) scale(1,1)"><g><path fill="none" stroke="none"/><text fill="#000000" stroke="none" font-family="Arial" font-size="13px" font-style="normal" font-weight="normal" text-decoration="none" x="424.5" y="335">6 : invalid error</text></g></g><g transform="translate(-22,-6) scale(1,1)"><path fill="none" stroke="#000000" d="M 576 401 L 720 401" stroke-miterlimit="10"/></g><g transform="translate(-22,-6) scale(1,1)"><path fill="#000000" stroke="none" d="M 709.8373251423759 405.209517756016 L 720 401 L 709.8373251423758 396.790482243984"/></g><g transform="translate(-22,-6) scale(1,1)"><path fill="none" stroke="#000000" d="M 709.8373251423759 405.209517756016 L 720 401 L 709.8373251423758 396.790482243984 L 709.8373251423759 405.209517756016" stroke-miterlimit="10"/></g><g transform="translate(-22,-6) scale(1,1)"><g><path fill="none" stroke="none"/><text fill="#000000" stroke="none" font-family="Arial" font-size="13px" font-style="normal" font-weight="normal" text-decoration="none" x="605.5" y="396">7 : save(email)</text></g></g><g transform="translate(-22,-6) scale(1,1)"><rect fill="#ffffff" stroke="none" x="720" y="401" width="13" height="28"/></g><g transform="translate(-22,-6) scale(1,1)"><path fill="none" stroke="#000000" d="M 720 401 L 733 401 L 733 429 L 720 429 L 720 401 Z Z" stroke-miterlimit="10"/></g><g transform="translate(-22,-6) scale(1,1)"><path fill="none" stroke="#000000" d="M 720 424 L 576 424" stroke-miterlimit="10" stroke-dasharray="3"/></g><g transform="translate(-22,-6) scale(1,1)"><path fill="none" stroke="#000000" d="M 586.1626748576241 419.790482243984 L 576 424 L 586.1626748576241 428.209517756016" stroke-miterlimit="10"/></g><g transform="translate(-22,-6) scale(1,1)"><g><path fill="none" stroke="none"/><text fill="#000000" stroke="none" font-family="Arial" font-size="13px" font-style="normal" font-weight="normal" text-decoration="none" x="621" y="439">8 : saved</text></g></g><g transform="translate(-22,-6) scale(1,1)"><path fill="none" stroke="#000000" d="M 563 432 L 374 432" stroke-miterlimit="10" stroke-dasharray="3"/></g><g transform="translate(-22,-6) scale(1,1)"><path fill="none" stroke="#000000" d="M 384.16267485762415 427.790482243984 L 374 432 L 384.16267485762415 436.209517756016" stroke-miterlimit="10"/></g><g transform="translate(-22,-6) scale(1,1)"><g><path fill="none" stroke="none"/><text fill="#000000" stroke="none" font-family="Arial" font-size="13px" font-style="normal" font-weight="normal" text-decoration="none" x="440.5" y="447">9 : saved</text></g></g><g transform="translate(-22,-6) scale(1,1)"><path fill="none" stroke="#000000" d="M 120 272 L 663 272 L 663 464 L 120 464 L 120 272" stroke-miterlimit="10"/></g><g transform="translate(-22,-6) scale(1,1)"><path fill="#ffffff" stroke="none" d="M 120 272 L 120 294 L 270 294 L 281 283 L 281 272 L 120 272"/></g><g transform="translate(-22,-6) scale(1,1)"><path fill="none" stroke="#000000" d="M 120 272 L 120 294 L 270 294 L 281 283 L 281 272 L 120 272 L 120 272" stroke-miterlimit="10"/></g><g transform="translate(-22,-6) scale(1,1)"><g><path fill="none" stroke="none"/><text fill="#000000" stroke="none" font-family="Arial" font-size="13px" font-style="normal" font-weight="normal" text-decoration="none" x="145" y="288">CombinedFragment1</text></g></g><g transform="translate(-22,-6) scale(1,1)"><g><path fill="none" stroke="none"/><text fill="#000000" stroke="none" font-family="Arial" font-size="13px" font-style="normal" font-weight="bold" text-decoration="none" x="124" y="288">alt</text></g></g><g transform="translate(-22,-6) scale(1,1)"><path fill="none" stroke="#000000" d="M 120 369 L 663 369" stroke-miterlimit="10" stroke-dasharray="10,3"/></g></g></svg>