<svg version="1.1" xmlns="http://www.w3.org/2000/svg" xmlns:xlink="http://www.w3.org/1999/xlink" width="791" height="644"><defs/><g><text fill="#eeeeee" stroke="none" font-family="Arial" font-size="24px" font-style="normal" font-weight="normal" text-decoration="none" x="0" y="0">UNREGISTERED</text><text fill="#eeeeee" stroke="none" font-family="Arial" font-size="24px" font-style="normal" font-weight="normal" text-decoration="none" x="0" y="30">UNREGISTERED</text><text fill="#eeeeee" stroke="none" font-family="Arial" font-size="24px" font-style="normal" font-weight="normal" text-decoration="none" x="0" y="60">UNREGISTERED</text><text fill="#eeeeee" stroke="none" font-family="Arial" font-size="24px" font-style="normal" font-weight="normal" text-decoration="none" x="0" y="90">UNREGISTERED</text><text fill="#eeeeee" stroke="none" font-family="Arial" font-size="24px" font-style="normal" font-weight="normal" text-decoration="none" x="0" y="120">UNREGISTERED</text><text fill="#eeeeee" stroke="none" font-family="Arial" font-size="24px" font-style="normal" font-weight="normal" text-decoration="none" x="0" y="150">UNREGISTERED</text><text fill="#eeeeee" stroke="none" font-family="Arial" font-size="24px" font-style="normal" font-weight="normal" text-decoration="none" x="0" y="180">UNREGISTERED</text><text fill="#eeeeee" stroke="none" font-family="Arial" font-size="24px" font-style="normal" font-weight="normal" text-decoration="none" x="0" y="210">UNREGISTERED</text><text fill="#eeeeee" stroke="none" font-family="Arial" font-size="24px" font-style="normal" font-weight="normal" text-decoration="none" x="0" y="240">UNREGISTERED</text><text fill="#eeeeee" stroke="none" font-family="Arial" font-size="24px" font-style="normal" font-weight="normal" text-decoration="none" x="0" y="270">UNREGISTERED</text><text fill="#eeeeee" stroke="none" font-family="Arial" font-size="24px" font-style="normal" font-weight="normal" text-decoration="none" x="0" y="300">UNREGISTERED</text><text fill="#eeeeee" stroke="none" font-family="Arial" font-size="24px" font-style="normal" font-weight="normal" text-decoration="none" x="0" y="330">UNREGISTERED</text><text fill="#eeeeee" stroke="none" font-family="Arial" font-size="24px" font-style="normal" font-weight="normal" text-decoration="none" x="0" y="360">UNREGISTERED</text><text fill="#eeeeee" stroke="none" font-family="Arial" font-size="24px" font-style="normal" font-weight="normal" text-decoration="none" x="0" y="390">UNREGISTERED</text><text fill="#eeeeee" stroke="none" font-family="Arial" font-size="24px" font-style="normal" font-weight="normal" text-decoration="none" x="0" y="420">UNREGISTERED</text><text fill="#eeeeee" stroke="none" font-family="Arial" font-size="24px" font-style="normal" font-weight="normal" text-decoration="none" x="0" y="450">UNREGISTERED</text><text fill="#eeeeee" stroke="none" font-family="Arial" font-size="24px" font-style="normal" font-weight="normal" text-decoration="none" x="0" y="480">UNREGISTERED</text><text fill="#eeeeee" stroke="none" font-family="Arial" font-size="24px" font-style="normal" font-weight="normal" text-decoration="none" x="0" y="510">UNREGISTERED</text><text fill="#eeeeee" stroke="none" font-family="Arial" font-size="24px" font-style="normal" font-weight="normal" text-decoration="none" x="0" y="540">UNREGISTERED</text><text fill="#eeeeee" stroke="none" font-family="Arial" font-size="24px" font-style="normal" font-weight="normal" text-decoration="none" x="0" y="570">UNREGISTERED</text><text fill="#eeeeee" stroke="none" font-family="Arial" font-size="24px" font-style="normal" font-weight="normal" text-decoration="none" x="0" y="600">UNREGISTERED</text><text fill="#eeeeee" stroke="none" font-family="Arial" font-size="24px" font-style="normal" font-weight="normal" text-decoration="none" x="0" y="630">UNREGISTERED</text><text fill="#eeeeee" stroke="none" font-family="Arial" font-size="24px" font-style="normal" font-weight="normal" text-decoration="none" x="200" y="0">UNREGISTERED</text><text fill="#eeeeee" stroke="none" font-family="Arial" font-size="24px" font-style="normal" font-weight="normal" text-decoration="none" x="200" y="30">UNREGISTERED</text><text fill="#eeeeee" stroke="none" font-family="Arial" font-size="24px" font-style="normal" font-weight="normal" text-decoration="none" x="200" y="60">UNREGISTERED</text><text fill="#eeeeee" stroke="none" font-family="Arial" font-size="24px" font-style="normal" font-weight="normal" text-decoration="none" x="200" y="90">UNREGISTERED</text><text fill="#eeeeee" stroke="none" font-family="Arial" font-size="24px" font-style="normal" font-weight="normal" text-decoration="none" x="200" y="120">UNREGISTERED</text><text fill="#eeeeee" stroke="none" font-family="Arial" font-size="24px" font-style="normal" font-weight="normal" text-decoration="none" x="200" y="150">UNREGISTERED</text><text fill="#eeeeee" stroke="none" font-family="Arial" font-size="24px" font-style="normal" font-weight="normal" text-decoration="none" x="200" y="180">UNREGISTERED</text><text fill="#eeeeee" stroke="none" font-family="Arial" font-size="24px" font-style="normal" font-weight="normal" text-decoration="none" x="200" y="210">UNREGISTERED</text><text fill="#eeeeee" stroke="none" font-family="Arial" font-size="24px" font-style="normal" font-weight="normal" text-decoration="none" x="200" y="240">UNREGISTERED</text><text fill="#eeeeee" stroke="none" font-family="Arial" font-size="24px" font-style="normal" font-weight="normal" text-decoration="none" x="200" y="270">UNREGISTERED</text><text fill="#eeeeee" stroke="none" font-family="Arial" font-size="24px" font-style="normal" font-weight="normal" text-decoration="none" x="200" y="300">UNREGISTERED</text><text fill="#eeeeee" stroke="none" font-family="Arial" font-size="24px" font-style="normal" font-weight="normal" text-decoration="none" x="200" y="330">UNREGISTERED</text><text fill="#eeeeee" stroke="none" font-family="Arial" font-size="24px" font-style="normal" font-weight="normal" text-decoration="none" x="200" y="360">UNREGISTERED</text><text fill="#eeeeee" stroke="none" font-family="Arial" font-size="24px" font-style="normal" font-weight="normal" text-decoration="none" x="200" y="390">UNREGISTERED</text><text fill="#eeeeee" stroke="none" font-family="Arial" font-size="24px" font-style="normal" font-weight="normal" text-decoration="none" x="200" y="420">UNREGISTERED</text><text fill="#eeeeee" stroke="none" font-family="Arial" font-size="24px" font-style="normal" font-weight="normal" text-decoration="none" x="200" y="450">UNREGISTERED</text><text fill="#eeeeee" stroke="none" font-family="Arial" font-size="24px" font-style="normal" font-weight="normal" text-decoration="none" x="200" y="480">UNREGISTERED</text><text fill="#eeeeee" stroke="none" font-family="Arial" font-size="24px" font-style="normal" font-weight="normal" text-decoration="none" x="200" y="510">UNREGISTERED</text><text fill="#eeeeee" stroke="none" font-family="Arial" font-size="24px" font-style="normal" font-weight="normal" text-decoration="none" x="200" y="540">UNREGISTERED</text><text fill="#eeeeee" stroke="none" font-family="Arial" font-size="24px" font-style="normal" font-weight="normal" text-decoration="none" x="200" y="570">UNREGISTERED</text><text fill="#eeeeee" stroke="none" font-family="Arial" font-size="24px" font-style="normal" font-weight="normal" text-decoration="none" x="200" y="600">UNREGISTERED</text><text fill="#eeeeee" stroke="none" font-family="Arial" font-size="24px" font-style="normal" font-weight="normal" text-decoration="none" x="200" y="630">UNREGISTERED</text><text fill="#eeeeee" stroke="none" font-family="Arial" font-size="24px" font-style="normal" font-weight="normal" text-decoration="none" x="400" y="0">UNREGISTERED</text><text fill="#eeeeee" stroke="none" font-family="Arial" font-size="24px" font-style="normal" font-weight="normal" text-decoration="none" x="400" y="30">UNREGISTERED</text><text fill="#eeeeee" stroke="none" font-family="Arial" font-size="24px" font-style="normal" font-weight="normal" text-decoration="none" x="400" y="60">UNREGISTERED</text><text fill="#eeeeee" stroke="none" font-family="Arial" font-size="24px" font-style="normal" font-weight="normal" text-decoration="none" x="400" y="90">UNREGISTERED</text><text fill="#eeeeee" stroke="none" font-family="Arial" font-size="24px" font-style="normal" font-weight="normal" text-decoration="none" x="400" y="120">UNREGISTERED</text><text fill="#eeeeee" stroke="none" font-family="Arial" font-size="24px" font-style="normal" font-weight="normal" text-decoration="none" x="400" y="150">UNREGISTERED</text><text fill="#eeeeee" stroke="none" font-family="Arial" font-size="24px" font-style="normal" font-weight="normal" text-decoration="none" x="400" y="180">UNREGISTERED</text><text fill="#eeeeee" stroke="none" font-family="Arial" font-size="24px" font-style="normal" font-weight="normal" text-decoration="none" x="400" y="210">UNREGISTERED</text><text fill="#eeeeee" stroke="none" font-family="Arial" font-size="24px" font-style="normal" font-weight="normal" text-decoration="none" x="400" y="240">UNREGISTERED</text><text fill="#eeeeee" stroke="none" font-family="Arial" font-size="24px" font-style="normal" font-weight="normal" text-decoration="none" x="400" y="270">UNREGISTERED</text><text fill="#eeeeee" stroke="none" font-family="Arial" font-size="24px" font-style="normal" font-weight="normal" text-decoration="none" x="400" y="300">UNREGISTERED</text><text fill="#eeeeee" stroke="none" font-family="Arial" font-size="24px" font-style="normal" font-weight="normal" text-decoration="none" x="400" y="330">UNREGISTERED</text><text fill="#eeeeee" stroke="none" font-family="Arial" font-size="24px" font-style="normal" font-weight="normal" text-decoration="none" x="400" y="360">UNREGISTERED</text><text fill="#eeeeee" stroke="none" font-family="Arial" font-size="24px" font-style="normal" font-weight="normal" text-decoration="none" x="400" y="390">UNREGISTERED</text><text fill="#eeeeee" stroke="none" font-family="Arial" font-size="24px" font-style="normal" font-weight="normal" text-decoration="none" x="400" y="420">UNREGISTERED</text><text fill="#eeeeee" stroke="none" font-family="Arial" font-size="24px" font-style="normal" font-weight="normal" text-decoration="none" x="400" y="450">UNREGISTERED</text><text fill="#eeeeee" stroke="none" font-family="Arial" font-size="24px" font-style="normal" font-weight="normal" text-decoration="none" x="400" y="480">UNREGISTERED</text><text fill="#eeeeee" stroke="none" font-family="Arial" font-size="24px" font-style="normal" font-weight="normal" text-decoration="none" x="400" y="510">UNREGISTERED</text><text fill="#eeeeee" stroke="none" font-family="Arial" font-size="24px" font-style="normal" font-weight="normal" text-decoration="none" x="400" y="540">UNREGISTERED</text><text fill="#eeeeee" stroke="none" font-family="Arial" font-size="24px" font-style="normal" font-weight="normal" text-decoration="none" x="400" y="570">UNREGISTERED</text><text fill="#eeeeee" stroke="none" font-family="Arial" font-size="24px" font-style="normal" font-weight="normal" text-decoration="none" x="400" y="600">UNREGISTERED</text><text fill="#eeeeee" stroke="none" font-family="Arial" font-size="24px" font-style="normal" font-weight="normal" text-decoration="none" x="400" y="630">UNREGISTERED</text><text fill="#eeeeee" stroke="none" font-family="Arial" font-size="24px" font-style="normal" font-weight="normal" text-decoration="none" x="600" y="0">UNREGISTERED</text><text fill="#eeeeee" stroke="none" font-family="Arial" font-size="24px" font-style="normal" font-weight="normal" text-decoration="none" x="600" y="30">UNREGISTERED</text><text fill="#eeeeee" stroke="none" font-family="Arial" font-size="24px" font-style="normal" font-weight="normal" text-decoration="none" x="600" y="60">UNREGISTERED</text><text fill="#eeeeee" stroke="none" font-family="Arial" font-size="24px" font-style="normal" font-weight="normal" text-decoration="none" x="600" y="90">UNREGISTERED</text><text fill="#eeeeee" stroke="none" font-family="Arial" font-size="24px" font-style="normal" font-weight="normal" text-decoration="none" x="600" y="120">UNREGISTERED</text><text fill="#eeeeee" stroke="none" font-family="Arial" font-size="24px" font-style="normal" font-weight="normal" text-decoration="none" x="600" y="150">UNREGISTERED</text><text fill="#eeeeee" stroke="none" font-family="Arial" font-size="24px" font-style="normal" font-weight="normal" text-decoration="none" x="600" y="180">UNREGISTERED</text><text fill="#eeeeee" stroke="none" font-family="Arial" font-size="24px" font-style="normal" font-weight="normal" text-decoration="none" x="600" y="210">UNREGISTERED</text><text fill="#eeeeee" stroke="none" font-family="Arial" font-size="24px" font-style="normal" font-weight="normal" text-decoration="none" x="600" y="240">UNREGISTERED</text><text fill="#eeeeee" stroke="none" font-family="Arial" font-size="24px" font-style="normal" font-weight="normal" text-decoration="none" x="600" y="270">UNREGISTERED</text><text fill="#eeeeee" stroke="none" font-family="Arial" font-size="24px" font-style="normal" font-weight="normal" text-decoration="none" x="600" y="300">UNREGISTERED</text><text fill="#eeeeee" stroke="none" font-family="Arial" font-size="24px" font-style="normal" font-weight="normal" text-decoration="none" x="600" y="330">UNREGISTERED</text><text fill="#eeeeee" stroke="none" font-family="Arial" font-size="24px" font-style="normal" font-weight="normal" text-decoration="none" x="600" y="360">UNREGISTERED</text><text fill="#eeeeee" stroke="none" font-family="Arial" font-size="24px" font-style="normal" font-weight="normal" text-decoration="none" x="600" y="390">UNREGISTERED</text><text fill="#eeeeee" stroke="none" font-family="Arial" font-size="24px" font-style="normal" font-weight="normal" text-decoration="none" x="600" y="420">UNREGISTERED</text><text fill="#eeeeee" stroke="none" font-family="Arial" font-size="24px" font-style="normal" font-weight="normal" text-decoration="none" x="600" y="450">UNREGISTERED</text><text fill="#eeeeee" stroke="none" font-family="Arial" font-size="24px" font-style="normal" font-weight="normal" text-decoration="none" x="600" y="480">UNREGISTERED</text><text fill="#eeeeee" stroke="none" font-family="Arial" font-size="24px" font-style="normal" font-weight="normal" text-decoration="none" x="600" y="510">UNREGISTERED</text><text fill="#eeeeee" stroke="none" font-family="Arial" font-size="24px" font-style="normal" font-weight="normal" text-decoration="none" x="600" y="540">UNREGISTERED</text><text fill="#eeeeee" stroke="none" font-family="Arial" font-size="24px" font-style="normal" font-weight="normal" text-decoration="none" x="600" y="570">UNREGISTERED</text><text fill="#eeeeee" stroke="none" font-family="Arial" font-size="24px" font-style="normal" font-weight="normal" text-decoration="none" x="600" y="600">UNREGISTERED</text><text fill="#eeeeee" stroke="none" font-family="Arial" font-size="24px" font-style="normal" font-weight="normal" text-decoration="none" x="600" y="630">UNREGISTERED</text><g transform="translate(-326,-78) scale(1,1)"><rect fill="#C0C0C0" stroke="none" x="439" y="95" width="552" height="624" opacity="0.2"/></g><g transform="translate(-326,-78) scale(1,1)"><rect fill="#ffffff" stroke="none" x="432" y="88" width="552" height="624"/></g><g transform="translate(-326,-78) scale(1,1)"><path fill="none" stroke="#000000" d="M 432 88 L 984 88 L 984 712 L 432 712 L 432 88 Z Z" stroke-miterlimit="10"/></g><g transform="translate(-326,-78) scale(1,1)"><g><path fill="none" stroke="none"/><text fill="#000000" stroke="none" font-family="Arial" font-size="13px" font-style="normal" font-weight="bold" text-decoration="none" x="694.5" y="106">chat</text></g></g><g transform="translate(-326,-78) scale(1,1)"><path fill="#ffffff" stroke="none" d="M 351.82072727272725 273.68 C 351.82072727272725 268.886167936 355.70656959767274 265 360.5 265 C 365.29343040232726 265 369.17927272727275 268.886167936 369.17927272727275 273.68 C 369.17927272727275 278.473832064 365.29343040232726 282.36 360.5 282.36 C 355.70656959767274 282.36 351.82072727272725 278.473832064 351.82072727272725 273.68 Z"/></g><g transform="translate(-326,-78) scale(1,1)"><path fill="none" stroke="#000000" d="M 351.82072727272725 273.68 C 351.82072727272725 268.886167936 355.70656959767274 265 360.5 265 C 365.29343040232726 265 369.17927272727275 268.886167936 369.17927272727275 273.68 C 369.17927272727275 278.473832064 365.29343040232726 282.36 360.5 282.36 C 355.70656959767274 282.36 351.82072727272725 278.473832064 351.82072727272725 273.68 Z" stroke-miterlimit="10"/></g><g transform="translate(-326,-78) scale(1,1)"><path fill="none" stroke="#000000" d="M 360.5 282.36 L 360.5 299.64" stroke-miterlimit="10"/></g><g transform="translate(-326,-78) scale(1,1)"><path fill="none" stroke="#000000" d="M 351.31018181818183 288.84 L 369.68981818181817 288.84" stroke-miterlimit="10"/></g><g transform="translate(-326,-78) scale(1,1)"><path fill="none" stroke="#000000" d="M 360.5 299.64 L 347.73636363636365 317" stroke-miterlimit="10"/></g><g transform="translate(-326,-78) scale(1,1)"><path fill="none" stroke="#000000" d="M 360.5 299.64 L 373.26363636363635 317" stroke-miterlimit="10"/></g><g transform="translate(-326,-78) scale(1,1)"><g><path fill="none" stroke="none"/><text fill="#000000" stroke="none" font-family="Arial" font-size="13px" font-style="normal" font-weight="bold" text-decoration="none" x="342.5" y="336">buyer</text></g></g><g transform="translate(-326,-78) scale(1,1)"><path fill="#ffffff" stroke="none" d="M 1072.8207272727273 289.68 C 1072.8207272727273 284.886167936 1076.7065695976728 281 1081.5 281 C 1086.2934304023272 281 1090.1792727272727 284.886167936 1090.1792727272727 289.68 C 1090.1792727272727 294.473832064 1086.2934304023272 298.36 1081.5 298.36 C 1076.7065695976728 298.36 1072.8207272727273 294.473832064 1072.8207272727273 289.68 Z"/></g><g transform="translate(-326,-78) scale(1,1)"><path fill="none" stroke="#000000" d="M 1072.8207272727273 289.68 C 1072.8207272727273 284.886167936 1076.7065695976728 281 1081.5 281 C 1086.2934304023272 281 1090.1792727272727 284.886167936 1090.1792727272727 289.68 C 1090.1792727272727 294.473832064 1086.2934304023272 298.36 1081.5 298.36 C 1076.7065695976728 298.36 1072.8207272727273 294.473832064 1072.8207272727273 289.68 Z" stroke-miterlimit="10"/></g><g transform="translate(-326,-78) scale(1,1)"><path fill="none" stroke="#000000" d="M 1081.5 298.36 L 1081.5 315.64" stroke-miterlimit="10"/></g><g transform="translate(-326,-78) scale(1,1)"><path fill="none" stroke="#000000" d="M 1072.3101818181817 304.84 L 1090.6898181818183 304.84" stroke-miterlimit="10"/></g><g transform="translate(-326,-78) scale(1,1)"><path fill="none" stroke="#000000" d="M 1081.5 315.64 L 1068.7363636363636 333" stroke-miterlimit="10"/></g><g transform="translate(-326,-78) scale(1,1)"><path fill="none" stroke="#000000" d="M 1081.5 315.64 L 1094.2636363636364 333" stroke-miterlimit="10"/></g><g transform="translate(-326,-78) scale(1,1)"><g><path fill="none" stroke="none"/><text fill="#000000" stroke="none" font-family="Arial" font-size="13px" font-style="normal" font-weight="bold" text-decoration="none" x="1060.5" y="352">farmer</text></g></g><g transform="translate(-326,-78) scale(1,1)"><path fill="#C0C0C0" stroke="none" d="M 527 192 C 527 182.6111584 571.5476624 175 626.5 175 C 681.4523376 175 726 182.6111584 726 192 C 726 201.3888416 681.4523376 209 626.5 209 C 571.5476624 209 527 201.3888416 527 192 Z" opacity="0.2"/></g><g transform="translate(-326,-78) scale(1,1)"><path fill="#ffffff" stroke="none" d="M 520 185 C 520 175.6111584 564.5476624 168 619.5 168 C 674.4523376 168 719 175.6111584 719 185 C 719 194.3888416 674.4523376 202 619.5 202 C 564.5476624 202 520 194.3888416 520 185 Z"/></g><g transform="translate(-326,-78) scale(1,1)"><path fill="none" stroke="#000000" d="M 520 185 C 520 175.6111584 564.5476624 168 619.5 168 C 674.4523376 168 719 175.6111584 719 185 C 719 194.3888416 674.4523376 202 619.5 202 C 564.5476624 202 520 194.3888416 520 185 Z" stroke-miterlimit="10"/></g><g transform="translate(-326,-78) scale(1,1)"><g><path fill="none" stroke="none"/><text fill="#000000" stroke="none" font-family="Arial" font-size="13px" font-style="normal" font-weight="bold" text-decoration="none" x="553.5" y="190.5">Compose_Send SMS</text></g></g><g transform="translate(-326,-78) scale(1,1)"><path fill="#C0C0C0" stroke="none" d="M 559 264 C 559 254.6111584 598.8466528 247 648 247 C 697.1533472 247 737 254.6111584 737 264 C 737 273.3888416 697.1533472 281 648 281 C 598.8466528 281 559 273.3888416 559 264 Z" opacity="0.2"/></g><g transform="translate(-326,-78) scale(1,1)"><path fill="#ffffff" stroke="none" d="M 552 257 C 552 247.6111584 591.8466528 240 641 240 C 690.1533472 240 730 247.6111584 730 257 C 730 266.3888416 690.1533472 274 641 274 C 591.8466528 274 552 266.3888416 552 257 Z"/></g><g transform="translate(-326,-78) scale(1,1)"><path fill="none" stroke="#000000" d="M 552 257 C 552 247.6111584 591.8466528 240 641 240 C 690.1533472 240 730 247.6111584 730 257 C 730 266.3888416 690.1533472 274 641 274 C 591.8466528 274 552 266.3888416 552 257 Z" stroke-miterlimit="10"/></g><g transform="translate(-326,-78) scale(1,1)"><g><path fill="none" stroke="none"/><text fill="#000000" stroke="none" font-family="Arial" font-size="13px" font-style="normal" font-weight="bold" text-decoration="none" x="582.5" y="262.5">Read_Replay SMS</text></g></g><g transform="translate(-326,-78) scale(1,1)"><path fill="#C0C0C0" stroke="none" d="M 599 320 C 599 310.6111584 625.1913392 303 657.5 303 C 689.8086608 303 716 310.6111584 716 320 C 716 329.3888416 689.8086608 337 657.5 337 C 625.1913392 337 599 329.3888416 599 320 Z" opacity="0.2"/></g><g transform="translate(-326,-78) scale(1,1)"><path fill="#ffffff" stroke="none" d="M 592 313 C 592 303.6111584 618.1913392 296 650.5 296 C 682.8086608 296 709 303.6111584 709 313 C 709 322.3888416 682.8086608 330 650.5 330 C 618.1913392 330 592 322.3888416 592 313 Z"/></g><g transform="translate(-326,-78) scale(1,1)"><path fill="none" stroke="#000000" d="M 592 313 C 592 303.6111584 618.1913392 296 650.5 296 C 682.8086608 296 709 303.6111584 709 313 C 709 322.3888416 682.8086608 330 650.5 330 C 618.1913392 330 592 322.3888416 592 313 Z" stroke-miterlimit="10"/></g><g transform="translate(-326,-78) scale(1,1)"><g><path fill="none" stroke="none"/><text fill="#000000" stroke="none" font-family="Arial" font-size="13px" font-style="normal" font-weight="bold" text-decoration="none" x="613.5" y="318.5">Delete SMS</text></g></g><g transform="translate(-326,-78) scale(1,1)"><path fill="#C0C0C0" stroke="none" d="M 599 384 C 599 374.6111584 634.817216 367 679 367 C 723.182784 367 759 374.6111584 759 384 C 759 393.3888416 723.182784 401 679 401 C 634.817216 401 599 393.3888416 599 384 Z" opacity="0.2"/></g><g transform="translate(-326,-78) scale(1,1)"><path fill="#ffffff" stroke="none" d="M 592 377 C 592 367.6111584 627.817216 360 672 360 C 716.182784 360 752 367.6111584 752 377 C 752 386.3888416 716.182784 394 672 394 C 627.817216 394 592 386.3888416 592 377 Z"/></g><g transform="translate(-326,-78) scale(1,1)"><path fill="none" stroke="#000000" d="M 592 377 C 592 367.6111584 627.817216 360 672 360 C 716.182784 360 752 367.6111584 752 377 C 752 386.3888416 716.182784 394 672 394 C 627.817216 394 592 386.3888416 592 377 Z" stroke-miterlimit="10"/></g><g transform="translate(-326,-78) scale(1,1)"><g><path fill="none" stroke="none"/><text fill="#000000" stroke="none" font-family="Arial" font-size="13px" font-style="normal" font-weight="bold" text-decoration="none" x="620" y="382.5">manage settings</text></g></g><g transform="translate(-326,-78) scale(1,1)"><path fill="none" stroke="#000000" d="M 386 291 L 579 203" stroke-miterlimit="10"/></g><g transform="translate(-326,-78) scale(1,1)"><path fill="none" stroke="#000000" d="M 386 299 L 551 272" stroke-miterlimit="10"/></g><g transform="translate(-326,-78) scale(1,1)"><path fill="none" stroke="#000000" d="M 386 304 L 591 311" stroke-miterlimit="10"/></g><g transform="translate(-326,-78) scale(1,1)"><path fill="none" stroke="#000000" d="M 386 309 L 596 359" stroke-miterlimit="10"/></g><g transform="translate(-326,-78) scale(1,1)"><path fill="none" stroke="#000000" d="M 1055 311 L 681 203" stroke-miterlimit="10"/></g><g transform="translate(-326,-78) scale(1,1)"><path fill="none" stroke="#000000" d="M 1055 315 L 731 270" stroke-miterlimit="10"/></g><g transform="translate(-326,-78) scale(1,1)"><path fill="none" stroke="#000000" d="M 1055 319 L 710 314" stroke-miterlimit="10"/></g><g transform="translate(-326,-78) scale(1,1)"><path fill="none" stroke="#000000" d="M 1055 323 L 753 366" stroke-miterlimit="10"/></g><g transform="translate(-326,-78) scale(1,1)"><path fill="#C0C0C0" stroke="none" d="M 631 464 C 631 454.6111584 656.2959088 447 687.5 447 C 718.7040912 447 744 454.6111584 744 464 C 744 473.3888416 718.7040912 481 687.5 481 C 656.2959088 481 631 473.3888416 631 464 Z" opacity="0.2"/></g><g transform="translate(-326,-78) scale(1,1)"><path fill="#ffffff" stroke="none" d="M 624 457 C 624 447.6111584 649.2959088 440 680.5 440 C 711.7040912 440 737 447.6111584 737 457 C 737 466.3888416 711.7040912 474 680.5 474 C 649.2959088 474 624 466.3888416 624 457 Z"/></g><g transform="translate(-326,-78) scale(1,1)"><path fill="none" stroke="#000000" d="M 624 457 C 624 447.6111584 649.2959088 440 680.5 440 C 711.7040912 440 737 447.6111584 737 457 C 737 466.3888416 711.7040912 474 680.5 474 C 649.2959088 474 624 466.3888416 624 457 Z" stroke-miterlimit="10"/></g><g transform="translate(-326,-78) scale(1,1)"><g><path fill="none" stroke="none"/><text fill="#000000" stroke="none" font-family="Arial" font-size="13px" font-style="normal" font-weight="bold" text-decoration="none" x="645" y="462.5">delete chat</text></g></g><g transform="translate(-326,-78) scale(1,1)"><path fill="none" stroke="#000000" d="M 674 395 L 678 439" stroke-miterlimit="10" stroke-dasharray="3"/></g><g transform="translate(-326,-78) scale(1,1)"><path fill="none" stroke="#000000" d="M 672.887684514256 429.2601729802721 L 678 439 L 681.272144785699 428.49794931923185" stroke-miterlimit="10"/></g><g transform="translate(-326,-78) scale(1,1)"><g><path fill="none" stroke="none"/><text fill="#000000" stroke="none" font-family="Arial" font-size="13px" font-style="normal" font-weight="normal" text-decoration="none" x="677.5" y="419">«include»</text></g></g><g transform="translate(-326,-78) scale(1,1)"><path fill="#C0C0C0" stroke="none" d="M 607 552 C 607 542.6111584 643.936504 535 689.5 535 C 735.063496 535 772 542.6111584 772 552 C 772 561.3888416 735.063496 569 689.5 569 C 643.936504 569 607 561.3888416 607 552 Z" opacity="0.2"/></g><g transform="translate(-326,-78) scale(1,1)"><path fill="#ffffff" stroke="none" d="M 600 545 C 600 535.6111584 636.936504 528 682.5 528 C 728.063496 528 765 535.6111584 765 545 C 765 554.3888416 728.063496 562 682.5 562 C 636.936504 562 600 554.3888416 600 545 Z"/></g><g transform="translate(-326,-78) scale(1,1)"><path fill="none" stroke="#000000" d="M 600 545 C 600 535.6111584 636.936504 528 682.5 528 C 728.063496 528 765 535.6111584 765 545 C 765 554.3888416 728.063496 562 682.5 562 C 636.936504 562 600 554.3888416 600 545 Z" stroke-miterlimit="10"/></g><g transform="translate(-326,-78) scale(1,1)"><g><path fill="none" stroke="none"/><text fill="#000000" stroke="none" font-family="Arial" font-size="13px" font-style="normal" font-weight="bold" text-decoration="none" x="628.5" y="550">manage contacts</text></g></g><g transform="translate(-326,-78) scale(1,1)"><path fill="#C0C0C0" stroke="none" d="M 551 656 C 551 646.6111584 577.1913392 639 609.5 639 C 641.8086608 639 668 646.6111584 668 656 C 668 665.3888416 641.8086608 673 609.5 673 C 577.1913392 673 551 665.3888416 551 656 Z" opacity="0.2"/></g><g transform="translate(-326,-78) scale(1,1)"><path fill="#ffffff" stroke="none" d="M 544 649 C 544 639.6111584 570.1913392 632 602.5 632 C 634.8086608 632 661 639.6111584 661 649 C 661 658.3888416 634.8086608 666 602.5 666 C 570.1913392 666 544 658.3888416 544 649 Z"/></g><g transform="translate(-326,-78) scale(1,1)"><path fill="none" stroke="#000000" d="M 544 649 C 544 639.6111584 570.1913392 632 602.5 632 C 634.8086608 632 661 639.6111584 661 649 C 661 658.3888416 634.8086608 666 602.5 666 C 570.1913392 666 544 658.3888416 544 649 Z" stroke-miterlimit="10"/></g><g transform="translate(-326,-78) scale(1,1)"><g><path fill="none" stroke="none"/><text fill="#000000" stroke="none" font-family="Arial" font-size="13px" font-style="normal" font-weight="bold" text-decoration="none" x="565.5" y="654.5">add contact</text></g></g><g transform="translate(-326,-78) scale(1,1)"><path fill="#C0C0C0" stroke="none" d="M 767 656 C 767 646.6111584 798.340064 639 837 639 C 875.659936 639 907 646.6111584 907 656 C 907 665.3888416 875.659936 673 837 673 C 798.340064 673 767 665.3888416 767 656 Z" opacity="0.2"/></g><g transform="translate(-326,-78) scale(1,1)"><path fill="#ffffff" stroke="none" d="M 760 649 C 760 639.6111584 791.340064 632 830 632 C 868.659936 632 900 639.6111584 900 649 C 900 658.3888416 868.659936 666 830 666 C 791.340064 666 760 658.3888416 760 649 Z"/></g><g transform="translate(-326,-78) scale(1,1)"><path fill="none" stroke="#000000" d="M 760 649 C 760 639.6111584 791.340064 632 830 632 C 868.659936 632 900 639.6111584 900 649 C 900 658.3888416 868.659936 666 830 666 C 791.340064 666 760 658.3888416 760 649 Z" stroke-miterlimit="10"/></g><g transform="translate(-326,-78) scale(1,1)"><g><path fill="none" stroke="none"/><text fill="#000000" stroke="none" font-family="Arial" font-size="13px" font-style="normal" font-weight="bold" text-decoration="none" x="785" y="654.5">delete contact</text></g></g><g transform="translate(-326,-78) scale(1,1)"><path fill="none" stroke="#000000" d="M 668 563 L 616 631" stroke-miterlimit="10" stroke-dasharray="3"/></g><g transform="translate(-326,-78) scale(1,1)"><path fill="none" stroke="#000000" d="M 618.8294545329229 620.3701276091327 L 616 631 L 625.5171813380188 625.4842716365589" stroke-miterlimit="10"/></g><g transform="translate(-326,-78) scale(1,1)"><g><path fill="none" stroke="none"/><text fill="#000000" stroke="none" font-family="Arial" font-size="13px" font-style="normal" font-weight="normal" text-decoration="none" x="637.5" y="620">«include»</text></g></g><g transform="translate(-326,-78) scale(1,1)"><path fill="none" stroke="#000000" d="M 708 563 L 804 631" stroke-miterlimit="10" stroke-dasharray="3"/></g><g transform="translate(-326,-78) scale(1,1)"><path fill="none" stroke="#000000" d="M 793.2738342634025 628.560867246122 L 804 631 L 798.1401827820024 621.6907281610397" stroke-miterlimit="10"/></g><g transform="translate(-326,-78) scale(1,1)"><g><path fill="none" stroke="none"/><text fill="#000000" stroke="none" font-family="Arial" font-size="13px" font-style="normal" font-weight="normal" text-decoration="none" x="745.5" y="577">«include»</text></g></g><g transform="translate(-326,-78) scale(1,1)"><path fill="none" stroke="#000000" d="M 386 323 L 658 527" stroke-miterlimit="10"/></g><g transform="translate(-326,-78) scale(1,1)"><path fill="none" stroke="#000000" d="M 1055 334 L 714 527" stroke-miterlimit="10"/></g><g transform="translate(-326,-78) scale(1,1)"><path fill="#C0C0C0" stroke="none" d="M 591 144 C 591 134.6111584 624.1309248 127 665 127 C 705.8690752 127 739 134.6111584 739 144 C 739 153.3888416 705.8690752 161 665 161 C 624.1309248 161 591 153.3888416 591 144 Z" opacity="0.2"/></g><g transform="translate(-326,-78) scale(1,1)"><path fill="#ffffff" stroke="none" d="M 584 137 C 584 127.6111584 617.1309248 120 658 120 C 698.8690752 120 732 127.6111584 732 137 C 732 146.3888416 698.8690752 154 658 154 C 617.1309248 154 584 146.3888416 584 137 Z"/></g><g transform="translate(-326,-78) scale(1,1)"><path fill="none" stroke="#000000" d="M 584 137 C 584 127.6111584 617.1309248 120 658 120 C 698.8690752 120 732 127.6111584 732 137 C 732 146.3888416 698.8690752 154 658 154 C 617.1309248 154 584 146.3888416 584 137 Z" stroke-miterlimit="10"/></g><g transform="translate(-326,-78) scale(1,1)"><g><path fill="none" stroke="none"/><text fill="#000000" stroke="none" font-family="Arial" font-size="13px" font-style="normal" font-weight="bold" text-decoration="none" x="610" y="142.5">view massages</text></g></g><g transform="translate(-326,-78) scale(1,1)"><path fill="none" stroke="#000000" d="M 386 272 L 480 160 L 583 147" stroke-miterlimit="10"/></g><g transform="translate(-326,-78) scale(1,1)"><path fill="none" stroke="#000000" d="M 1055 308 L 700 155" stroke-miterlimit="10"/></g></g></svg>