<svg version="1.1" xmlns="http://www.w3.org/2000/svg" xmlns:xlink="http://www.w3.org/1999/xlink" width="711" height="641"><defs/><g><text fill="#eeeeee" stroke="none" font-family="Arial" font-size="24px" font-style="normal" font-weight="normal" text-decoration="none" x="0" y="0">UNREGISTERED</text><text fill="#eeeeee" stroke="none" font-family="Arial" font-size="24px" font-style="normal" font-weight="normal" text-decoration="none" x="0" y="30">UNREGISTERED</text><text fill="#eeeeee" stroke="none" font-family="Arial" font-size="24px" font-style="normal" font-weight="normal" text-decoration="none" x="0" y="60">UNREGISTERED</text><text fill="#eeeeee" stroke="none" font-family="Arial" font-size="24px" font-style="normal" font-weight="normal" text-decoration="none" x="0" y="90">UNREGISTERED</text><text fill="#eeeeee" stroke="none" font-family="Arial" font-size="24px" font-style="normal" font-weight="normal" text-decoration="none" x="0" y="120">UNREGISTERED</text><text fill="#eeeeee" stroke="none" font-family="Arial" font-size="24px" font-style="normal" font-weight="normal" text-decoration="none" x="0" y="150">UNREGISTERED</text><text fill="#eeeeee" stroke="none" font-family="Arial" font-size="24px" font-style="normal" font-weight="normal" text-decoration="none" x="0" y="180">UNREGISTERED</text><text fill="#eeeeee" stroke="none" font-family="Arial" font-size="24px" font-style="normal" font-weight="normal" text-decoration="none" x="0" y="210">UNREGISTERED</text><text fill="#eeeeee" stroke="none" font-family="Arial" font-size="24px" font-style="normal" font-weight="normal" text-decoration="none" x="0" y="240">UNREGISTERED</text><text fill="#eeeeee" stroke="none" font-family="Arial" font-size="24px" font-style="normal" font-weight="normal" text-decoration="none" x="0" y="270">UNREGISTERED</text><text fill="#eeeeee" stroke="none" font-family="Arial" font-size="24px" font-style="normal" font-weight="normal" text-decoration="none" x="0" y="300">UNREGISTERED</text><text fill="#eeeeee" stroke="none" font-family="Arial" font-size="24px" font-style="normal" font-weight="normal" text-decoration="none" x="0" y="330">UNREGISTERED</text><text fill="#eeeeee" stroke="none" font-family="Arial" font-size="24px" font-style="normal" font-weight="normal" text-decoration="none" x="0" y="360">UNREGISTERED</text><text fill="#eeeeee" stroke="none" font-family="Arial" font-size="24px" font-style="normal" font-weight="normal" text-decoration="none" x="0" y="390">UNREGISTERED</text><text fill="#eeeeee" stroke="none" font-family="Arial" font-size="24px" font-style="normal" font-weight="normal" text-decoration="none" x="0" y="420">UNREGISTERED</text><text fill="#eeeeee" stroke="none" font-family="Arial" font-size="24px" font-style="normal" font-weight="normal" text-decoration="none" x="0" y="450">UNREGISTERED</text><text fill="#eeeeee" stroke="none" font-family="Arial" font-size="24px" font-style="normal" font-weight="normal" text-decoration="none" x="0" y="480">UNREGISTERED</text><text fill="#eeeeee" stroke="none" font-family="Arial" font-size="24px" font-style="normal" font-weight="normal" text-decoration="none" x="0" y="510">UNREGISTERED</text><text fill="#eeeeee" stroke="none" font-family="Arial" font-size="24px" font-style="normal" font-weight="normal" text-decoration="none" x="0" y="540">UNREGISTERED</text><text fill="#eeeeee" stroke="none" font-family="Arial" font-size="24px" font-style="normal" font-weight="normal" text-decoration="none" x="0" y="570">UNREGISTERED</text><text fill="#eeeeee" stroke="none" font-family="Arial" font-size="24px" font-style="normal" font-weight="normal" text-decoration="none" x="0" y="600">UNREGISTERED</text><text fill="#eeeeee" stroke="none" font-family="Arial" font-size="24px" font-style="normal" font-weight="normal" text-decoration="none" x="0" y="630">UNREGISTERED</text><text fill="#eeeeee" stroke="none" font-family="Arial" font-size="24px" font-style="normal" font-weight="normal" text-decoration="none" x="200" y="0">UNREGISTERED</text><text fill="#eeeeee" stroke="none" font-family="Arial" font-size="24px" font-style="normal" font-weight="normal" text-decoration="none" x="200" y="30">UNREGISTERED</text><text fill="#eeeeee" stroke="none" font-family="Arial" font-size="24px" font-style="normal" font-weight="normal" text-decoration="none" x="200" y="60">UNREGISTERED</text><text fill="#eeeeee" stroke="none" font-family="Arial" font-size="24px" font-style="normal" font-weight="normal" text-decoration="none" x="200" y="90">UNREGISTERED</text><text fill="#eeeeee" stroke="none" font-family="Arial" font-size="24px" font-style="normal" font-weight="normal" text-decoration="none" x="200" y="120">UNREGISTERED</text><text fill="#eeeeee" stroke="none" font-family="Arial" font-size="24px" font-style="normal" font-weight="normal" text-decoration="none" x="200" y="150">UNREGISTERED</text><text fill="#eeeeee" stroke="none" font-family="Arial" font-size="24px" font-style="normal" font-weight="normal" text-decoration="none" x="200" y="180">UNREGISTERED</text><text fill="#eeeeee" stroke="none" font-family="Arial" font-size="24px" font-style="normal" font-weight="normal" text-decoration="none" x="200" y="210">UNREGISTERED</text><text fill="#eeeeee" stroke="none" font-family="Arial" font-size="24px" font-style="normal" font-weight="normal" text-decoration="none" x="200" y="240">UNREGISTERED</text><text fill="#eeeeee" stroke="none" font-family="Arial" font-size="24px" font-style="normal" font-weight="normal" text-decoration="none" x="200" y="270">UNREGISTERED</text><text fill="#eeeeee" stroke="none" font-family="Arial" font-size="24px" font-style="normal" font-weight="normal" text-decoration="none" x="200" y="300">UNREGISTERED</text><text fill="#eeeeee" stroke="none" font-family="Arial" font-size="24px" font-style="normal" font-weight="normal" text-decoration="none" x="200" y="330">UNREGISTERED</text><text fill="#eeeeee" stroke="none" font-family="Arial" font-size="24px" font-style="normal" font-weight="normal" text-decoration="none" x="200" y="360">UNREGISTERED</text><text fill="#eeeeee" stroke="none" font-family="Arial" font-size="24px" font-style="normal" font-weight="normal" text-decoration="none" x="200" y="390">UNREGISTERED</text><text fill="#eeeeee" stroke="none" font-family="Arial" font-size="24px" font-style="normal" font-weight="normal" text-decoration="none" x="200" y="420">UNREGISTERED</text><text fill="#eeeeee" stroke="none" font-family="Arial" font-size="24px" font-style="normal" font-weight="normal" text-decoration="none" x="200" y="450">UNREGISTERED</text><text fill="#eeeeee" stroke="none" font-family="Arial" font-size="24px" font-style="normal" font-weight="normal" text-decoration="none" x="200" y="480">UNREGISTERED</text><text fill="#eeeeee" stroke="none" font-family="Arial" font-size="24px" font-style="normal" font-weight="normal" text-decoration="none" x="200" y="510">UNREGISTERED</text><text fill="#eeeeee" stroke="none" font-family="Arial" font-size="24px" font-style="normal" font-weight="normal" text-decoration="none" x="200" y="540">UNREGISTERED</text><text fill="#eeeeee" stroke="none" font-family="Arial" font-size="24px" font-style="normal" font-weight="normal" text-decoration="none" x="200" y="570">UNREGISTERED</text><text fill="#eeeeee" stroke="none" font-family="Arial" font-size="24px" font-style="normal" font-weight="normal" text-decoration="none" x="200" y="600">UNREGISTERED</text><text fill="#eeeeee" stroke="none" font-family="Arial" font-size="24px" font-style="normal" font-weight="normal" text-decoration="none" x="200" y="630">UNREGISTERED</text><text fill="#eeeeee" stroke="none" font-family="Arial" font-size="24px" font-style="normal" font-weight="normal" text-decoration="none" x="400" y="0">UNREGISTERED</text><text fill="#eeeeee" stroke="none" font-family="Arial" font-size="24px" font-style="normal" font-weight="normal" text-decoration="none" x="400" y="30">UNREGISTERED</text><text fill="#eeeeee" stroke="none" font-family="Arial" font-size="24px" font-style="normal" font-weight="normal" text-decoration="none" x="400" y="60">UNREGISTERED</text><text fill="#eeeeee" stroke="none" font-family="Arial" font-size="24px" font-style="normal" font-weight="normal" text-decoration="none" x="400" y="90">UNREGISTERED</text><text fill="#eeeeee" stroke="none" font-family="Arial" font-size="24px" font-style="normal" font-weight="normal" text-decoration="none" x="400" y="120">UNREGISTERED</text><text fill="#eeeeee" stroke="none" font-family="Arial" font-size="24px" font-style="normal" font-weight="normal" text-decoration="none" x="400" y="150">UNREGISTERED</text><text fill="#eeeeee" stroke="none" font-family="Arial" font-size="24px" font-style="normal" font-weight="normal" text-decoration="none" x="400" y="180">UNREGISTERED</text><text fill="#eeeeee" stroke="none" font-family="Arial" font-size="24px" font-style="normal" font-weight="normal" text-decoration="none" x="400" y="210">UNREGISTERED</text><text fill="#eeeeee" stroke="none" font-family="Arial" font-size="24px" font-style="normal" font-weight="normal" text-decoration="none" x="400" y="240">UNREGISTERED</text><text fill="#eeeeee" stroke="none" font-family="Arial" font-size="24px" font-style="normal" font-weight="normal" text-decoration="none" x="400" y="270">UNREGISTERED</text><text fill="#eeeeee" stroke="none" font-family="Arial" font-size="24px" font-style="normal" font-weight="normal" text-decoration="none" x="400" y="300">UNREGISTERED</text><text fill="#eeeeee" stroke="none" font-family="Arial" font-size="24px" font-style="normal" font-weight="normal" text-decoration="none" x="400" y="330">UNREGISTERED</text><text fill="#eeeeee" stroke="none" font-family="Arial" font-size="24px" font-style="normal" font-weight="normal" text-decoration="none" x="400" y="360">UNREGISTERED</text><text fill="#eeeeee" stroke="none" font-family="Arial" font-size="24px" font-style="normal" font-weight="normal" text-decoration="none" x="400" y="390">UNREGISTERED</text><text fill="#eeeeee" stroke="none" font-family="Arial" font-size="24px" font-style="normal" font-weight="normal" text-decoration="none" x="400" y="420">UNREGISTERED</text><text fill="#eeeeee" stroke="none" font-family="Arial" font-size="24px" font-style="normal" font-weight="normal" text-decoration="none" x="400" y="450">UNREGISTERED</text><text fill="#eeeeee" stroke="none" font-family="Arial" font-size="24px" font-style="normal" font-weight="normal" text-decoration="none" x="400" y="480">UNREGISTERED</text><text fill="#eeeeee" stroke="none" font-family="Arial" font-size="24px" font-style="normal" font-weight="normal" text-decoration="none" x="400" y="510">UNREGISTERED</text><text fill="#eeeeee" stroke="none" font-family="Arial" font-size="24px" font-style="normal" font-weight="normal" text-decoration="none" x="400" y="540">UNREGISTERED</text><text fill="#eeeeee" stroke="none" font-family="Arial" font-size="24px" font-style="normal" font-weight="normal" text-decoration="none" x="400" y="570">UNREGISTERED</text><text fill="#eeeeee" stroke="none" font-family="Arial" font-size="24px" font-style="normal" font-weight="normal" text-decoration="none" x="400" y="600">UNREGISTERED</text><text fill="#eeeeee" stroke="none" font-family="Arial" font-size="24px" font-style="normal" font-weight="normal" text-decoration="none" x="400" y="630">UNREGISTERED</text><text fill="#eeeeee" stroke="none" font-family="Arial" font-size="24px" font-style="normal" font-weight="normal" text-decoration="none" x="600" y="0">UNREGISTERED</text><text fill="#eeeeee" stroke="none" font-family="Arial" font-size="24px" font-style="normal" font-weight="normal" text-decoration="none" x="600" y="30">UNREGISTERED</text><text fill="#eeeeee" stroke="none" font-family="Arial" font-size="24px" font-style="normal" font-weight="normal" text-decoration="none" x="600" y="60">UNREGISTERED</text><text fill="#eeeeee" stroke="none" font-family="Arial" font-size="24px" font-style="normal" font-weight="normal" text-decoration="none" x="600" y="90">UNREGISTERED</text><text fill="#eeeeee" stroke="none" font-family="Arial" font-size="24px" font-style="normal" font-weight="normal" text-decoration="none" x="600" y="120">UNREGISTERED</text><text fill="#eeeeee" stroke="none" font-family="Arial" font-size="24px" font-style="normal" font-weight="normal" text-decoration="none" x="600" y="150">UNREGISTERED</text><text fill="#eeeeee" stroke="none" font-family="Arial" font-size="24px" font-style="normal" font-weight="normal" text-decoration="none" x="600" y="180">UNREGISTERED</text><text fill="#eeeeee" stroke="none" font-family="Arial" font-size="24px" font-style="normal" font-weight="normal" text-decoration="none" x="600" y="210">UNREGISTERED</text><text fill="#eeeeee" stroke="none" font-family="Arial" font-size="24px" font-style="normal" font-weight="normal" text-decoration="none" x="600" y="240">UNREGISTERED</text><text fill="#eeeeee" stroke="none" font-family="Arial" font-size="24px" font-style="normal" font-weight="normal" text-decoration="none" x="600" y="270">UNREGISTERED</text><text fill="#eeeeee" stroke="none" font-family="Arial" font-size="24px" font-style="normal" font-weight="normal" text-decoration="none" x="600" y="300">UNREGISTERED</text><text fill="#eeeeee" stroke="none" font-family="Arial" font-size="24px" font-style="normal" font-weight="normal" text-decoration="none" x="600" y="330">UNREGISTERED</text><text fill="#eeeeee" stroke="none" font-family="Arial" font-size="24px" font-style="normal" font-weight="normal" text-decoration="none" x="600" y="360">UNREGISTERED</text><text fill="#eeeeee" stroke="none" font-family="Arial" font-size="24px" font-style="normal" font-weight="normal" text-decoration="none" x="600" y="390">UNREGISTERED</text><text fill="#eeeeee" stroke="none" font-family="Arial" font-size="24px" font-style="normal" font-weight="normal" text-decoration="none" x="600" y="420">UNREGISTERED</text><text fill="#eeeeee" stroke="none" font-family="Arial" font-size="24px" font-style="normal" font-weight="normal" text-decoration="none" x="600" y="450">UNREGISTERED</text><text fill="#eeeeee" stroke="none" font-family="Arial" font-size="24px" font-style="normal" font-weight="normal" text-decoration="none" x="600" y="480">UNREGISTERED</text><text fill="#eeeeee" stroke="none" font-family="Arial" font-size="24px" font-style="normal" font-weight="normal" text-decoration="none" x="600" y="510">UNREGISTERED</text><text fill="#eeeeee" stroke="none" font-family="Arial" font-size="24px" font-style="normal" font-weight="normal" text-decoration="none" x="600" y="540">UNREGISTERED</text><text fill="#eeeeee" stroke="none" font-family="Arial" font-size="24px" font-style="normal" font-weight="normal" text-decoration="none" x="600" y="570">UNREGISTERED</text><text fill="#eeeeee" stroke="none" font-family="Arial" font-size="24px" font-style="normal" font-weight="normal" text-decoration="none" x="600" y="600">UNREGISTERED</text><text fill="#eeeeee" stroke="none" font-family="Arial" font-size="24px" font-style="normal" font-weight="normal" text-decoration="none" x="600" y="630">UNREGISTERED</text><g transform="translate(-14,-6) scale(1,1)"><path fill="none" stroke="#000000" d="M 24 16 L 715 16 L 715 607 L 24 607 L 24 16" stroke-miterlimit="10"/></g><g transform="translate(-14,-6) scale(1,1)"><path fill="#ffffff" stroke="none" d="M 24 16 L 24 38 L 286 38 L 297 27 L 297 16 L 24 16"/></g><g transform="translate(-14,-6) scale(1,1)"><path fill="none" stroke="#000000" d="M 24 16 L 24 38 L 286 38 L 297 27 L 297 16 L 24 16 L 24 16" stroke-miterlimit="10"/></g><g transform="translate(-14,-6) scale(1,1)"><g><path fill="none" stroke="none"/><text fill="#000000" stroke="none" font-family="Arial" font-size="13px" font-style="normal" font-weight="normal" text-decoration="none" x="49" y="32">create collab Global SequenceDiagram1</text></g></g><g transform="translate(-14,-6) scale(1,1)"><g><path fill="none" stroke="none"/><text fill="#000000" stroke="none" font-family="Arial" font-size="13px" font-style="normal" font-weight="bold" text-decoration="none" x="29" y="32">sd</text></g></g><g transform="translate(-14,-6) scale(1,1)"><path fill="none" stroke="#000000" d="M 64 128 L 647 128 L 647 199 L 64 199 L 64 128" stroke-miterlimit="10"/></g><g transform="translate(-14,-6) scale(1,1)"><path fill="#ffffff" stroke="none" d="M 64 128 L 64 150 L 231 150 L 242 139 L 242 128 L 64 128"/></g><g transform="translate(-14,-6) scale(1,1)"><path fill="none" stroke="#000000" d="M 64 128 L 64 150 L 231 150 L 242 139 L 242 128 L 64 128 L 64 128" stroke-miterlimit="10"/></g><g transform="translate(-14,-6) scale(1,1)"><g><path fill="none" stroke="none"/><text fill="#000000" stroke="none" font-family="Arial" font-size="13px" font-style="normal" font-weight="normal" text-decoration="none" x="89" y="144">login SequenceDiagram</text></g></g><g transform="translate(-14,-6) scale(1,1)"><g><path fill="none" stroke="none"/><text fill="#000000" stroke="none" font-family="Arial" font-size="13px" font-style="normal" font-weight="bold" text-decoration="none" x="69" y="144">sd</text></g></g><g transform="translate(-14,-6) scale(1,1)"><path fill="#ffffff" stroke="none" d="M 184.0709090909091 47.3 C 184.0709090909091 43.82060576 186.9493108130909 41 190.5 41 C 194.0506891869091 41 196.92909090909092 43.82060576 196.92909090909092 47.3 C 196.92909090909092 50.779394239999995 194.0506891869091 53.6 190.5 53.6 C 186.9493108130909 53.6 184.0709090909091 50.779394239999995 184.0709090909091 47.3 Z"/></g><g transform="translate(-14,-6) scale(1,1)"><path fill="none" stroke="#000000" d="M 184.0709090909091 47.3 C 184.0709090909091 43.82060576 186.9493108130909 41 190.5 41 C 194.0506891869091 41 196.92909090909092 43.82060576 196.92909090909092 47.3 C 196.92909090909092 50.779394239999995 194.0506891869091 53.6 190.5 53.6 C 186.9493108130909 53.6 184.0709090909091 50.779394239999995 184.0709090909091 47.3 Z" stroke-miterlimit="10"/></g><g transform="translate(-14,-6) scale(1,1)"><path fill="none" stroke="#000000" d="M 190.5 53.6 L 190.5 66.4" stroke-miterlimit="10"/></g><g transform="translate(-14,-6) scale(1,1)"><path fill="none" stroke="#000000" d="M 183.6927272727273 58.4 L 197.30727272727273 58.4" stroke-miterlimit="10"/></g><g transform="translate(-14,-6) scale(1,1)"><path fill="none" stroke="#000000" d="M 190.5 66.4 L 181.04545454545456 79" stroke-miterlimit="10"/></g><g transform="translate(-14,-6) scale(1,1)"><path fill="none" stroke="#000000" d="M 190.5 66.4 L 199.95454545454547 79" stroke-miterlimit="10"/></g><g transform="translate(-14,-6) scale(1,1)"><g><path fill="none" stroke="none"/><text fill="#000000" stroke="none" font-family="Arial" font-size="13px" font-style="normal" font-weight="bold" text-decoration="none" x="154.5" y="98">user: Buyer</text></g></g><g transform="translate(-14,-6) scale(1,1)"><path fill="none" stroke="#000000" d="M 191.5 105 L 191.5 621" stroke-miterlimit="10" stroke-dasharray="3"/></g><g transform="translate(-14,-6) scale(1,1)"><rect fill="#C0C0C0" stroke="none" x="519" y="47" width="74" height="39" opacity="0.2"/></g><g transform="translate(-14,-6) scale(1,1)"><rect fill="#ffffff" stroke="none" x="512" y="40" width="74" height="39"/></g><g transform="translate(-14,-6) scale(1,1)"><path fill="none" stroke="#000000" d="M 512 40 L 586 40 L 586 79 L 512 79 L 512 40 Z Z" stroke-miterlimit="10"/></g><g transform="translate(-14,-6) scale(1,1)"><g><path fill="none" stroke="none"/><text fill="#000000" stroke="none" font-family="Arial" font-size="13px" font-style="normal" font-weight="bold" text-decoration="none" x="522.5" y="58">platform</text></g></g><g transform="translate(-14,-6) scale(1,1)"><path fill="none" stroke="#000000" d="M 550.5 80 L 550.5 637" stroke-miterlimit="10" stroke-dasharray="3"/></g><g transform="translate(-14,-6) scale(1,1)"><path fill="none" stroke="#000000" d="M 191 227 L 543 227" stroke-miterlimit="10"/></g><g transform="translate(-14,-6) scale(1,1)"><path fill="#000000" stroke="none" d="M 532.8373251423759 231.209517756016 L 543 227 L 532.8373251423758 222.790482243984"/></g><g transform="translate(-14,-6) scale(1,1)"><path fill="none" stroke="#000000" d="M 532.8373251423759 231.209517756016 L 543 227 L 532.8373251423758 222.790482243984 L 532.8373251423759 231.209517756016" stroke-miterlimit="10"/></g><g transform="translate(-14,-6) scale(1,1)"><g><path fill="none" stroke="none"/><text fill="#000000" stroke="none" font-family="Arial" font-size="13px" font-style="normal" font-weight="normal" text-decoration="none" x="274.5" y="222">1 : click collabs link from navbar</text></g></g><g transform="translate(-14,-6) scale(1,1)"><rect fill="#ffffff" stroke="none" x="543" y="227" width="13" height="28"/></g><g transform="translate(-14,-6) scale(1,1)"><path fill="none" stroke="#000000" d="M 543 227 L 556 227 L 556 255 L 543 255 L 543 227 Z Z" stroke-miterlimit="10"/></g><g transform="translate(-14,-6) scale(1,1)"><path fill="none" stroke="#000000" d="M 543 248 L 191 248" stroke-miterlimit="10" stroke-dasharray="3"/></g><g transform="translate(-14,-6) scale(1,1)"><path fill="none" stroke="#000000" d="M 201.16267485762415 243.790482243984 L 191 248 L 201.16267485762415 252.209517756016" stroke-miterlimit="10"/></g><g transform="translate(-14,-6) scale(1,1)"><g><path fill="none" stroke="none"/><text fill="#000000" stroke="none" font-family="Arial" font-size="13px" font-style="normal" font-weight="normal" text-decoration="none" x="293" y="267">2 : display collabs page</text></g></g><g transform="translate(-14,-6) scale(1,1)"><path fill="none" stroke="#000000" d="M 191 296 L 543 296" stroke-miterlimit="10"/></g><g transform="translate(-14,-6) scale(1,1)"><path fill="#000000" stroke="none" d="M 532.8373251423759 300.209517756016 L 543 296 L 532.8373251423758 291.790482243984"/></g><g transform="translate(-14,-6) scale(1,1)"><path fill="none" stroke="#000000" d="M 532.8373251423759 300.209517756016 L 543 296 L 532.8373251423758 291.790482243984 L 532.8373251423759 300.209517756016" stroke-miterlimit="10"/></g><g transform="translate(-14,-6) scale(1,1)"><g><path fill="none" stroke="none"/><text fill="#000000" stroke="none" font-family="Arial" font-size="13px" font-style="normal" font-weight="normal" text-decoration="none" x="284.5" y="291">3 : click create collab button</text></g></g><g transform="translate(-14,-6) scale(1,1)"><rect fill="#ffffff" stroke="none" x="543" y="296" width="13" height="28"/></g><g transform="translate(-14,-6) scale(1,1)"><path fill="none" stroke="#000000" d="M 543 296 L 556 296 L 556 324 L 543 324 L 543 296 Z Z" stroke-miterlimit="10"/></g><g transform="translate(-14,-6) scale(1,1)"><path fill="none" stroke="#000000" d="M 543 312 L 197 312" stroke-miterlimit="10"/></g><g transform="translate(-14,-6) scale(1,1)"><path fill="#000000" stroke="none" d="M 207.16267485762415 307.790482243984 L 197 312 L 207.16267485762415 316.209517756016"/></g><g transform="translate(-14,-6) scale(1,1)"><path fill="none" stroke="#000000" d="M 207.16267485762415 307.790482243984 L 197 312 L 207.16267485762415 316.209517756016 L 207.16267485762415 307.790482243984" stroke-miterlimit="10"/></g><g transform="translate(-14,-6) scale(1,1)"><g><path fill="none" stroke="none"/><text fill="#000000" stroke="none" font-family="Arial" font-size="13px" font-style="normal" font-weight="normal" text-decoration="none" x="324.5" y="327">4 : display form</text></g></g><g transform="translate(-14,-6) scale(1,1)"><rect fill="#ffffff" stroke="none" x="184" y="312" width="13" height="48"/></g><g transform="translate(-14,-6) scale(1,1)"><path fill="none" stroke="#000000" d="M 184 312 L 197 312 L 197 360 L 184 360 L 184 312 Z Z" stroke-miterlimit="10"/></g><g transform="translate(-14,-6) scale(1,1)"><path fill="none" stroke="#000000" d="M 197 352 L 543 352" stroke-miterlimit="10"/></g><g transform="translate(-14,-6) scale(1,1)"><path fill="#000000" stroke="none" d="M 532.8373251423759 356.209517756016 L 543 352 L 532.8373251423758 347.790482243984"/></g><g transform="translate(-14,-6) scale(1,1)"><path fill="none" stroke="#000000" d="M 532.8373251423759 356.209517756016 L 543 352 L 532.8373251423758 347.790482243984 L 532.8373251423759 356.209517756016" stroke-miterlimit="10"/></g><g transform="translate(-14,-6) scale(1,1)"><g><path fill="none" stroke="none"/><text fill="#000000" stroke="none" font-family="Arial" font-size="13px" font-style="normal" font-weight="normal" text-decoration="none" x="333" y="347">5 : fill in form</text></g></g><g transform="translate(-14,-6) scale(1,1)"><rect fill="#ffffff" stroke="none" x="543" y="352" width="13" height="271"/></g><g transform="translate(-14,-6) scale(1,1)"><path fill="none" stroke="#000000" d="M 543 352 L 556 352 L 556 623 L 543 623 L 543 352 Z Z" stroke-miterlimit="10"/></g><g transform="translate(-14,-6) scale(1,1)"><path fill="none" stroke="#000000" d="M 556 360 L 586 360 L 586 380 L 563 380" stroke-miterlimit="10"/></g><g transform="translate(-14,-6) scale(1,1)"><path fill="#000000" stroke="none" d="M 573.1626748576241 375.790482243984 L 563 380 L 573.1626748576241 384.209517756016"/></g><g transform="translate(-14,-6) scale(1,1)"><path fill="none" stroke="#000000" d="M 573.1626748576241 375.790482243984 L 563 380 L 573.1626748576241 384.209517756016 L 573.1626748576241 375.790482243984" stroke-miterlimit="10"/></g><g transform="translate(-14,-6) scale(1,1)"><g><path fill="none" stroke="none"/><text fill="#000000" stroke="none" font-family="Arial" font-size="13px" font-style="normal" font-weight="normal" text-decoration="none" x="568.5" y="355">6 : verify form</text></g></g><g transform="translate(-14,-6) scale(1,1)"><rect fill="#ffffff" stroke="none" x="550" y="380" width="13" height="240"/></g><g transform="translate(-14,-6) scale(1,1)"><path fill="none" stroke="#000000" d="M 550 380 L 563 380 L 563 620 L 550 620 L 550 380 Z Z" stroke-miterlimit="10"/></g><g transform="translate(-14,-6) scale(1,1)"><path fill="none" stroke="#000000" d="M 550 435 L 191 435" stroke-miterlimit="10" stroke-dasharray="3"/></g><g transform="translate(-14,-6) scale(1,1)"><path fill="none" stroke="#000000" d="M 201.16267485762415 430.790482243984 L 191 435 L 201.16267485762415 439.209517756016" stroke-miterlimit="10"/></g><g transform="translate(-14,-6) scale(1,1)"><g><path fill="none" stroke="none"/><text fill="#000000" stroke="none" font-family="Arial" font-size="13px" font-style="normal" font-weight="normal" text-decoration="none" x="305.5" y="450">7 : invalid inputts error</text></g></g><g transform="translate(-14,-6) scale(1,1)"><path fill="none" stroke="#000000" d="M 550 520 L 191 520" stroke-miterlimit="10" stroke-dasharray="3"/></g><g transform="translate(-14,-6) scale(1,1)"><path fill="none" stroke="#000000" d="M 201.16267485762415 515.790482243984 L 191 520 L 201.16267485762415 524.209517756016" stroke-miterlimit="10"/></g><g transform="translate(-14,-6) scale(1,1)"><g><path fill="none" stroke="none"/><text fill="#000000" stroke="none" font-family="Arial" font-size="13px" font-style="normal" font-weight="normal" text-decoration="none" x="299.5" y="535">8 : collaboration created</text></g></g><g transform="translate(-14,-6) scale(1,1)"><path fill="none" stroke="#000000" d="M 96 376 L 663 376 L 663 583 L 96 583 L 96 376" stroke-miterlimit="10"/></g><g transform="translate(-14,-6) scale(1,1)"><path fill="#ffffff" stroke="none" d="M 96 376 L 96 398 L 162 398 L 173 387 L 173 376 L 96 376"/></g><g transform="translate(-14,-6) scale(1,1)"><path fill="none" stroke="#000000" d="M 96 376 L 96 398 L 162 398 L 173 387 L 173 376 L 96 376 L 96 376" stroke-miterlimit="10"/></g><g transform="translate(-14,-6) scale(1,1)"><g><path fill="none" stroke="none"/><text fill="#000000" stroke="none" font-family="Arial" font-size="13px" font-style="normal" font-weight="normal" text-decoration="none" x="128" y="392">verify</text></g></g><g transform="translate(-14,-6) scale(1,1)"><g><path fill="none" stroke="none"/><text fill="#000000" stroke="none" font-family="Arial" font-size="13px" font-style="normal" font-weight="bold" text-decoration="none" x="100.5" y="390.5">seq</text></g></g><g transform="translate(-14,-6) scale(1,1)"><g><path fill="none" stroke="none"/><text fill="#000000" stroke="none" font-family="Arial" font-size="13px" font-style="normal" font-weight="normal" text-decoration="none" x="115.5" y="425">[wrong inputs]</text></g></g><g transform="translate(-14,-6) scale(1,1)"><path fill="none" stroke="#000000" d="M 96 473 L 663 473" stroke-miterlimit="10" stroke-dasharray="10,3"/></g><g transform="translate(-14,-6) scale(1,1)"><g><path fill="none" stroke="none"/><text fill="#000000" stroke="none" font-family="Arial" font-size="13px" font-style="normal" font-weight="normal" text-decoration="none" x="115.5" y="499">[valid inputs]</text></g></g></g></svg>