<svg version="1.1" xmlns="http://www.w3.org/2000/svg" xmlns:xlink="http://www.w3.org/1999/xlink" width="711" height="732"><defs/><g><text fill="#eeeeee" stroke="none" font-family="Arial" font-size="24px" font-style="normal" font-weight="normal" text-decoration="none" x="0" y="0">UNREGISTERED</text><text fill="#eeeeee" stroke="none" font-family="Arial" font-size="24px" font-style="normal" font-weight="normal" text-decoration="none" x="0" y="30">UNREGISTERED</text><text fill="#eeeeee" stroke="none" font-family="Arial" font-size="24px" font-style="normal" font-weight="normal" text-decoration="none" x="0" y="60">UNREGISTERED</text><text fill="#eeeeee" stroke="none" font-family="Arial" font-size="24px" font-style="normal" font-weight="normal" text-decoration="none" x="0" y="90">UNREGISTERED</text><text fill="#eeeeee" stroke="none" font-family="Arial" font-size="24px" font-style="normal" font-weight="normal" text-decoration="none" x="0" y="120">UNREGISTERED</text><text fill="#eeeeee" stroke="none" font-family="Arial" font-size="24px" font-style="normal" font-weight="normal" text-decoration="none" x="0" y="150">UNREGISTERED</text><text fill="#eeeeee" stroke="none" font-family="Arial" font-size="24px" font-style="normal" font-weight="normal" text-decoration="none" x="0" y="180">UNREGISTERED</text><text fill="#eeeeee" stroke="none" font-family="Arial" font-size="24px" font-style="normal" font-weight="normal" text-decoration="none" x="0" y="210">UNREGISTERED</text><text fill="#eeeeee" stroke="none" font-family="Arial" font-size="24px" font-style="normal" font-weight="normal" text-decoration="none" x="0" y="240">UNREGISTERED</text><text fill="#eeeeee" stroke="none" font-family="Arial" font-size="24px" font-style="normal" font-weight="normal" text-decoration="none" x="0" y="270">UNREGISTERED</text><text fill="#eeeeee" stroke="none" font-family="Arial" font-size="24px" font-style="normal" font-weight="normal" text-decoration="none" x="0" y="300">UNREGISTERED</text><text fill="#eeeeee" stroke="none" font-family="Arial" font-size="24px" font-style="normal" font-weight="normal" text-decoration="none" x="0" y="330">UNREGISTERED</text><text fill="#eeeeee" stroke="none" font-family="Arial" font-size="24px" font-style="normal" font-weight="normal" text-decoration="none" x="0" y="360">UNREGISTERED</text><text fill="#eeeeee" stroke="none" font-family="Arial" font-size="24px" font-style="normal" font-weight="normal" text-decoration="none" x="0" y="390">UNREGISTERED</text><text fill="#eeeeee" stroke="none" font-family="Arial" font-size="24px" font-style="normal" font-weight="normal" text-decoration="none" x="0" y="420">UNREGISTERED</text><text fill="#eeeeee" stroke="none" font-family="Arial" font-size="24px" font-style="normal" font-weight="normal" text-decoration="none" x="0" y="450">UNREGISTERED</text><text fill="#eeeeee" stroke="none" font-family="Arial" font-size="24px" font-style="normal" font-weight="normal" text-decoration="none" x="0" y="480">UNREGISTERED</text><text fill="#eeeeee" stroke="none" font-family="Arial" font-size="24px" font-style="normal" font-weight="normal" text-decoration="none" x="0" y="510">UNREGISTERED</text><text fill="#eeeeee" stroke="none" font-family="Arial" font-size="24px" font-style="normal" font-weight="normal" text-decoration="none" x="0" y="540">UNREGISTERED</text><text fill="#eeeeee" stroke="none" font-family="Arial" font-size="24px" font-style="normal" font-weight="normal" text-decoration="none" x="0" y="570">UNREGISTERED</text><text fill="#eeeeee" stroke="none" font-family="Arial" font-size="24px" font-style="normal" font-weight="normal" text-decoration="none" x="0" y="600">UNREGISTERED</text><text fill="#eeeeee" stroke="none" font-family="Arial" font-size="24px" font-style="normal" font-weight="normal" text-decoration="none" x="0" y="630">UNREGISTERED</text><text fill="#eeeeee" stroke="none" font-family="Arial" font-size="24px" font-style="normal" font-weight="normal" text-decoration="none" x="0" y="660">UNREGISTERED</text><text fill="#eeeeee" stroke="none" font-family="Arial" font-size="24px" font-style="normal" font-weight="normal" text-decoration="none" x="0" y="690">UNREGISTERED</text><text fill="#eeeeee" stroke="none" font-family="Arial" font-size="24px" font-style="normal" font-weight="normal" text-decoration="none" x="0" y="720">UNREGISTERED</text><text fill="#eeeeee" stroke="none" font-family="Arial" font-size="24px" font-style="normal" font-weight="normal" text-decoration="none" x="200" y="0">UNREGISTERED</text><text fill="#eeeeee" stroke="none" font-family="Arial" font-size="24px" font-style="normal" font-weight="normal" text-decoration="none" x="200" y="30">UNREGISTERED</text><text fill="#eeeeee" stroke="none" font-family="Arial" font-size="24px" font-style="normal" font-weight="normal" text-decoration="none" x="200" y="60">UNREGISTERED</text><text fill="#eeeeee" stroke="none" font-family="Arial" font-size="24px" font-style="normal" font-weight="normal" text-decoration="none" x="200" y="90">UNREGISTERED</text><text fill="#eeeeee" stroke="none" font-family="Arial" font-size="24px" font-style="normal" font-weight="normal" text-decoration="none" x="200" y="120">UNREGISTERED</text><text fill="#eeeeee" stroke="none" font-family="Arial" font-size="24px" font-style="normal" font-weight="normal" text-decoration="none" x="200" y="150">UNREGISTERED</text><text fill="#eeeeee" stroke="none" font-family="Arial" font-size="24px" font-style="normal" font-weight="normal" text-decoration="none" x="200" y="180">UNREGISTERED</text><text fill="#eeeeee" stroke="none" font-family="Arial" font-size="24px" font-style="normal" font-weight="normal" text-decoration="none" x="200" y="210">UNREGISTERED</text><text fill="#eeeeee" stroke="none" font-family="Arial" font-size="24px" font-style="normal" font-weight="normal" text-decoration="none" x="200" y="240">UNREGISTERED</text><text fill="#eeeeee" stroke="none" font-family="Arial" font-size="24px" font-style="normal" font-weight="normal" text-decoration="none" x="200" y="270">UNREGISTERED</text><text fill="#eeeeee" stroke="none" font-family="Arial" font-size="24px" font-style="normal" font-weight="normal" text-decoration="none" x="200" y="300">UNREGISTERED</text><text fill="#eeeeee" stroke="none" font-family="Arial" font-size="24px" font-style="normal" font-weight="normal" text-decoration="none" x="200" y="330">UNREGISTERED</text><text fill="#eeeeee" stroke="none" font-family="Arial" font-size="24px" font-style="normal" font-weight="normal" text-decoration="none" x="200" y="360">UNREGISTERED</text><text fill="#eeeeee" stroke="none" font-family="Arial" font-size="24px" font-style="normal" font-weight="normal" text-decoration="none" x="200" y="390">UNREGISTERED</text><text fill="#eeeeee" stroke="none" font-family="Arial" font-size="24px" font-style="normal" font-weight="normal" text-decoration="none" x="200" y="420">UNREGISTERED</text><text fill="#eeeeee" stroke="none" font-family="Arial" font-size="24px" font-style="normal" font-weight="normal" text-decoration="none" x="200" y="450">UNREGISTERED</text><text fill="#eeeeee" stroke="none" font-family="Arial" font-size="24px" font-style="normal" font-weight="normal" text-decoration="none" x="200" y="480">UNREGISTERED</text><text fill="#eeeeee" stroke="none" font-family="Arial" font-size="24px" font-style="normal" font-weight="normal" text-decoration="none" x="200" y="510">UNREGISTERED</text><text fill="#eeeeee" stroke="none" font-family="Arial" font-size="24px" font-style="normal" font-weight="normal" text-decoration="none" x="200" y="540">UNREGISTERED</text><text fill="#eeeeee" stroke="none" font-family="Arial" font-size="24px" font-style="normal" font-weight="normal" text-decoration="none" x="200" y="570">UNREGISTERED</text><text fill="#eeeeee" stroke="none" font-family="Arial" font-size="24px" font-style="normal" font-weight="normal" text-decoration="none" x="200" y="600">UNREGISTERED</text><text fill="#eeeeee" stroke="none" font-family="Arial" font-size="24px" font-style="normal" font-weight="normal" text-decoration="none" x="200" y="630">UNREGISTERED</text><text fill="#eeeeee" stroke="none" font-family="Arial" font-size="24px" font-style="normal" font-weight="normal" text-decoration="none" x="200" y="660">UNREGISTERED</text><text fill="#eeeeee" stroke="none" font-family="Arial" font-size="24px" font-style="normal" font-weight="normal" text-decoration="none" x="200" y="690">UNREGISTERED</text><text fill="#eeeeee" stroke="none" font-family="Arial" font-size="24px" font-style="normal" font-weight="normal" text-decoration="none" x="200" y="720">UNREGISTERED</text><text fill="#eeeeee" stroke="none" font-family="Arial" font-size="24px" font-style="normal" font-weight="normal" text-decoration="none" x="400" y="0">UNREGISTERED</text><text fill="#eeeeee" stroke="none" font-family="Arial" font-size="24px" font-style="normal" font-weight="normal" text-decoration="none" x="400" y="30">UNREGISTERED</text><text fill="#eeeeee" stroke="none" font-family="Arial" font-size="24px" font-style="normal" font-weight="normal" text-decoration="none" x="400" y="60">UNREGISTERED</text><text fill="#eeeeee" stroke="none" font-family="Arial" font-size="24px" font-style="normal" font-weight="normal" text-decoration="none" x="400" y="90">UNREGISTERED</text><text fill="#eeeeee" stroke="none" font-family="Arial" font-size="24px" font-style="normal" font-weight="normal" text-decoration="none" x="400" y="120">UNREGISTERED</text><text fill="#eeeeee" stroke="none" font-family="Arial" font-size="24px" font-style="normal" font-weight="normal" text-decoration="none" x="400" y="150">UNREGISTERED</text><text fill="#eeeeee" stroke="none" font-family="Arial" font-size="24px" font-style="normal" font-weight="normal" text-decoration="none" x="400" y="180">UNREGISTERED</text><text fill="#eeeeee" stroke="none" font-family="Arial" font-size="24px" font-style="normal" font-weight="normal" text-decoration="none" x="400" y="210">UNREGISTERED</text><text fill="#eeeeee" stroke="none" font-family="Arial" font-size="24px" font-style="normal" font-weight="normal" text-decoration="none" x="400" y="240">UNREGISTERED</text><text fill="#eeeeee" stroke="none" font-family="Arial" font-size="24px" font-style="normal" font-weight="normal" text-decoration="none" x="400" y="270">UNREGISTERED</text><text fill="#eeeeee" stroke="none" font-family="Arial" font-size="24px" font-style="normal" font-weight="normal" text-decoration="none" x="400" y="300">UNREGISTERED</text><text fill="#eeeeee" stroke="none" font-family="Arial" font-size="24px" font-style="normal" font-weight="normal" text-decoration="none" x="400" y="330">UNREGISTERED</text><text fill="#eeeeee" stroke="none" font-family="Arial" font-size="24px" font-style="normal" font-weight="normal" text-decoration="none" x="400" y="360">UNREGISTERED</text><text fill="#eeeeee" stroke="none" font-family="Arial" font-size="24px" font-style="normal" font-weight="normal" text-decoration="none" x="400" y="390">UNREGISTERED</text><text fill="#eeeeee" stroke="none" font-family="Arial" font-size="24px" font-style="normal" font-weight="normal" text-decoration="none" x="400" y="420">UNREGISTERED</text><text fill="#eeeeee" stroke="none" font-family="Arial" font-size="24px" font-style="normal" font-weight="normal" text-decoration="none" x="400" y="450">UNREGISTERED</text><text fill="#eeeeee" stroke="none" font-family="Arial" font-size="24px" font-style="normal" font-weight="normal" text-decoration="none" x="400" y="480">UNREGISTERED</text><text fill="#eeeeee" stroke="none" font-family="Arial" font-size="24px" font-style="normal" font-weight="normal" text-decoration="none" x="400" y="510">UNREGISTERED</text><text fill="#eeeeee" stroke="none" font-family="Arial" font-size="24px" font-style="normal" font-weight="normal" text-decoration="none" x="400" y="540">UNREGISTERED</text><text fill="#eeeeee" stroke="none" font-family="Arial" font-size="24px" font-style="normal" font-weight="normal" text-decoration="none" x="400" y="570">UNREGISTERED</text><text fill="#eeeeee" stroke="none" font-family="Arial" font-size="24px" font-style="normal" font-weight="normal" text-decoration="none" x="400" y="600">UNREGISTERED</text><text fill="#eeeeee" stroke="none" font-family="Arial" font-size="24px" font-style="normal" font-weight="normal" text-decoration="none" x="400" y="630">UNREGISTERED</text><text fill="#eeeeee" stroke="none" font-family="Arial" font-size="24px" font-style="normal" font-weight="normal" text-decoration="none" x="400" y="660">UNREGISTERED</text><text fill="#eeeeee" stroke="none" font-family="Arial" font-size="24px" font-style="normal" font-weight="normal" text-decoration="none" x="400" y="690">UNREGISTERED</text><text fill="#eeeeee" stroke="none" font-family="Arial" font-size="24px" font-style="normal" font-weight="normal" text-decoration="none" x="400" y="720">UNREGISTERED</text><text fill="#eeeeee" stroke="none" font-family="Arial" font-size="24px" font-style="normal" font-weight="normal" text-decoration="none" x="600" y="0">UNREGISTERED</text><text fill="#eeeeee" stroke="none" font-family="Arial" font-size="24px" font-style="normal" font-weight="normal" text-decoration="none" x="600" y="30">UNREGISTERED</text><text fill="#eeeeee" stroke="none" font-family="Arial" font-size="24px" font-style="normal" font-weight="normal" text-decoration="none" x="600" y="60">UNREGISTERED</text><text fill="#eeeeee" stroke="none" font-family="Arial" font-size="24px" font-style="normal" font-weight="normal" text-decoration="none" x="600" y="90">UNREGISTERED</text><text fill="#eeeeee" stroke="none" font-family="Arial" font-size="24px" font-style="normal" font-weight="normal" text-decoration="none" x="600" y="120">UNREGISTERED</text><text fill="#eeeeee" stroke="none" font-family="Arial" font-size="24px" font-style="normal" font-weight="normal" text-decoration="none" x="600" y="150">UNREGISTERED</text><text fill="#eeeeee" stroke="none" font-family="Arial" font-size="24px" font-style="normal" font-weight="normal" text-decoration="none" x="600" y="180">UNREGISTERED</text><text fill="#eeeeee" stroke="none" font-family="Arial" font-size="24px" font-style="normal" font-weight="normal" text-decoration="none" x="600" y="210">UNREGISTERED</text><text fill="#eeeeee" stroke="none" font-family="Arial" font-size="24px" font-style="normal" font-weight="normal" text-decoration="none" x="600" y="240">UNREGISTERED</text><text fill="#eeeeee" stroke="none" font-family="Arial" font-size="24px" font-style="normal" font-weight="normal" text-decoration="none" x="600" y="270">UNREGISTERED</text><text fill="#eeeeee" stroke="none" font-family="Arial" font-size="24px" font-style="normal" font-weight="normal" text-decoration="none" x="600" y="300">UNREGISTERED</text><text fill="#eeeeee" stroke="none" font-family="Arial" font-size="24px" font-style="normal" font-weight="normal" text-decoration="none" x="600" y="330">UNREGISTERED</text><text fill="#eeeeee" stroke="none" font-family="Arial" font-size="24px" font-style="normal" font-weight="normal" text-decoration="none" x="600" y="360">UNREGISTERED</text><text fill="#eeeeee" stroke="none" font-family="Arial" font-size="24px" font-style="normal" font-weight="normal" text-decoration="none" x="600" y="390">UNREGISTERED</text><text fill="#eeeeee" stroke="none" font-family="Arial" font-size="24px" font-style="normal" font-weight="normal" text-decoration="none" x="600" y="420">UNREGISTERED</text><text fill="#eeeeee" stroke="none" font-family="Arial" font-size="24px" font-style="normal" font-weight="normal" text-decoration="none" x="600" y="450">UNREGISTERED</text><text fill="#eeeeee" stroke="none" font-family="Arial" font-size="24px" font-style="normal" font-weight="normal" text-decoration="none" x="600" y="480">UNREGISTERED</text><text fill="#eeeeee" stroke="none" font-family="Arial" font-size="24px" font-style="normal" font-weight="normal" text-decoration="none" x="600" y="510">UNREGISTERED</text><text fill="#eeeeee" stroke="none" font-family="Arial" font-size="24px" font-style="normal" font-weight="normal" text-decoration="none" x="600" y="540">UNREGISTERED</text><text fill="#eeeeee" stroke="none" font-family="Arial" font-size="24px" font-style="normal" font-weight="normal" text-decoration="none" x="600" y="570">UNREGISTERED</text><text fill="#eeeeee" stroke="none" font-family="Arial" font-size="24px" font-style="normal" font-weight="normal" text-decoration="none" x="600" y="600">UNREGISTERED</text><text fill="#eeeeee" stroke="none" font-family="Arial" font-size="24px" font-style="normal" font-weight="normal" text-decoration="none" x="600" y="630">UNREGISTERED</text><text fill="#eeeeee" stroke="none" font-family="Arial" font-size="24px" font-style="normal" font-weight="normal" text-decoration="none" x="600" y="660">UNREGISTERED</text><text fill="#eeeeee" stroke="none" font-family="Arial" font-size="24px" font-style="normal" font-weight="normal" text-decoration="none" x="600" y="690">UNREGISTERED</text><text fill="#eeeeee" stroke="none" font-family="Arial" font-size="24px" font-style="normal" font-weight="normal" text-decoration="none" x="600" y="720">UNREGISTERED</text><g transform="translate(10,2) scale(1,1)"><path fill="none" stroke="#000000" d="M 0 8 L 691 8 L 691 720 L 0 720 L 0 8" stroke-miterlimit="10"/></g><g transform="translate(10,2) scale(1,1)"><path fill="#ffffff" stroke="none" d="M 0 8 L 0 30 L 272 30 L 283 19 L 283 8 L 0 8"/></g><g transform="translate(10,2) scale(1,1)"><path fill="none" stroke="#000000" d="M 0 8 L 0 30 L 272 30 L 283 19 L 283 8 L 0 8 L 0 8" stroke-miterlimit="10"/></g><g transform="translate(10,2) scale(1,1)"><g><path fill="none" stroke="none"/><text fill="#000000" stroke="none" font-family="Arial" font-size="13px" font-style="normal" font-weight="normal" text-decoration="none" x="25" y="24">Register buyer Global SequenceDiagram1</text></g></g><g transform="translate(10,2) scale(1,1)"><g><path fill="none" stroke="none"/><text fill="#000000" stroke="none" font-family="Arial" font-size="13px" font-style="normal" font-weight="bold" text-decoration="none" x="5" y="24">sd</text></g></g><g transform="translate(10,2) scale(1,1)"><rect fill="#C0C0C0" stroke="none" x="455" y="47" width="74" height="39" opacity="0.2"/></g><g transform="translate(10,2) scale(1,1)"><rect fill="#ffffff" stroke="none" x="448" y="40" width="74" height="39"/></g><g transform="translate(10,2) scale(1,1)"><path fill="none" stroke="#000000" d="M 448 40 L 522 40 L 522 79 L 448 79 L 448 40 Z Z" stroke-miterlimit="10"/></g><g transform="translate(10,2) scale(1,1)"><g><path fill="none" stroke="none"/><text fill="#000000" stroke="none" font-family="Arial" font-size="13px" font-style="normal" font-weight="bold" text-decoration="none" x="458" y="58">Platform</text></g></g><g transform="translate(10,2) scale(1,1)"><path fill="none" stroke="#000000" d="M 486.5 80 L 486.5 718" stroke-miterlimit="10" stroke-dasharray="3"/></g><g transform="translate(10,2) scale(1,1)"><path fill="none" stroke="#000000" d="M 226.5 40 L 266.5 40 L 266.5 80 L 226.5 80 L 226.5 40 Z Z" stroke-miterlimit="10"/></g><g transform="translate(10,2) scale(1,1)"><path fill="none" stroke="#000000" d="M 226.5 40 L 266.5 80" stroke-miterlimit="10"/></g><g transform="translate(10,2) scale(1,1)"><path fill="none" stroke="#000000" d="M 266.5 40 L 226.5 80" stroke-miterlimit="10"/></g><g transform="translate(10,2) scale(1,1)"><g><path fill="none" stroke="none"/><text fill="#000000" stroke="none" font-family="Arial" font-size="13px" font-style="normal" font-weight="bold" text-decoration="none" x="233" y="96.5">user</text></g></g><g transform="translate(10,2) scale(1,1)"><path fill="none" stroke="#000000" d="M 247.5 105 L 247.5 720" stroke-miterlimit="10" stroke-dasharray="3"/></g><g transform="translate(10,2) scale(1,1)"><path fill="none" stroke="#000000" d="M 247 112 L 479 112" stroke-miterlimit="10"/></g><g transform="translate(10,2) scale(1,1)"><path fill="#000000" stroke="none" d="M 468.83732514237585 116.20951775601598 L 479 112 L 468.83732514237585 107.79048224398402"/></g><g transform="translate(10,2) scale(1,1)"><path fill="none" stroke="#000000" d="M 468.83732514237585 116.20951775601598 L 479 112 L 468.83732514237585 107.79048224398402 L 468.83732514237585 116.20951775601598" stroke-miterlimit="10"/></g><g transform="translate(10,2) scale(1,1)"><g><path fill="none" stroke="none"/><text fill="#000000" stroke="none" font-family="Arial" font-size="13px" font-style="normal" font-weight="normal" text-decoration="none" x="297" y="107">1 : click SignUp button</text></g></g><g transform="translate(10,2) scale(1,1)"><rect fill="#ffffff" stroke="none" x="479" y="112" width="13" height="54"/></g><g transform="translate(10,2) scale(1,1)"><path fill="none" stroke="#000000" d="M 479 112 L 492 112 L 492 166 L 479 166 L 479 112 Z Z" stroke-miterlimit="10"/></g><g transform="translate(10,2) scale(1,1)"><path fill="none" stroke="#000000" d="M 479 152 L 253 152" stroke-miterlimit="10"/></g><g transform="translate(10,2) scale(1,1)"><path fill="#000000" stroke="none" d="M 263.16267485762415 147.790482243984 L 253 152 L 263.16267485762415 156.209517756016"/></g><g transform="translate(10,2) scale(1,1)"><path fill="none" stroke="#000000" d="M 263.16267485762415 147.790482243984 L 253 152 L 263.16267485762415 156.209517756016 L 263.16267485762415 147.790482243984" stroke-miterlimit="10"/></g><g transform="translate(10,2) scale(1,1)"><g><path fill="none" stroke="none"/><text fill="#000000" stroke="none" font-family="Arial" font-size="13px" font-style="normal" font-weight="normal" text-decoration="none" x="266.5" y="141">2 : display register farmer page</text></g></g><g transform="translate(10,2) scale(1,1)"><rect fill="#ffffff" stroke="none" x="240" y="152" width="13" height="40"/></g><g transform="translate(10,2) scale(1,1)"><path fill="none" stroke="#000000" d="M 240 152 L 253 152 L 253 192 L 240 192 L 240 152 Z Z" stroke-miterlimit="10"/></g><g transform="translate(10,2) scale(1,1)"><path fill="none" stroke="#000000" d="M 247 192 L 479 192" stroke-miterlimit="10"/></g><g transform="translate(10,2) scale(1,1)"><path fill="#000000" stroke="none" d="M 468.83732514237585 196.209517756016 L 479 192 L 468.83732514237585 187.790482243984"/></g><g transform="translate(10,2) scale(1,1)"><path fill="none" stroke="#000000" d="M 468.83732514237585 196.209517756016 L 479 192 L 468.83732514237585 187.790482243984 L 468.83732514237585 196.209517756016" stroke-miterlimit="10"/></g><g transform="translate(10,2) scale(1,1)"><g><path fill="none" stroke="none"/><text fill="#000000" stroke="none" font-family="Arial" font-size="13px" font-style="normal" font-weight="normal" text-decoration="none" x="279.5" y="187">3 : click signup as buyer link</text></g></g><g transform="translate(10,2) scale(1,1)"><rect fill="#ffffff" stroke="none" x="479" y="192" width="13" height="28"/></g><g transform="translate(10,2) scale(1,1)"><path fill="none" stroke="#000000" d="M 479 192 L 492 192 L 492 220 L 479 220 L 479 192 Z Z" stroke-miterlimit="10"/></g><g transform="translate(10,2) scale(1,1)"><path fill="none" stroke="#000000" d="M 486 224 L 253 224" stroke-miterlimit="10"/></g><g transform="translate(10,2) scale(1,1)"><path fill="#000000" stroke="none" d="M 263.16267485762415 219.790482243984 L 253 224 L 263.16267485762415 228.209517756016"/></g><g transform="translate(10,2) scale(1,1)"><path fill="none" stroke="#000000" d="M 263.16267485762415 219.790482243984 L 253 224 L 263.16267485762415 228.209517756016 L 263.16267485762415 219.790482243984" stroke-miterlimit="10"/></g><g transform="translate(10,2) scale(1,1)"><g><path fill="none" stroke="none"/><text fill="#000000" stroke="none" font-family="Arial" font-size="13px" font-style="normal" font-weight="normal" text-decoration="none" x="278.5" y="239">4 : display sign up farmer page</text></g></g><g transform="translate(10,2) scale(1,1)"><rect fill="#ffffff" stroke="none" x="240" y="224" width="13" height="65"/></g><g transform="translate(10,2) scale(1,1)"><path fill="none" stroke="#000000" d="M 240 224 L 253 224 L 253 289 L 240 289 L 240 224 Z Z" stroke-miterlimit="10"/></g><g transform="translate(10,2) scale(1,1)"><path fill="none" stroke="#000000" d="M 253 280 L 479 280" stroke-miterlimit="10"/></g><g transform="translate(10,2) scale(1,1)"><path fill="#000000" stroke="none" d="M 468.83732514237585 284.209517756016 L 479 280 L 468.83732514237585 275.790482243984"/></g><g transform="translate(10,2) scale(1,1)"><path fill="none" stroke="#000000" d="M 468.83732514237585 284.209517756016 L 479 280 L 468.83732514237585 275.790482243984 L 468.83732514237585 284.209517756016" stroke-miterlimit="10"/></g><g transform="translate(10,2) scale(1,1)"><g><path fill="none" stroke="none"/><text fill="#000000" stroke="none" font-family="Arial" font-size="13px" font-style="normal" font-weight="normal" text-decoration="none" x="263.5" y="267">5 : fill in form &amp; click sign up button</text></g></g><g transform="translate(10,2) scale(1,1)"><rect fill="#ffffff" stroke="none" x="479" y="280" width="13" height="28"/></g><g transform="translate(10,2) scale(1,1)"><path fill="none" stroke="#000000" d="M 479 280 L 492 280 L 492 308 L 479 308 L 479 280 Z Z" stroke-miterlimit="10"/></g><g transform="translate(10,2) scale(1,1)"><path fill="none" stroke="#000000" d="M 492 296 L 522 296 L 522 316 L 492 316" stroke-miterlimit="10"/></g><g transform="translate(10,2) scale(1,1)"><path fill="#000000" stroke="none" d="M 502.16267485762415 311.790482243984 L 492 316 L 502.16267485762415 320.209517756016"/></g><g transform="translate(10,2) scale(1,1)"><path fill="none" stroke="#000000" d="M 502.16267485762415 311.790482243984 L 492 316 L 502.16267485762415 320.209517756016 L 502.16267485762415 311.790482243984" stroke-miterlimit="10"/></g><g transform="translate(10,2) scale(1,1)"><g><path fill="none" stroke="none"/><text fill="#000000" stroke="none" font-family="Arial" font-size="13px" font-style="normal" font-weight="normal" text-decoration="none" x="495.5" y="291">6 : verify inputs</text></g></g><g transform="translate(10,2) scale(1,1)"><rect fill="#ffffff" stroke="none" x="479" y="316" width="13" height="372"/></g><g transform="translate(10,2) scale(1,1)"><path fill="none" stroke="#000000" d="M 479 316 L 492 316 L 492 688 L 479 688 L 479 316 Z Z" stroke-miterlimit="10"/></g><g transform="translate(10,2) scale(1,1)"><path fill="none" stroke="#000000" d="M 492 392 L 522 392 L 522 412 L 499 412" stroke-miterlimit="10"/></g><g transform="translate(10,2) scale(1,1)"><path fill="#000000" stroke="none" d="M 509.16267485762415 407.790482243984 L 499 412 L 509.16267485762415 416.209517756016"/></g><g transform="translate(10,2) scale(1,1)"><path fill="none" stroke="#000000" d="M 509.16267485762415 407.790482243984 L 499 412 L 509.16267485762415 416.209517756016 L 509.16267485762415 407.790482243984" stroke-miterlimit="10"/></g><g transform="translate(10,2) scale(1,1)"><g><path fill="none" stroke="none"/><text fill="#000000" stroke="none" font-family="Arial" font-size="13px" font-style="normal" font-weight="normal" text-decoration="none" x="501.5" y="427">7 : verify existence</text></g></g><g transform="translate(10,2) scale(1,1)"><rect fill="#ffffff" stroke="none" x="486" y="412" width="13" height="180"/></g><g transform="translate(10,2) scale(1,1)"><path fill="none" stroke="#000000" d="M 486 412 L 499 412 L 499 592 L 486 592 L 486 412 Z Z" stroke-miterlimit="10"/></g><g transform="translate(10,2) scale(1,1)"><path fill="none" stroke="#000000" d="M 486 504 L 247 504" stroke-miterlimit="10" stroke-dasharray="3"/></g><g transform="translate(10,2) scale(1,1)"><path fill="none" stroke="#000000" d="M 257.16267485762415 499.790482243984 L 247 504 L 257.16267485762415 508.209517756016" stroke-miterlimit="10"/></g><g transform="translate(10,2) scale(1,1)"><g><path fill="none" stroke="none"/><text fill="#000000" stroke="none" font-family="Arial" font-size="13px" font-style="normal" font-weight="normal" text-decoration="none" x="299.5" y="519">8 : already existe error</text></g></g><g transform="translate(10,2) scale(1,1)"><path fill="none" stroke="#000000" d="M 486 560 L 247 560" stroke-miterlimit="10" stroke-dasharray="3"/></g><g transform="translate(10,2) scale(1,1)"><path fill="none" stroke="#000000" d="M 257.16267485762415 555.790482243984 L 247 560 L 257.16267485762415 564.209517756016" stroke-miterlimit="10"/></g><g transform="translate(10,2) scale(1,1)"><g><path fill="none" stroke="none"/><text fill="#000000" stroke="none" font-family="Arial" font-size="13px" font-style="normal" font-weight="normal" text-decoration="none" x="294.5" y="575">9 : redirect to main page</text></g></g><g transform="translate(10,2) scale(1,1)"><path fill="none" stroke="#000000" d="M 479 640 L 247 640" stroke-miterlimit="10" stroke-dasharray="3"/></g><g transform="translate(10,2) scale(1,1)"><path fill="none" stroke="#000000" d="M 257.16267485762415 635.790482243984 L 247 640 L 257.16267485762415 644.209517756016" stroke-miterlimit="10"/></g><g transform="translate(10,2) scale(1,1)"><g><path fill="none" stroke="none"/><text fill="#000000" stroke="none" font-family="Arial" font-size="13px" font-style="normal" font-weight="normal" text-decoration="none" x="297.5" y="655">10 : wrong inputs error</text></g></g><g transform="translate(10,2) scale(1,1)"><path fill="none" stroke="#000000" d="M 112 344 L 560 344 L 560 696 L 112 696 L 112 344" stroke-miterlimit="10"/></g><g transform="translate(10,2) scale(1,1)"><path fill="#ffffff" stroke="none" d="M 112 344 L 112 366 L 181 366 L 192 355 L 192 344 L 112 344"/></g><g transform="translate(10,2) scale(1,1)"><path fill="none" stroke="#000000" d="M 112 344 L 112 366 L 181 366 L 192 355 L 192 344 L 112 344 L 112 344" stroke-miterlimit="10"/></g><g transform="translate(10,2) scale(1,1)"><g><path fill="none" stroke="none"/><text fill="#000000" stroke="none" font-family="Arial" font-size="13px" font-style="normal" font-weight="normal" text-decoration="none" x="137" y="360">validity</text></g></g><g transform="translate(10,2) scale(1,1)"><g><path fill="none" stroke="none"/><text fill="#000000" stroke="none" font-family="Arial" font-size="13px" font-style="normal" font-weight="bold" text-decoration="none" x="116" y="360">alt</text></g></g><g transform="translate(10,2) scale(1,1)"><g><path fill="none" stroke="none"/><text fill="#000000" stroke="none" font-family="Arial" font-size="13px" font-style="normal" font-weight="normal" text-decoration="none" x="131.5" y="393">[valid inputs]</text></g></g><g transform="translate(10,2) scale(1,1)"><path fill="none" stroke="#000000" d="M 112 601 L 560 601" stroke-miterlimit="10" stroke-dasharray="10,3"/></g><g transform="translate(10,2) scale(1,1)"><g><path fill="none" stroke="none"/><text fill="#000000" stroke="none" font-family="Arial" font-size="13px" font-style="normal" font-weight="normal" text-decoration="none" x="131.5" y="627">[Invalid Inputs]</text></g></g><g transform="translate(10,2) scale(1,1)"><path fill="none" stroke="#000000" d="M 144 440 L 511 440 L 511 584 L 144 584 L 144 440" stroke-miterlimit="10"/></g><g transform="translate(10,2) scale(1,1)"><path fill="#ffffff" stroke="none" d="M 144 440 L 144 462 L 230 462 L 241 451 L 241 440 L 144 440"/></g><g transform="translate(10,2) scale(1,1)"><path fill="none" stroke="#000000" d="M 144 440 L 144 462 L 230 462 L 241 451 L 241 440 L 144 440 L 144 440" stroke-miterlimit="10"/></g><g transform="translate(10,2) scale(1,1)"><g><path fill="none" stroke="none"/><text fill="#000000" stroke="none" font-family="Arial" font-size="13px" font-style="normal" font-weight="normal" text-decoration="none" x="169" y="456">existence</text></g></g><g transform="translate(10,2) scale(1,1)"><g><path fill="none" stroke="none"/><text fill="#000000" stroke="none" font-family="Arial" font-size="13px" font-style="normal" font-weight="bold" text-decoration="none" x="148" y="456">alt</text></g></g><g transform="translate(10,2) scale(1,1)"><g><path fill="none" stroke="none"/><text fill="#000000" stroke="none" font-family="Arial" font-size="13px" font-style="normal" font-weight="normal" text-decoration="none" x="163.5" y="489">[User already existe]</text></g></g><g transform="translate(10,2) scale(1,1)"><path fill="none" stroke="#000000" d="M 144 529 L 511 529" stroke-miterlimit="10" stroke-dasharray="10,3"/></g><g transform="translate(10,2) scale(1,1)"><g><path fill="none" stroke="none"/><text fill="#000000" stroke="none" font-family="Arial" font-size="13px" font-style="normal" font-weight="normal" text-decoration="none" x="163.5" y="555">[user does not exist]</text></g></g></g></svg>